<?xml version="1.0" encoding="utf-8"?>
<!-- Generator: Adobe Illustrator 26.0.0, SVG Export Plug-In . SVG Version: 6.00 Build 0)  -->
<svg version="1.1" id="图层_1" xmlns="http://www.w3.org/2000/svg" xmlns:xlink="http://www.w3.org/1999/xlink" x="0px" y="0px"
	 viewBox="0 0 230 67" style="enable-background:new 0 0 230 67;" xml:space="preserve">
<style type="text/css">
	.st0{fill:#F1AE4B;}
	.st1{fill:#7124F0;}
	.st2{fill-rule:evenodd;clip-rule:evenodd;fill:#7124F0;}
	.st3{fill:#593B81;}
	.st4{fill:#63C3EF;}
	.st5{fill:#E74989;}
	.st6{fill:#4A4397;}
	.st7{fill:#F2CB3C;}
	.st8{fill:#6F4122;}
	.st9{fill:#0A0607;}
	.st10{fill:#090505;}
	.st11{fill:#070303;}
	.st12{fill:#080505;}
	.st13{fill:#070404;}
	.st14{fill:#CE9058;}
	.st15{fill:#F3D596;}
	.st16{fill:#713B1D;}
	.st17{fill:#713A1C;}
	.st18{fill:none;}
	.st19{fill:#222127;}
	.st20{fill:#F0B81D;}
	.st21{fill:#F2C106;}
	.st22{fill:#479BD5;}
	.st23{fill:#F4D546;}
	.st24{fill:#8B6CAE;}
	.st25{fill:#E74583;}
	.st26{fill:#FFFFFF;}
	.st27{fill:#20324F;}
	.st28{fill:#1D314F;}
	.st29{fill:#1C314F;}
	.st30{fill:#1E314F;}
	.st31{fill:#222D40;}
	.st32{fill:#F9FBFB;}
	.st33{fill:#F8FAFB;}
	.st34{fill:#CF2326;}
	.st35{fill:#95A5C2;}
	.st36{fill:#94A5C2;}
	.st37{fill:#92A3C1;}
	.st38{fill:#CB2428;}
	.st39{fill:#B52A32;}
	.st40{fill:#D72123;}
	.st41{fill:#2D3C55;}
	.st42{fill:#F1F5F7;}
	.st43{fill:#C3272C;}
	.st44{fill:#C8252A;}
	.st45{fill:#DDEAF3;}
	.st46{fill:#E9F0F7;}
	.st47{fill:#962D3B;}
	.st48{fill:#27374B;}
	.st49{fill:#2A3A53;}
	.st50{fill:#EED339;}
	.st51{fill:#4580DA;}
	.st52{fill:#05E9D0;}
	.st53{fill:#04E9D0;}
	.st54{fill:#555656;}
	.st55{fill:#1B314F;}
	.st56{fill:url(#路径_405_00000082330055582649499510000002843781577358364301_);}
	.st57{fill:url(#路径_407_00000068672539790241137450000012291057596565325956_);}
	.st58{fill:url(#路径_409_00000075845219618237514020000003943736675622179499_);}
	.st59{fill:url(#路径_415_00000092450545706526232190000007029744613777245064_);}
	.st60{fill:url(#路径_416_00000005964751140756899820000001582488044886936731_);}
	.st61{fill:url(#路径_417_00000098909186853613073980000013911076953885968798_);}
	.st62{fill:#DD471D;}
	.st63{fill:#16191C;}
	.st64{fill:#F4C034;}
	.st65{fill:#060001;}
	.st66{fill:#F8E19A;}
	.st67{fill:#1C1C1C;}
	.st68{fill:#181818;}
	.st69{fill:#498EB7;}
	.st70{fill:#4A8EB6;}
	.st71{fill:url(#SVGID_1_);}
	.st72{fill:#FDD333;}
	.st73{fill:url(#SVGID_00000181791662763645281000000000969320471016113826_);}
	.st74{fill:url(#SVGID_00000073713113894942345310000007701106674504017290_);}
	.st75{fill:url(#SVGID_00000183225954070034823970000011132225621623750808_);}
	.st76{fill:url(#SVGID_00000115484099530838903080000018032657652187642757_);}
	.st77{fill:url(#SVGID_00000178898913835186914160000011686239299578696847_);}
	.st78{fill:url(#SVGID_00000053517104900867434910000005065904444473351098_);}
	.st79{fill:url(#SVGID_00000034801263459871263540000013198919396380062899_);}
	.st80{fill:url(#SVGID_00000135666909583999746930000014043866030907008447_);}
	.st81{fill:url(#SVGID_00000039116443842228146130000015798075673714098561_);}
	.st82{fill:url(#SVGID_00000101067627653544366900000000996975310274139326_);}
	.st83{fill:url(#SVGID_00000053528486958859804750000004526280249877036704_);}
	.st84{fill:url(#SVGID_00000117659282986960601540000003734254155269944966_);}
	.st85{fill:url(#SVGID_00000129166259169369271990000017183968574276180103_);}
	.st86{fill:url(#SVGID_00000130610152623327194260000015120814257628480442_);}
	.st87{fill:url(#SVGID_00000155115153988144311340000014194303906006604219_);}
	.st88{fill:#3E81C3;}
	.st89{fill:#3E82C3;}
	.st90{fill:#3F82C3;}
	.st91{fill:#3D81C3;}
	.st92{fill:#3F82C4;}
	.st93{fill:#3B80C3;}
	.st94{fill:url(#SVGID_00000093164178749036691700000002480817958259190455_);}
	.st95{fill:#2980FE;}
	.st96{fill:#222323;}
	.st97{fill:#F2E591;}
	.st98{fill:#91C34B;}
	.st99{fill:#15954C;}
	.st100{fill:#626466;}
	.st101{fill:#010101;}
	.st102{fill:#020202;}
	.st103{fill:url(#SVGID_00000001621980134808052600000003805467007435723139_);}
	.st104{fill:url(#SVGID_00000070815918938497818810000006363167981167261623_);}
	.st105{fill:url(#SVGID_00000162335103013444297910000000211123293885510540_);}
	.st106{fill:url(#SVGID_00000145746097691236572000000005459165131024449937_);}
	.st107{fill:url(#SVGID_00000047768837448414289290000013729065827599878555_);}
	.st108{fill:url(#SVGID_00000079488332933430039090000017339443439826313606_);}
	.st109{fill:url(#SVGID_00000075857059568217691930000004395831942717705367_);}
	.st110{fill:url(#SVGID_00000127752160960987218010000005810000014710130608_);}
	.st111{fill:url(#SVGID_00000115486125772993828700000003421776899594615461_);}
	.st112{fill:url(#SVGID_00000119820497547890759490000010690548311683248274_);}
	.st113{fill:url(#SVGID_00000035523295322928674310000011389906745612847247_);}
	.st114{fill:#163060;}
	.st115{fill-rule:evenodd;clip-rule:evenodd;fill:#FFFFFF;}
	.st116{fill-rule:evenodd;clip-rule:evenodd;fill:#16305E;}
	.st117{fill-rule:evenodd;clip-rule:evenodd;fill:url(#SVGID_00000059309186979319272750000016995372421013305017_);}
	.st118{fill-rule:evenodd;clip-rule:evenodd;fill:url(#SVGID_00000151522979156496933740000001111275639355576960_);}
	.st119{fill:url(#SVGID_00000111891062842745178020000014585345932426373508_);}
	.st120{fill:url(#SVGID_00000009556057544536602770000016525173429501022349_);}
	.st121{fill:url(#SVGID_00000116941021564658456220000009840302425474283697_);}
	.st122{fill:url(#SVGID_00000035504411645529793810000004305822256534745020_);}
	.st123{fill:url(#SVGID_00000104699810597787067580000007939314733338030491_);}
	.st124{fill:url(#SVGID_00000120540703578962653910000010977016055815159994_);}
	.st125{fill:url(#SVGID_00000142177348194499449640000004237497793758669744_);}
	.st126{fill:url(#SVGID_00000034051893136703939030000017526440864754867879_);}
	.st127{fill:url(#SVGID_00000093137600472796339630000013259605658720433040_);}
	.st128{fill:#191F4D;}
	.st129{fill:#4382FF;}
	.st130{fill:#3772FF;}
</style>
<g>
	<g>
		<g>
			<path class="st129" d="M100.3,40.4h-2.4l4.2-10.6h-3.3l0.8-1.9h9.1l-0.8,1.9h-3.3L100.3,40.4z"/>
			<path class="st129" d="M110.9,37.4l1.8,0.3c-0.6,0.8-1.3,1.5-2.3,2.1c-0.9,0.5-1.9,0.8-3,0.8c-1.3,0-2.2-0.4-2.6-1.3
				c-0.4-0.9-0.4-2,0.2-3.5c0.6-1.4,1.4-2.6,2.6-3.5c1.2-0.9,2.4-1.4,3.8-1.4c1.3,0,2.2,0.5,2.5,1.4c0.4,0.9,0.3,2.1-0.3,3.5
				l-0.1,0.2h-6.4c-0.3,0.6-0.4,1.1-0.4,1.5c0,0.4,0.1,0.7,0.3,1c0.2,0.3,0.6,0.4,1.2,0.4C109.3,38.9,110.2,38.4,110.9,37.4z
				 M111.9,34.6c0.3-0.7,0.3-1.2,0.1-1.6c-0.2-0.4-0.6-0.6-1.2-0.6c-0.6,0-1.1,0.2-1.7,0.6c-0.5,0.4-1,1-1.4,1.7H111.9z"/>
			<path class="st129" d="M115.8,40.4h-2.1l5-12.6h2.1L115.8,40.4z"/>
			<path class="st129" d="M125.4,37.4l1.8,0.3c-0.6,0.8-1.3,1.5-2.3,2.1c-0.9,0.5-1.9,0.8-3,0.8c-1.3,0-2.2-0.4-2.6-1.3
				c-0.4-0.9-0.4-2,0.2-3.5c0.6-1.4,1.4-2.6,2.6-3.5c1.2-0.9,2.4-1.4,3.8-1.4c1.3,0,2.2,0.5,2.5,1.4c0.4,0.9,0.3,2.1-0.3,3.5L128,36
				h-6.4c-0.3,0.6-0.4,1.1-0.4,1.5c0,0.4,0.1,0.7,0.3,1c0.2,0.3,0.6,0.4,1.2,0.4C123.8,38.9,124.7,38.4,125.4,37.4z M126.4,34.6
				c0.3-0.7,0.3-1.2,0.1-1.6c-0.2-0.4-0.6-0.6-1.2-0.6c-0.6,0-1.1,0.2-1.7,0.6c-0.5,0.4-1,1-1.4,1.7H126.4z"/>
			<path class="st129" d="M141.1,29.3l-0.6,1.6h-0.6c-0.3,0-0.5,0-0.8,0.1c-0.2,0.1-0.5,0.3-0.9,0.7c0.5,0.6,0.6,1.3,0.3,2
				c-0.3,0.8-0.9,1.5-1.9,2c-0.9,0.5-1.9,0.8-3.1,0.8c-0.5,0-1-0.1-1.6-0.2c-0.5,0.2-0.8,0.5-1,0.9c-0.1,0.2-0.1,0.4,0.1,0.6
				c0.1,0.2,0.4,0.3,0.8,0.3h2.8c0.9,0,1.6,0.2,1.9,0.7c0.3,0.5,0.4,1.1,0.1,1.8c-0.4,0.9-1,1.6-2.1,2.2c-1,0.6-2.4,0.9-4,0.9
				c-3,0-4.2-0.8-3.5-2.5c0.3-0.8,1-1.5,2.1-1.9c-0.4-0.5-0.5-1-0.3-1.5c0.3-0.8,1.1-1.5,2.3-1.9c-0.7-0.5-0.8-1.2-0.4-2.2
				c0.3-0.8,0.9-1.4,1.7-2c0.8-0.5,1.9-0.8,3.2-0.8c0.6,0,1.2,0.1,1.7,0.2c0.8-1.2,1.7-1.8,2.9-1.8H141.1z M129.8,39.9
				c-0.4,0.3-0.7,0.5-0.8,0.8c-0.2,0.4-0.1,0.8,0.3,1.1c0.4,0.3,1.1,0.5,2.2,0.5c1.6,0,2.6-0.4,2.9-1.2c0.1-0.3,0.1-0.5-0.1-0.7
				c-0.2-0.2-0.5-0.2-0.9-0.2h-2.2C130.8,40.1,130.3,40,129.8,39.9z M134,35.3c1.1,0,1.9-0.5,2.4-1.6c0.2-0.4,0.2-0.8,0-1
				c-0.2-0.3-0.5-0.4-1.1-0.4c-0.6,0-1,0.1-1.5,0.4c-0.4,0.3-0.7,0.7-0.9,1.1c-0.2,0.5-0.2,0.8,0,1.1
				C133.1,35.1,133.4,35.3,134,35.3z"/>
			<path class="st129" d="M145.1,37.4l1.8,0.3c-0.6,0.8-1.3,1.5-2.3,2.1s-1.9,0.8-3,0.8c-1.3,0-2.2-0.4-2.6-1.3
				c-0.4-0.9-0.4-2,0.2-3.5c0.6-1.4,1.4-2.6,2.6-3.5c1.2-0.9,2.4-1.4,3.8-1.4c1.3,0,2.2,0.5,2.5,1.4c0.4,0.9,0.3,2.1-0.3,3.5
				l-0.1,0.2h-6.4c-0.3,0.6-0.4,1.1-0.4,1.5c0,0.4,0.1,0.7,0.3,1c0.2,0.3,0.6,0.4,1.2,0.4C143.4,38.9,144.3,38.4,145.1,37.4z
				 M146,34.6c0.3-0.7,0.3-1.2,0.1-1.6c-0.2-0.4-0.6-0.6-1.2-0.6c-0.6,0-1.1,0.2-1.7,0.6c-0.5,0.4-1,1-1.4,1.7H146z"/>
			<path class="st129" d="M155.8,40.4h-2c0-0.6,0.2-1.2,0.4-1.9c-1.1,1.4-2.4,2.1-4,2.1c-0.9,0-1.6-0.3-1.9-0.8
				c-0.3-0.5-0.4-1.2,0-2c0.9-2.1,3.2-3.2,6.9-3.2c0.1,0,0.3,0,0.6,0l0.3-0.7c0.4-1-0.1-1.4-1.4-1.4c-1.3,0-2.2,0.5-2.7,1.4
				l-1.7-0.3c0.4-0.8,1.1-1.4,2-1.9c0.9-0.5,2-0.8,3.3-0.8c0.7,0,1.3,0.1,1.7,0.2c0.4,0.1,0.7,0.3,0.9,0.6c0.2,0.3,0.3,0.6,0.3,0.9
				c0,0.3-0.2,0.9-0.5,1.7l-1.7,4.2C156,39.1,155.9,39.7,155.8,40.4z M155.4,35.6c-2.7,0-4.3,0.6-4.8,1.9c-0.2,0.4-0.1,0.7,0,1
				c0.2,0.3,0.5,0.4,1.1,0.4c0.8,0,1.5-0.3,2.1-0.8c0.6-0.5,1-1.1,1.3-1.7L155.4,35.6z"/>
			<path class="st129" d="M171.9,40.4h-2.2l2.3-5.8c0.5-1.2,0.2-1.8-0.9-1.8c-0.6,0-1.2,0.2-1.8,0.7c-0.6,0.5-1,1.1-1.4,2l-1.9,4.9
				h-2.2l2.3-5.8c0.5-1.2,0.2-1.8-0.8-1.8c-0.6,0-1.2,0.2-1.8,0.7c-0.6,0.5-1.1,1.2-1.4,2l-1.9,4.9H158l3.7-9.3h2l-0.8,2
				c1.2-1.4,2.6-2.2,4-2.2c1.4,0,2,0.7,1.8,2.2c1.3-1.4,2.7-2.2,4-2.2c0.9,0,1.5,0.3,1.8,0.8c0.3,0.6,0.3,1.3,0,2.1L171.9,40.4z"/>
		</g>
	</g>
	<g>
		<circle class="st130" cx="72.7" cy="33.5" r="17.5"/>
		<path class="st26" d="M75.8,25.7L75.8,25.7c-1.4,0-2.7,1-3.1,2.3v0h2.4L75.8,25.7z"/>
		<path class="st26" d="M71.9,23.1L71.9,23.1c-1.4,0-2.7,0.9-3.2,2.3L68,28h2.4L71.9,23.1z"/>
		<path class="st72" d="M83.5,32.3c0.3-1.8-0.7-3.2-2.5-3.5c-0.1,0-0.2,0-0.3,0h-3.4v2.4l2.4,0c0.3,0,0.7,0.1,0.9,0.3
			c0.5,0.4,0.5,1,0,1.6c-0.4,0.5-0.9,0.9-1.6,0.9c-0.7,0-1.6,0-2.5,0c-1.5,0-2.8,1-3.2,2.4c0,0,0,0,0,0.1c0.6,0,1,0,1.5,0
			c1.2,0,2.4,0,3.7,0c0.7,0,1.1,0.5,1,1.3c-0.2,0.8-1,1.5-1.8,1.5c-0.7,0-1.6,0-2.5,0c-1.5,0-2.8,0.9-3.2,2.3c0,0,0,0.1,0,0.1
			c0.2,0,0.3,0,0.4,0c1.4,0,2.9,0,4.3,0c2.1,0,3.6-0.9,4.7-2.7c0.6-1,0.9-2.2,0.4-3.4c-0.1-0.1-0.1-0.3-0.2-0.4
			C82.6,34.4,83.2,33.5,83.5,32.3z"/>
		<path class="st26" d="M74.6,31.2c0,0-0.1,0-0.1,0C74.5,31.2,74.6,31.2,74.6,31.2z"/>
		<path class="st26" d="M71.3,28.8c-2.1,0-4.1,0-6.2,0c-1.5,0-2.8,1-3.2,2.4c0,0,0,0,0,0h1.8h3.5c-0.9,3.5-2.8,10.4-2.8,10.4
			c1.4,0.1,2.7-0.9,3-2.2c0.4-1.5,0.9-3.4,1.3-4.6c0.3-1.1,0.6-2.2,0.8-3.2c0.1-0.2,0.1-0.3,0.3-0.4h2c-0.5,2-1.1,4-1.6,6h0
			c-0.4,1.5-1.8,6.7-1.8,6.7h0c1.3,0.2,2.6-0.7,3-2c0.5-1.7,1.1-3.9,1.3-4.7l0,0c0.2-0.8,0.4-1.6,0.6-2.4c0.3-1.1,0.6-2.2,0.8-3.2
			c0.1-0.2,0.1-0.3,0.3-0.4c0,0,0.1,0,0.1,0c0,0,0,0,0,0c0.6,0,1.6,0,2.6,0c1.3,0,2.4-0.9,2.7-2.1c0,0,0,0,0,0
			c0-0.1,0.1-0.3,0.1-0.3S75.7,28.8,71.3,28.8z"/>
	</g>
</g>
</svg>
