<?xml version="1.0" encoding="utf-8"?>
<!-- Generator: Adobe Illustrator 26.0.0, SVG Export Plug-In . SVG Version: 6.00 Build 0)  -->
<svg version="1.1" id="图层_1" xmlns="http://www.w3.org/2000/svg" xmlns:xlink="http://www.w3.org/1999/xlink" x="0px" y="0px"
	 viewBox="0 0 230 67" style="enable-background:new 0 0 230 67;" xml:space="preserve">
<style type="text/css">
	.st0{fill:#F1AE4B;}
	.st1{fill:#7124F0;}
	.st2{fill-rule:evenodd;clip-rule:evenodd;fill:#7124F0;}
	.st3{fill:#593B81;}
	.st4{fill:#63C3EF;}
	.st5{fill:#E74989;}
	.st6{fill:#4A4397;}
	.st7{fill:#F2CB3C;}
	.st8{fill:#6F4122;}
	.st9{fill:#0A0607;}
	.st10{fill:#090505;}
	.st11{fill:#070303;}
	.st12{fill:#080505;}
	.st13{fill:#070404;}
	.st14{fill:#CE9058;}
	.st15{fill:#F3D596;}
	.st16{fill:#713B1D;}
	.st17{fill:#713A1C;}
	.st18{fill:none;}
	.st19{fill:#222127;}
	.st20{fill:#F0B81D;}
	.st21{fill:#F2C106;}
	.st22{fill:#479BD5;}
	.st23{fill:#F4D546;}
	.st24{fill:#8B6CAE;}
	.st25{fill:#E74583;}
	.st26{fill:#FFFFFF;}
	.st27{fill:#20324F;}
	.st28{fill:#1D314F;}
	.st29{fill:#1C314F;}
	.st30{fill:#1E314F;}
	.st31{fill:#222D40;}
	.st32{fill:#F9FBFB;}
	.st33{fill:#F8FAFB;}
	.st34{fill:#CF2326;}
	.st35{fill:#95A5C2;}
	.st36{fill:#94A5C2;}
	.st37{fill:#92A3C1;}
	.st38{fill:#CB2428;}
	.st39{fill:#B52A32;}
	.st40{fill:#D72123;}
	.st41{fill:#2D3C55;}
	.st42{fill:#F1F5F7;}
	.st43{fill:#C3272C;}
	.st44{fill:#C8252A;}
	.st45{fill:#DDEAF3;}
	.st46{fill:#E9F0F7;}
	.st47{fill:#962D3B;}
	.st48{fill:#27374B;}
	.st49{fill:#2A3A53;}
	.st50{fill:#EED339;}
	.st51{fill:#4580DA;}
	.st52{fill:#05E9D0;}
	.st53{fill:#04E9D0;}
	.st54{fill:#555656;}
	.st55{fill:#1B314F;}
	.st56{fill:url(#路径_405_00000159430173037353428930000005733634662737841847_);}
	.st57{fill:url(#路径_407_00000008112817564459109420000004133475608928339126_);}
	.st58{fill:url(#路径_409_00000114070839761955977180000005539561809302074503_);}
	.st59{fill:url(#路径_415_00000116235147273177120470000000931203972395824008_);}
	.st60{fill:url(#路径_416_00000173883540064260269090000001793864956745930410_);}
	.st61{fill:url(#路径_417_00000170962303414325292810000006994848829402375339_);}
	.st62{fill:#DD471D;}
	.st63{fill:#16191C;}
	.st64{fill:#F4C034;}
	.st65{fill:#060001;}
	.st66{fill:#F8E19A;}
	.st67{fill:#1C1C1C;}
	.st68{fill:#181818;}
	.st69{fill:#498EB7;}
	.st70{fill:#4A8EB6;}
	.st71{fill:url(#SVGID_1_);}
	.st72{fill:#FDD333;}
	.st73{fill:url(#SVGID_00000012474751448868631020000011804851195497315506_);}
	.st74{fill:url(#SVGID_00000000190179640756906020000017033512956388430480_);}
	.st75{fill:url(#SVGID_00000111163806504297085570000014211702173295754686_);}
	.st76{fill:url(#SVGID_00000122721639436363854480000010735336173466885269_);}
	.st77{fill:url(#SVGID_00000099639353933772543340000011410189776235363977_);}
	.st78{fill:url(#SVGID_00000134247818858966752880000012090854536067309480_);}
	.st79{fill:url(#SVGID_00000160178044946360410330000016811591809365707963_);}
	.st80{fill:url(#SVGID_00000036243621345595611350000017910388617514450854_);}
	.st81{fill:url(#SVGID_00000150795027400125993250000000911758522234313655_);}
	.st82{fill:url(#SVGID_00000170968340539853645230000002967346676523243183_);}
	.st83{fill:url(#SVGID_00000108306019532070227250000009215268781398961025_);}
	.st84{fill:url(#SVGID_00000054980403766017301320000017367635974068141458_);}
	.st85{fill:url(#SVGID_00000104668523484465631520000017828814588222038184_);}
	.st86{fill:url(#SVGID_00000018232656051219218290000000964949736366815121_);}
	.st87{fill:url(#SVGID_00000090266645105224806320000003099427028735525522_);}
	.st88{fill:url(#SVGID_00000105397119005896879040000012620929632912159406_);}
	.st89{fill:url(#SVGID_00000021801397019620554090000010337598632915337351_);}
	.st90{fill:url(#SVGID_00000176761906338278439940000002452166073653521579_);}
	.st91{fill:url(#SVGID_00000121259807644697058300000012608632634227449493_);}
	.st92{fill:url(#SVGID_00000181060975758817851870000011299963646657742993_);}
	.st93{fill:url(#SVGID_00000131343220565403818850000009301090248259442817_);}
	.st94{fill:url(#SVGID_00000113337457419050501020000000729106740789756822_);}
	.st95{fill:url(#SVGID_00000135660241510665653760000010759733044146914944_);}
	.st96{fill:url(#SVGID_00000173873657869709780340000006847915933427944576_);}
	.st97{fill:#4382FF;}
	.st98{fill:#3772FF;}
	.st99{fill:#FEFEFE;}
	.st100{fill:#3E81C3;}
	.st101{fill:#3E82C3;}
	.st102{fill:#3F82C3;}
	.st103{fill:#3D81C3;}
	.st104{fill:#3F82C4;}
	.st105{fill:#3B80C3;}
	.st106{fill:url(#SVGID_00000008108021369594714100000005001270957617938621_);}
	.st107{fill:#2980FE;}
	.st108{fill:#222323;}
	.st109{fill:#F2E591;}
	.st110{fill:#91C34B;}
	.st111{fill:#15954C;}
	.st112{fill:#626466;}
	.st113{fill:#010101;}
	.st114{fill:#020202;}
	.st115{fill:url(#SVGID_00000128462998919755803010000003530564146195067806_);}
	.st116{fill:url(#SVGID_00000132079568567535653940000006503801742443219877_);}
	.st117{fill:url(#SVGID_00000158016663474944043060000015150427244590576285_);}
	.st118{fill:url(#SVGID_00000016075521776063533020000013992711421240704143_);}
	.st119{fill:url(#SVGID_00000134219143919481866270000013679367954549930175_);}
	.st120{fill:url(#SVGID_00000086651227729035599120000018166069694241725868_);}
	.st121{fill:url(#SVGID_00000114765342780896436860000011845519182334188440_);}
	.st122{fill:url(#SVGID_00000096020279212679391850000018366751721809776771_);}
	.st123{fill:url(#SVGID_00000161590858993210219550000011673787776853278396_);}
	.st124{fill:url(#SVGID_00000146480230731206886800000013542770924821379471_);}
	.st125{fill:url(#SVGID_00000145777716645096916280000002508068467184113082_);}
	.st126{fill:#163060;}
	.st127{fill-rule:evenodd;clip-rule:evenodd;fill:#FFFFFF;}
	.st128{fill-rule:evenodd;clip-rule:evenodd;fill:#16305E;}
	.st129{fill-rule:evenodd;clip-rule:evenodd;fill:url(#SVGID_00000134966600909809540640000002644441401103905190_);}
	.st130{fill-rule:evenodd;clip-rule:evenodd;fill:url(#SVGID_00000073699791664550106540000015661028130278379147_);}
</style>
<g>
	<g>
		<radialGradient id="SVGID_1_" cx="77.2953" cy="33.5" r="18.096" gradientUnits="userSpaceOnUse">
			<stop  offset="0.3708" style="stop-color:#6E3A8C"/>
			<stop  offset="1" style="stop-color:#5E3E89"/>
		</radialGradient>
		<circle class="st71" cx="77.3" cy="33.5" r="18.1"/>
		<g>
			<g>
				<path id="路径_206_00000093878241226187476140000008593996451778333329_" class="st26" d="M87,21.1c-2.4-1.7-5.2-2.8-8.1-3
					c-2.9-0.3-5.8,0.3-8.4,1.5c-0.6,0.3-1.3,0.7-1.9,1.1C68.1,21,67.5,21.5,67,22c-0.5,0.5-1,1-1.5,1.5c-0.1,0.1-0.2,0.3-0.3,0.4
					c-0.1,0.1-0.2,0.3-0.3,0.4l-0.3,0.4l-0.3,0.5c-1.6,2.5-2.5,5.3-2.6,8.2c-0.1-1.5,0.1-2.9,0.5-4.4c0.1-0.4,0.2-0.7,0.3-1.1
					c0.1-0.3,0.2-0.7,0.4-1c0.3-0.7,0.6-1.3,1-2c0.8-1.3,1.7-2.4,2.8-3.4c0.6-0.5,1.1-1,1.8-1.4c0.6-0.4,1.3-0.8,1.9-1.1
					c1.3-0.7,2.8-1.1,4.2-1.4c0.4-0.1,0.7-0.1,1.1-0.1l0.6,0l0.3,0l0.3,0c0.7,0,1.5,0,2.2,0.1c1.5,0.2,2.9,0.6,4.3,1.1
					c0.7,0.3,1.3,0.6,2,1C85.9,20.2,86.5,20.6,87,21.1z"/>
				<path id="路径_207_00000074431173536124917410000009396420876605351861_" class="st26" d="M67.2,45.5c2.3,1.8,5.1,3,8.1,3.4
					C76,49,76.8,49,77.5,49c0.7,0,1.5-0.1,2.2-0.2c0.7-0.1,1.4-0.3,2.1-0.5c0.7-0.2,1.4-0.5,2-0.8c2.7-1.2,4.9-3.2,6.6-5.7
					c1.6-2.5,2.5-5.4,2.6-8.4c0,1.5-0.1,3-0.5,4.4c-0.2,0.7-0.4,1.4-0.7,2.1c-0.1,0.4-0.3,0.7-0.5,1c-0.2,0.3-0.4,0.7-0.6,1
					c-0.2,0.3-0.4,0.6-0.6,0.9c-0.2,0.3-0.5,0.6-0.7,0.9c-0.5,0.6-1,1.1-1.6,1.6c-0.6,0.5-1.2,1-1.8,1.4c-0.6,0.4-1.3,0.8-2,1.1
					c-0.7,0.3-1.4,0.6-2.1,0.8c-0.7,0.2-1.5,0.4-2.2,0.5c-1.5,0.2-3,0.2-4.5,0c-0.7-0.1-1.5-0.3-2.2-0.5c-0.7-0.2-1.4-0.5-2.1-0.8
					c-0.7-0.3-1.3-0.7-2-1.1C68.3,46.5,67.7,46,67.2,45.5z"/>
				<path id="路径_208_00000179619840882970801480000006666724335540189879_" class="st26" d="M83.8,23.3c-1.9-1.1-4-1.6-6.1-1.7
					h-0.4l-0.4,0c-0.3,0-0.5,0-0.8,0.1c-0.5,0.1-1,0.2-1.6,0.3c-1,0.2-2,0.6-2.9,1.1c-0.5,0.3-0.9,0.5-1.3,0.8
					c-0.4,0.3-0.8,0.6-1.2,1c-0.8,0.7-1.4,1.5-2,2.4c-1.1,1.8-1.8,3.9-1.9,6c-0.1-2.2,0.4-4.4,1.5-6.3c0.3-0.5,0.6-0.9,0.9-1.4
					c0.2-0.2,0.3-0.4,0.5-0.6c0.2-0.2,0.4-0.4,0.6-0.6c0.8-0.8,1.7-1.4,2.6-2c1-0.5,2-0.9,3.1-1.2c0.5-0.1,1.1-0.2,1.6-0.3
					c0.5,0,1.1-0.1,1.6,0C79.9,21.3,82.1,22.1,83.8,23.3z"/>
				<path id="路径_209_00000053536543814388286380000018018633161509126330_" class="st26" d="M70.6,43.4c1.7,1,3.6,1.6,5.6,1.8
					c0.5,0,1,0,1.5,0l0.7,0c0.2,0,0.5-0.1,0.7-0.1l0.4-0.1l0.4-0.1c0.2-0.1,0.5-0.1,0.7-0.2c0.5-0.1,0.9-0.3,1.4-0.5l0.3-0.1
					l0.2-0.1l0.2-0.1l0.6-0.3c0.2-0.1,0.4-0.3,0.6-0.4l0.3-0.2l0.3-0.2c0.8-0.6,1.5-1.2,2.1-2l0.5-0.6l0.4-0.6
					c0.1-0.2,0.3-0.4,0.4-0.6l0.2-0.3c0.1-0.1,0.1-0.2,0.2-0.3l0.3-0.7c0.1-0.2,0.2-0.5,0.3-0.7l0.1-0.3c0-0.1,0.1-0.2,0.1-0.4
					l0.2-0.7c-0.1,0.5-0.2,1-0.3,1.5c-0.1,0.2-0.1,0.5-0.2,0.7l-0.3,0.7c0,0.1-0.1,0.2-0.2,0.3l-0.2,0.3c-0.1,0.2-0.2,0.5-0.4,0.7
					l-0.4,0.6l-0.5,0.6c-0.6,0.8-1.3,1.5-2.2,2.1l-0.3,0.2l-0.3,0.2c-0.2,0.1-0.4,0.3-0.6,0.4l-0.7,0.4l-0.2,0.1l-0.2,0.1l-0.4,0.1
					c-0.5,0.2-1,0.4-1.4,0.5c-0.2,0.1-0.5,0.1-0.7,0.2l-0.4,0.1l-0.4,0c-0.3,0-0.5,0.1-0.8,0.1l-0.8,0c-0.5,0-1,0-1.5-0.1
					C74.1,45.4,72.2,44.7,70.6,43.4z"/>
				<path id="路径_214_00000005949975158311412970000016203181519075009461_" class="st72" d="M74.6,22.9c0.1,0.2,0.8,1,1,1.3
					c0.3,0.4,0.5,0.8,0.4,1.3c0,0.9,0,1.6,0,2.4v0.2c-0.3,0-1.1,0-1.4,0V28C74.6,26.3,74.6,24.7,74.6,22.9
					C74.6,23,74.6,23,74.6,22.9z"/>
				<path id="路径_215_00000039828398315537980860000003854024440572290704_" class="st72" d="M80.1,28.1c-0.5,0-1,0-1.4,0l0-0.2
					c0-0.4,0-0.9,0-1.4L80.1,28.1z"/>
				<path id="路径_216_00000117658850144496891410000003596194613810132100_" class="st72" d="M76.1,35.8c0,0,0-0.9,0-1
					c0-1.2,0-2.4,0-3.6c0-0.3,0-0.3-0.3-0.3c-0.4,0-0.7,0-1.1,0c-0.2,0-0.3,0.1-0.3,0.3c0,0.8,0,1.5,0,2.3l0,0v0.3
					c0,0.1,0,0.1,0,0.2c0,0,0,0,0,0s0.1,5.7,0.1,6.9c0-0.2,0-0.3,0-0.4c0.1-0.8,0.1-1.5,0.2-2.3c0,0,0,0,0,0c0-0.1,0.1-0.1,0.2,0
					c0,0,0,0,0.1,0.1c0,0,0,0,0,0c0,0.9,0.1,1.7,0.1,2.6c0,0.4,0,0.7,0,1.1h0.1c0.1-0.9,0.2-1.9,0.2-2.8l0,0c0-0.1,0.1-0.1,0.1-0.1
					c0.1,0,0.1,0.1,0.1,0.1v0c0,1.1,0.1,2.2,0.1,3.3c0-0.8,0.1-1.7,0.1-2.5C76.1,39.1,76.1,35.9,76.1,35.8z"/>
				<path id="路径_217_00000181082947557522382300000012194682929668387756_" class="st72" d="M80.7,28.7
					c-0.4,0.1-0.8,0.1-1.2,0.1c-1.4,0-2.8,0-4.1,0c-0.6,0-1.2,0-1.8,0.1c-0.9,0.1-1.6,0.6-2,1.5c-0.2,0.4-0.2,0.9-0.2,1.4
					c0,0.4,0.1,0.8,0.2,1.2c0-0.1,0.1-0.3,0.1-0.5c0.1-0.8,0.7-1.5,1.5-1.8c0.7-0.3,1.5-0.4,2.3-0.4c0.9,0,1.9,0,2.8,0
					c0.3,0,0.3,0,0.3,0.3c0,1.7,0.1,9.6,0.1,11c0,0.1,0,0.1,0,0.2c0-0.1,0-0.1,0-0.2c0-0.5,0.1-1.1,0.1-1.6c0-0.2,0-0.3,0.2-0.3
					c0.2,0,0.2,0.2,0.2,0.4c0.1,1.2,0.1,2.4,0.2,3.7h0.1c0-0.6,0-1.2,0-1.7c0-0.5,0-1,0.1-1.4c0-0.1,0-0.4,0.2-0.4
					c0.2,0,0.2,0.2,0.2,0.4c0,0.3,0,0.7,0,1c0,1.1,0,2.2,0.1,3.3c0-1,0.2-10.2,0.2-10.2c0,0,0,0,0-0.1c0,0,0,0,0,0V34
					c0,0,0-0.1,0-0.1c0-1.1,0-2.2,0-3.3c0-0.5,0-0.4,0.4-0.5c1.5-0.2,2.7-1.5,2.7-3.1C82.8,28.1,81.8,28.5,80.7,28.7z"/>
				<path id="路径_218_00000168117397626274024730000011866380630640877194_" class="st72" d="M78.7,33.9v0.3
					c2.7,0.1,4.6,0.5,4.6,1c0,0.6-2.7,1.1-5.9,1.1c-3.3,0-5.9-0.5-5.9-1.1c0-0.5,2-0.9,4.7-1v-0.3c-3.5,0.1-6.2,0.8-6.2,1.6
					c0,0.9,3.3,1.6,7.4,1.6c4.1,0,7.4-0.7,7.4-1.6C84.8,34.7,82.1,34.1,78.7,33.9z"/>
				<path id="路径_220_00000104690087513472473760000013946414225683371154_" class="st26" d="M63.1,29.1l0.2-0.6
					c0.2-0.4,0.4-0.7,0.9-0.5c0.4,0.2,0.5,0.5,0.4,1l-0.1,0.3l0.7,0.3l-0.1,0.3L63.1,29.1z M64.3,28.9c0.1-0.3,0-0.5-0.2-0.6
					c-0.3-0.1-0.4,0-0.5,0.4l-0.1,0.3l0.7,0.3L64.3,28.9z"/>
				<path id="路径_221_00000040569953521064544770000000827148863715035552_" class="st26" d="M64.1,26.6l0.2-0.3l1.8,1L66,27.6
					L64.1,26.6z"/>
				<path id="路径_222_00000018220386061357073870000002013712101670685099_" class="st26" d="M65.1,25l0.2-0.3l1.4,0.2l0.5,0.1
					l0,0c-0.2-0.1-0.4-0.3-0.6-0.4L65.8,24l0.2-0.2l1.7,1.3l-0.2,0.3l-1.4-0.2L65.6,25l0,0c0.2,0.1,0.4,0.2,0.6,0.4l0.8,0.6
					l-0.2,0.2L65.1,25z"/>
				<path id="路径_223_00000044869006360455078130000006501650524518171313_" class="st26" d="M67.1,22.7l0.9-0.8l0.2,0.2
					l-0.7,0.6l0.4,0.4l0.6-0.5l0.2,0.2l-0.6,0.5l0.4,0.5l0.7-0.6l0.2,0.2l-1,0.8L67.1,22.7z"/>
				<path id="路径_224_00000132046301616183321800000013242736286417894016_" class="st26" d="M69.7,21l-0.5,0.3L69,21.1l1.3-0.8
					l0.1,0.2L70,20.9l0.9,1.6l-0.3,0.2L69.7,21z"/>
				<path id="路径_225_00000099633024125921951150000017281438449314768530_" class="st26" d="M71.4,19.8l0.3-0.1l0.5,1l0.3,0.6
					l0,0c0-0.2-0.1-0.5-0.1-0.7l-0.1-1.1l0.3-0.1l0.6,0.9c0.1,0.2,0.2,0.4,0.3,0.6l0,0c0-0.2-0.1-0.5-0.1-0.7l-0.2-1.1l0.3-0.1
					l0.3,2.1l-0.4,0.1l-0.6-1c-0.1-0.1-0.2-0.3-0.2-0.4l0,0c0,0.2,0,0.3,0.1,0.5l0.1,1.2l-0.4,0.1L71.4,19.8z"/>
				<path id="路径_226_00000147918687859326058390000003547385048211173810_" class="st26" d="M75.1,19.8
					c-0.1-0.7,0.3-1.1,0.8-1.2c0.5,0,0.9,0.3,1,1c0.1,0.7-0.3,1.1-0.8,1.2C75.5,20.9,75.1,20.5,75.1,19.8z M76.6,19.7
					c0-0.5-0.3-0.8-0.6-0.7s-0.5,0.4-0.5,0.8c0,0.5,0.3,0.8,0.6,0.7C76.4,20.5,76.6,20.2,76.6,19.7L76.6,19.7z"/>
				<path id="路径_227_00000121960080746628429490000005220578980285319098_" class="st26" d="M79.1,20.9L78.8,20l-0.3,0l-0.1,0.8
					l-0.3,0l0.2-2.1l0.7,0.1c0.4,0,0.7,0.2,0.7,0.7c0,0.3-0.2,0.5-0.5,0.5l0.4,0.9L79.1,20.9z M78.5,19.7l0.3,0
					c0.3,0,0.5-0.1,0.5-0.3c0-0.3-0.1-0.4-0.4-0.4l-0.3,0L78.5,19.7z"/>
				<path id="路径_228_00000134248829249739538980000012605432313762786999_" class="st26" d="M81.1,19.1l0.3,0.1l-0.3,0.9h0
					l1.1-0.7l0.4,0.1l-0.9,0.6l0.3,1.5l-0.4-0.1l-0.3-1.2l-0.4,0.3l-0.2,0.6l-0.3-0.1L81.1,19.1z"/>
				<path id="路径_229_00000097467668647521379460000007371276996479728049_" class="st26" d="M87.5,41.8l0,0.3
					c-0.2,0-0.4,0.1-0.6,0.3c-0.2,0.2-0.2,0.4,0,0.5c0.1,0.1,0.3,0.1,0.5,0l0.3-0.1c0.2-0.1,0.5-0.1,0.7,0c0.2,0.2,0.2,0.6,0,0.9
					c0,0,0,0,0,0c-0.2,0.2-0.4,0.3-0.6,0.3l0-0.3c0.2,0,0.3-0.1,0.4-0.2c0.1-0.2,0.2-0.3,0-0.4c-0.1-0.1-0.3,0-0.5,0l-0.3,0.1
					c-0.2,0.1-0.5,0.1-0.7-0.1c-0.3-0.3-0.3-0.7,0-0.9c0,0,0,0,0,0C87,41.9,87.3,41.8,87.5,41.8z"/>
				<path id="路径_230_00000171699910847230473800000007677377250860128928_" class="st26" d="M86.9,45l-0.5,0.4
					c-0.4,0.3-0.7,0.4-1,0c-0.2-0.3-0.2-0.7,0.1-0.9c0,0,0.1,0,0.1-0.1l0.2-0.2l-0.5-0.6l0.3-0.2L86.9,45z M85.8,44.6
					c-0.3,0.2-0.3,0.4-0.1,0.6c0.2,0.2,0.4,0.2,0.6,0l0.2-0.2L86,44.4L85.8,44.6z"/>
				<path id="路径_231_00000119809142512465425670000005063128197206408867_" class="st26" d="M83.2,45.7l0.6-0.3l-0.1-0.6
					l0.3-0.2l0.4,2.2L84,46.9l-1.6-1.5l0.3-0.2L83.2,45.7z M83.4,45.9l0.2,0.2c0.2,0.2,0.3,0.3,0.5,0.5l0,0
					c-0.1-0.2-0.1-0.5-0.2-0.7l-0.1-0.3L83.4,45.9z"/>
				<path id="路径_232_00000067926882807297691410000017850872028299752102_" class="st26" d="M82.1,46.7c0.2,0.5,0,1.1-0.5,1.3
					c0,0-0.1,0-0.1,0c-0.2,0.1-0.5,0-0.6-0.1l0.1-0.3c0.1,0.1,0.3,0.1,0.4,0.1c0.3-0.1,0.5-0.5,0.4-0.9c-0.1-0.5-0.5-0.7-0.8-0.6
					c-0.2,0.1-0.3,0.2-0.4,0.3l-0.2-0.1c0.1-0.2,0.3-0.4,0.5-0.5c0.5-0.1,1,0.1,1.2,0.6C82.1,46.6,82.1,46.6,82.1,46.7z"/>
				<path id="路径_233_00000142858297496810420020000017772876531203457720_" class="st26" d="M79.5,48.4l-1.2,0.1l0-0.3l0.9-0.1
					l-0.1-0.6l-0.8,0.1l0-0.3l0.8-0.1L79,46.6l-0.9,0.1l0-0.3l1.3-0.1L79.5,48.4z"/>
				<path id="路径_234_00000151519249228875885800000006777337606968285332_" class="st26" d="M76.9,48.6l-0.6,0
					c-0.5,0-0.8-0.2-0.8-0.7c0-0.5,0.4-0.6,0.8-0.6l0.3,0l0.1-0.8l0.3,0L76.9,48.6z M76.3,47.5c-0.3,0-0.5,0.1-0.5,0.4
					s0.1,0.4,0.5,0.4l0.3,0l0.1-0.8L76.3,47.5z"/>
			</g>
			<g>
				<polygon class="st26" points="73.9,48.3 73.7,48.2 74.2,46.1 74.4,46.1 				"/>
			</g>
		</g>
	</g>
	<g>
		
			<radialGradient id="SVGID_00000181075015820574504860000010947737880040678844_" cx="108.0877" cy="34.0519" r="6.4338" gradientUnits="userSpaceOnUse">
			<stop  offset="0.3708" style="stop-color:#6E3A8C"/>
			<stop  offset="1" style="stop-color:#5E3E89"/>
		</radialGradient>
		<path style="fill:url(#SVGID_00000181075015820574504860000010947737880040678844_);" d="M106.7,29.7h-4.8v-2.3h12.4v2.3h-4.8
			v11.1h-2.8V29.7z"/>
		
			<radialGradient id="SVGID_00000126295896694095262590000003530437888318734978_" cx="121.9919" cy="35.8702" r="6.6031" gradientUnits="userSpaceOnUse">
			<stop  offset="0.3708" style="stop-color:#6E3A8C"/>
			<stop  offset="1" style="stop-color:#5E3E89"/>
		</radialGradient>
		<path style="fill:url(#SVGID_00000126295896694095262590000003530437888318734978_);" d="M116.8,31c1.4,5.1,1.7,6.5,1.9,7.5h0
			c0.3-1.1,0.6-2.4,2.2-7.5h2.5c1.6,5.2,1.9,6.6,2.1,7.5h0c0.2-1,0.6-2.8,1.9-7.5h2.6l-3.1,9.7H124c-1-3.4-1.7-5.5-2-6.7h0
			c-0.3,1-1,3.6-2.1,6.7H117l-3-9.7H116.8z"/>
		
			<radialGradient id="SVGID_00000070806445113728369540000011724854540637967286_" cx="132.9888" cy="33.6692" r="5.0651" gradientUnits="userSpaceOnUse">
			<stop  offset="0.3708" style="stop-color:#6E3A8C"/>
			<stop  offset="1" style="stop-color:#5E3E89"/>
		</radialGradient>
		<path style="fill:url(#SVGID_00000070806445113728369540000011724854540637967286_);" d="M131.7,26.6h2.7V29h-2.7V26.6z M131.7,31
			h2.7v9.7h-2.7V31z"/>
		
			<radialGradient id="SVGID_00000181078520466815256530000004651594305349672095_" cx="139.6108" cy="34.4436" r="5.0905" gradientUnits="userSpaceOnUse">
			<stop  offset="0.3708" style="stop-color:#6E3A8C"/>
			<stop  offset="1" style="stop-color:#5E3E89"/>
		</radialGradient>
		<path style="fill:url(#SVGID_00000181078520466815256530000004651594305349672095_);" d="M136.2,31h1.8v-2.9h2.7V31h2.3v2h-2.3
			v4.5c0,0.9,0.2,1.3,1.2,1.3c0.3,0,0.6,0,0.9-0.1v1.9c-0.5,0.2-1.1,0.2-1.8,0.2c-2.3,0-2.9-1-2.9-2.9V33h-1.8V31z"/>
		
			<radialGradient id="SVGID_00000014595461308872065310000007685739064999238326_" cx="147.2607" cy="34.4436" r="5.0905" gradientUnits="userSpaceOnUse">
			<stop  offset="0.3708" style="stop-color:#6E3A8C"/>
			<stop  offset="1" style="stop-color:#5E3E89"/>
		</radialGradient>
		<path style="fill:url(#SVGID_00000014595461308872065310000007685739064999238326_);" d="M143.9,31h1.8v-2.9h2.7V31h2.3v2h-2.3
			v4.5c0,0.9,0.2,1.3,1.2,1.3c0.3,0,0.6,0,0.9-0.1v1.9c-0.5,0.2-1.1,0.2-1.8,0.2c-2.3,0-2.9-1-2.9-2.9V33h-1.8V31z"/>
		
			<radialGradient id="SVGID_00000072272281199184224020000013267720445080229295_" cx="157.0342" cy="35.8702" r="5.159" gradientUnits="userSpaceOnUse">
			<stop  offset="0.3708" style="stop-color:#6E3A8C"/>
			<stop  offset="1" style="stop-color:#5E3E89"/>
		</radialGradient>
		<path style="fill:url(#SVGID_00000072272281199184224020000013267720445080229295_);" d="M154.5,36.5c0.1,1.4,1.1,2.4,2.7,2.4
			c1.3,0,1.9-0.4,2.3-1.1h2.7c-0.6,1.6-2,3.2-5,3.2c-3.8,0-5.3-2.6-5.3-5.1c0-2.8,1.9-5.1,5.2-5.1c3.7,0,5.2,2.6,5.2,5.1
			c0,0.2,0,0.4,0,0.7H154.5z M159.5,34.8c-0.1-0.9-0.5-2.1-2.5-2.1c-1.7,0-2.4,1-2.5,2.1H159.5z"/>
		
			<radialGradient id="SVGID_00000108282654820658659460000004934279676034927037_" cx="167.5638" cy="35.7444" r="4.1897" gradientUnits="userSpaceOnUse">
			<stop  offset="0.3708" style="stop-color:#6E3A8C"/>
			<stop  offset="1" style="stop-color:#5E3E89"/>
		</radialGradient>
		<path style="fill:url(#SVGID_00000108282654820658659460000004934279676034927037_);" d="M164.3,33.7c0-0.9,0-1.8,0-2.6h2.6
			c0,0.3,0.1,1.4,0.1,2c0.6-1.3,1.8-2.3,3.8-2.3v2.5c-2.2,0-3.8,1-3.8,3.8v3.7h-2.7V33.7z"/>
	</g>
</g>
</svg>
