<?xml version="1.0" encoding="utf-8"?>
<!-- Generator: Adobe Illustrator 26.0.0, SVG Export Plug-In . SVG Version: 6.00 Build 0)  -->
<svg version="1.1" id="图层_1" xmlns="http://www.w3.org/2000/svg" xmlns:xlink="http://www.w3.org/1999/xlink" x="0px" y="0px"
	 viewBox="0 0 230 67" style="enable-background:new 0 0 230 67;" xml:space="preserve">
<style type="text/css">
	.st0{fill:#F1AE4B;}
	.st1{fill:#7124F0;}
	.st2{fill-rule:evenodd;clip-rule:evenodd;fill:#7124F0;}
	.st3{fill:#593B81;}
	.st4{fill:#63C3EF;}
	.st5{fill:#E74989;}
	.st6{fill:#4A4397;}
	.st7{fill:#F2CB3C;}
	.st8{fill:#6F4122;}
	.st9{fill:#0A0607;}
	.st10{fill:#090505;}
	.st11{fill:#070303;}
	.st12{fill:#080505;}
	.st13{fill:#070404;}
	.st14{fill:#CE9058;}
	.st15{fill:#F3D596;}
	.st16{fill:#713B1D;}
	.st17{fill:#713A1C;}
	.st18{fill:none;}
	.st19{fill:#222127;}
	.st20{fill:#F0B81D;}
	.st21{fill:#F2C106;}
	.st22{fill:#479BD5;}
	.st23{fill:#F4D546;}
	.st24{fill:#8B6CAE;}
	.st25{fill:#E74583;}
	.st26{fill:#FFFFFF;}
	.st27{fill:#20324F;}
	.st28{fill:#1D314F;}
	.st29{fill:#1C314F;}
	.st30{fill:#1E314F;}
	.st31{fill:#222D40;}
	.st32{fill:#F9FBFB;}
	.st33{fill:#F8FAFB;}
	.st34{fill:#CF2326;}
	.st35{fill:#95A5C2;}
	.st36{fill:#94A5C2;}
	.st37{fill:#92A3C1;}
	.st38{fill:#CB2428;}
	.st39{fill:#B52A32;}
	.st40{fill:#D72123;}
	.st41{fill:#2D3C55;}
	.st42{fill:#F1F5F7;}
	.st43{fill:#C3272C;}
	.st44{fill:#C8252A;}
	.st45{fill:#DDEAF3;}
	.st46{fill:#E9F0F7;}
	.st47{fill:#962D3B;}
	.st48{fill:#27374B;}
	.st49{fill:#2A3A53;}
	.st50{fill:#EED339;}
	.st51{fill:#4580DA;}
	.st52{fill:#05E9D0;}
	.st53{fill:#04E9D0;}
	.st54{fill:#555656;}
	.st55{fill:#1B314F;}
	.st56{fill:url(#路径_405_00000061470330629260405310000009786375952033214142_);}
	.st57{fill:url(#路径_407_00000121268508091762178940000008528543093504033700_);}
	.st58{fill:url(#路径_409_00000000932846208791015460000017859044237607851672_);}
	.st59{fill:url(#路径_415_00000063627049045001264740000004744108029516572321_);}
	.st60{fill:url(#路径_416_00000072274544277367971010000013086877327559007363_);}
	.st61{fill:url(#路径_417_00000045603871643033647990000009638799058615816632_);}
	.st62{fill:#DD471D;}
	.st63{fill:#16191C;}
	.st64{fill:#F4C034;}
	.st65{fill:#060001;}
	.st66{fill:#F8E19A;}
	.st67{fill:#1C1C1C;}
	.st68{fill:#181818;}
	.st69{fill:#498EB7;}
	.st70{fill:#4A8EB6;}
	.st71{fill:url(#SVGID_1_);}
	.st72{fill:#FDD333;}
	.st73{fill:url(#SVGID_00000010282497144712492720000000108111435573867149_);}
	.st74{fill:url(#SVGID_00000050641866441392516080000002352991512109901970_);}
	.st75{fill:url(#SVGID_00000175295222519390994240000005901665515099813773_);}
	.st76{fill:url(#SVGID_00000078760846743449461390000002205432000041061026_);}
	.st77{fill:url(#SVGID_00000085950542396613283080000013430793144583846273_);}
	.st78{fill:url(#SVGID_00000155837283774018161250000009306100561497870525_);}
	.st79{fill:url(#SVGID_00000012449133121817655440000007632021753127168702_);}
	.st80{fill:url(#SVGID_00000039849292346309127110000009207522417741854866_);}
	.st81{fill:url(#SVGID_00000054967356497937721620000015514695633876161197_);}
	.st82{fill:url(#SVGID_00000155122477702079400750000014867027337429172114_);}
	.st83{fill:url(#SVGID_00000113311784801813552840000002326812437334210724_);}
	.st84{fill:url(#SVGID_00000111149262590756825170000011554176933407901114_);}
	.st85{fill:url(#SVGID_00000089562973098204769830000004611804244566698912_);}
	.st86{fill:url(#SVGID_00000076582156066245648610000008754705554865799297_);}
	.st87{fill:url(#SVGID_00000122722173993311522870000009813943535858717099_);}
	.st88{fill:#4382FF;}
	.st89{fill:#3772FF;}
	.st90{fill:#FEFEFE;}
	.st91{fill:#3E81C3;}
	.st92{fill:#3E82C3;}
	.st93{fill:#3F82C3;}
	.st94{fill:#3D81C3;}
	.st95{fill:#3F82C4;}
	.st96{fill:#3B80C3;}
	.st97{fill:url(#SVGID_00000045589559365740655600000015494421870950669469_);}
	.st98{fill:#2980FE;}
	.st99{fill:#222323;}
	.st100{fill:#F2E591;}
	.st101{fill:#91C34B;}
	.st102{fill:#15954C;}
	.st103{fill:#626466;}
	.st104{fill:#010101;}
	.st105{fill:#020202;}
	.st106{fill:url(#SVGID_00000136405861417337980910000015187392565287717564_);}
	.st107{fill:url(#SVGID_00000117678575558887591890000012396269523126335403_);}
	.st108{fill:url(#SVGID_00000170238210853276115140000007589456949510315454_);}
	.st109{fill:url(#SVGID_00000016060349291346696890000005485982571941266849_);}
	.st110{fill:url(#SVGID_00000170987224163465655920000014375717848901854378_);}
	.st111{fill:url(#SVGID_00000126287634177476388870000013090537576547781526_);}
	.st112{fill:url(#SVGID_00000101798747548433431840000015771140078289536922_);}
	.st113{fill:url(#SVGID_00000112607967235189522100000007729459428985414282_);}
	.st114{fill:url(#SVGID_00000143588278895971661680000007430005950525995937_);}
	.st115{fill:url(#SVGID_00000062883954613695198370000003091073756173364912_);}
	.st116{fill:url(#SVGID_00000023278113941945092240000002468834924954314146_);}
	.st117{fill:#163060;}
	.st118{fill-rule:evenodd;clip-rule:evenodd;fill:#FFFFFF;}
	.st119{fill-rule:evenodd;clip-rule:evenodd;fill:#16305E;}
	.st120{fill-rule:evenodd;clip-rule:evenodd;fill:url(#SVGID_00000065051263729060095790000011074712902681886614_);}
	.st121{fill-rule:evenodd;clip-rule:evenodd;fill:url(#SVGID_00000121966647086843792100000002154722718721616560_);}
	.st122{fill:url(#SVGID_00000044167011245554368150000012788304310434402219_);}
	.st123{fill:url(#SVGID_00000137850450918845457500000004327743582673371820_);}
	.st124{fill:url(#SVGID_00000104685591407071557560000017467273792711866284_);}
	.st125{fill:url(#SVGID_00000098926878404811412440000007127361061501363127_);}
	.st126{fill:url(#SVGID_00000054263823966338248000000000691644472209610161_);}
	.st127{fill:url(#SVGID_00000126283351390109636600000008606086777860359857_);}
	.st128{fill:url(#SVGID_00000114773602127314373860000012667229629455223168_);}
	.st129{fill:url(#SVGID_00000154417374233367271330000016478750939884816567_);}
	.st130{fill:url(#SVGID_00000178908780570238071420000015058353856975550600_);}
</style>
<g>
	<g>
		<radialGradient id="SVGID_1_" cx="67.6421" cy="33.5" r="18.096" gradientUnits="userSpaceOnUse">
			<stop  offset="0.3708" style="stop-color:#6E3A8C"/>
			<stop  offset="1" style="stop-color:#5E3E89"/>
		</radialGradient>
		<circle class="st71" cx="67.6" cy="33.5" r="18.1"/>
		<g>
			<g>
				<path id="路径_206_00000132050876666543591590000018376175277662132884_" class="st26" d="M77.4,21.1c-2.4-1.7-5.2-2.8-8.1-3
					c-2.9-0.3-5.8,0.3-8.4,1.5c-0.6,0.3-1.3,0.7-1.9,1.1c-0.6,0.4-1.2,0.8-1.7,1.3c-0.5,0.5-1,1-1.5,1.5c-0.1,0.1-0.2,0.3-0.3,0.4
					s-0.2,0.3-0.3,0.4l-0.3,0.4l-0.3,0.5c-1.6,2.5-2.5,5.3-2.6,8.2c-0.1-1.5,0.1-2.9,0.5-4.4c0.1-0.4,0.2-0.7,0.3-1.1
					c0.1-0.3,0.2-0.7,0.4-1c0.3-0.7,0.6-1.3,1-2c0.8-1.3,1.7-2.4,2.8-3.4c0.6-0.5,1.1-1,1.8-1.4c0.6-0.4,1.3-0.8,1.9-1.1
					c1.3-0.7,2.8-1.1,4.2-1.4c0.4-0.1,0.7-0.1,1.1-0.1l0.6,0l0.3,0l0.3,0c0.7,0,1.5,0,2.2,0.1c1.5,0.2,2.9,0.6,4.3,1.1
					c0.7,0.3,1.3,0.6,2,1C76.2,20.2,76.8,20.6,77.4,21.1z"/>
				<path id="路径_207_00000029764075764825758390000008967360779749771659_" class="st26" d="M57.5,45.5c2.3,1.8,5.1,3,8.1,3.4
					c0.7,0.1,1.5,0.1,2.2,0.1c0.7,0,1.5-0.1,2.2-0.2c0.7-0.1,1.4-0.3,2.1-0.5c0.7-0.2,1.4-0.5,2-0.8c2.7-1.2,4.9-3.2,6.6-5.7
					c1.6-2.5,2.5-5.4,2.6-8.4c0,1.5-0.1,3-0.5,4.4c-0.2,0.7-0.4,1.4-0.7,2.1c-0.1,0.4-0.3,0.7-0.5,1c-0.2,0.3-0.4,0.7-0.6,1
					c-0.2,0.3-0.4,0.6-0.6,0.9c-0.2,0.3-0.5,0.6-0.7,0.9c-0.5,0.6-1,1.1-1.6,1.6c-0.6,0.5-1.2,1-1.8,1.4c-0.6,0.4-1.3,0.8-2,1.1
					c-0.7,0.3-1.4,0.6-2.1,0.8c-0.7,0.2-1.5,0.4-2.2,0.5c-1.5,0.2-3,0.2-4.5,0c-0.7-0.1-1.5-0.3-2.2-0.5c-0.7-0.2-1.4-0.5-2.1-0.8
					c-0.7-0.3-1.3-0.7-2-1.1C58.7,46.5,58.1,46,57.5,45.5z"/>
				<path id="路径_208_00000074417816263782944030000006711026172230439082_" class="st26" d="M74.2,23.3c-1.9-1.1-4-1.6-6.1-1.7
					h-0.4l-0.4,0c-0.3,0-0.5,0-0.8,0.1c-0.5,0.1-1,0.2-1.6,0.3c-1,0.2-2,0.6-2.9,1.1c-0.5,0.3-0.9,0.5-1.3,0.8
					c-0.4,0.3-0.8,0.6-1.2,1c-0.8,0.7-1.4,1.5-2,2.4c-1.1,1.8-1.8,3.9-1.9,6c-0.1-2.2,0.4-4.4,1.5-6.3c0.3-0.5,0.6-0.9,0.9-1.4
					c0.2-0.2,0.3-0.4,0.5-0.6c0.2-0.2,0.4-0.4,0.6-0.6c0.8-0.8,1.7-1.4,2.6-2c1-0.5,2-0.9,3.1-1.2c0.5-0.1,1.1-0.2,1.6-0.3
					c0.5,0,1.1-0.1,1.6,0C70.3,21.3,72.4,22.1,74.2,23.3z"/>
				<path id="路径_209_00000083061570964248552260000013447686542862669220_" class="st26" d="M60.9,43.4c1.7,1,3.6,1.6,5.6,1.8
					c0.5,0,1,0,1.5,0l0.7,0c0.2,0,0.5-0.1,0.7-0.1l0.4-0.1l0.4-0.1c0.2-0.1,0.5-0.1,0.7-0.2c0.5-0.1,0.9-0.3,1.4-0.5l0.3-0.1
					l0.2-0.1l0.2-0.1l0.6-0.3c0.2-0.1,0.4-0.3,0.6-0.4l0.3-0.2l0.3-0.2c0.8-0.6,1.5-1.2,2.1-2l0.5-0.6l0.4-0.6
					c0.1-0.2,0.3-0.4,0.4-0.6l0.2-0.3c0.1-0.1,0.1-0.2,0.2-0.3l0.3-0.7c0.1-0.2,0.2-0.5,0.3-0.7l0.1-0.3c0-0.1,0.1-0.2,0.1-0.4
					l0.2-0.7c-0.1,0.5-0.2,1-0.3,1.5c-0.1,0.2-0.1,0.5-0.2,0.7l-0.3,0.7c0,0.1-0.1,0.2-0.2,0.3l-0.2,0.3c-0.1,0.2-0.2,0.5-0.4,0.7
					l-0.4,0.6l-0.5,0.6c-0.6,0.8-1.3,1.5-2.2,2.1l-0.3,0.2l-0.3,0.2c-0.2,0.1-0.4,0.3-0.6,0.4l-0.7,0.4l-0.2,0.1l-0.2,0.1l-0.4,0.1
					c-0.5,0.2-1,0.4-1.4,0.5c-0.2,0.1-0.5,0.1-0.7,0.2l-0.4,0.1l-0.4,0c-0.3,0-0.5,0.1-0.8,0.1l-0.8,0c-0.5,0-1,0-1.5-0.1
					C64.4,45.4,62.5,44.7,60.9,43.4z"/>
				<path id="路径_214_00000072278789442869846210000006468358853541621401_" class="st72" d="M64.9,22.9c0.1,0.2,0.8,1,1,1.3
					c0.3,0.4,0.5,0.8,0.4,1.3c0,0.9,0,1.6,0,2.4v0.2c-0.3,0-1.1,0-1.4,0V28C64.9,26.3,64.9,24.7,64.9,22.9
					C64.9,23,64.9,23,64.9,22.9z"/>
				<path id="路径_215_00000098178644368994697790000016948679122211261864_" class="st72" d="M70.5,28.1c-0.5,0-1,0-1.4,0l0-0.2
					c0-0.4,0-0.9,0-1.4L70.5,28.1z"/>
				<path id="路径_216_00000172430227242902428830000008063921217158937243_" class="st72" d="M66.5,35.8c0,0,0-0.9,0-1
					c0-1.2,0-2.4,0-3.6c0-0.3,0-0.3-0.3-0.3c-0.4,0-0.7,0-1.1,0c-0.2,0-0.3,0.1-0.3,0.3c0,0.8,0,1.5,0,2.3l0,0v0.3
					c0,0.1,0,0.1,0,0.2c0,0,0,0,0,0s0.1,5.7,0.1,6.9c0-0.2,0-0.3,0-0.4c0.1-0.8,0.1-1.5,0.2-2.3c0,0,0,0,0,0c0-0.1,0.1-0.1,0.2,0
					c0,0,0,0,0.1,0.1c0,0,0,0,0,0c0,0.9,0.1,1.7,0.1,2.6c0,0.4,0,0.7,0,1.1h0.1c0.1-0.9,0.2-1.9,0.2-2.8l0,0c0-0.1,0.1-0.1,0.1-0.1
					c0.1,0,0.1,0.1,0.1,0.1v0c0,1.1,0.1,2.2,0.1,3.3c0-0.8,0.1-1.7,0.1-2.5C66.4,39.1,66.5,35.9,66.5,35.8z"/>
				<path id="路径_217_00000023283529309158251130000014413321309741338788_" class="st72" d="M71.1,28.7
					c-0.4,0.1-0.8,0.1-1.2,0.1c-1.4,0-2.8,0-4.1,0c-0.6,0-1.2,0-1.8,0.1c-0.9,0.1-1.6,0.6-2,1.5c-0.2,0.4-0.2,0.9-0.2,1.4
					c0,0.4,0.1,0.8,0.2,1.2c0-0.1,0.1-0.3,0.1-0.5c0.1-0.8,0.7-1.5,1.5-1.8c0.7-0.3,1.5-0.4,2.3-0.4c0.9,0,1.9,0,2.8,0
					c0.3,0,0.3,0,0.3,0.3c0,1.7,0.1,9.6,0.1,11c0,0.1,0,0.1,0,0.2c0-0.1,0-0.1,0-0.2c0-0.5,0.1-1.1,0.1-1.6c0-0.2,0-0.3,0.2-0.3
					c0.2,0,0.2,0.2,0.2,0.4c0.1,1.2,0.1,2.4,0.2,3.7h0.1c0-0.6,0-1.2,0-1.7c0-0.5,0-1,0.1-1.4c0-0.1,0-0.4,0.2-0.4
					c0.2,0,0.2,0.2,0.2,0.4c0,0.3,0,0.7,0,1c0,1.1,0,2.2,0.1,3.3c0-1,0.2-10.2,0.2-10.2c0,0,0,0,0-0.1c0,0,0,0,0,0V34
					c0,0,0-0.1,0-0.1c0-1.1,0-2.2,0-3.3c0-0.5,0-0.4,0.4-0.5c1.5-0.2,2.7-1.5,2.7-3.1C73.2,28.1,72.2,28.5,71.1,28.7z"/>
				<path id="路径_218_00000097468432714571216490000005591165851960209303_" class="st72" d="M69,33.9v0.3c2.7,0.1,4.6,0.5,4.6,1
					c0,0.6-2.7,1.1-5.9,1.1c-3.3,0-5.9-0.5-5.9-1.1c0-0.5,2-0.9,4.7-1v-0.3c-3.5,0.1-6.2,0.8-6.2,1.6c0,0.9,3.3,1.6,7.4,1.6
					s7.4-0.7,7.4-1.6C75.1,34.7,72.5,34.1,69,33.9z"/>
				<path id="路径_220_00000129168954858251053080000000352719608305087131_" class="st26" d="M53.4,29.1l0.2-0.6
					c0.2-0.4,0.4-0.7,0.9-0.5c0.4,0.2,0.5,0.5,0.4,1l-0.1,0.3l0.7,0.3l-0.1,0.3L53.4,29.1z M54.6,28.9c0.1-0.3,0-0.5-0.2-0.6
					c-0.3-0.1-0.4,0-0.5,0.4l-0.1,0.3l0.7,0.3L54.6,28.9z"/>
				<path id="路径_221_00000158013708654588109290000004697014848651547032_" class="st26" d="M54.5,26.6l0.2-0.3l1.8,1l-0.2,0.3
					L54.5,26.6z"/>
				<path id="路径_222_00000028290612006116647850000002993101845881851796_" class="st26" d="M55.4,25l0.2-0.3l1.4,0.2l0.5,0.1
					l0,0c-0.2-0.1-0.4-0.3-0.6-0.4L56.2,24l0.2-0.2l1.7,1.3l-0.2,0.3l-1.4-0.2L55.9,25l0,0c0.2,0.1,0.4,0.2,0.6,0.4l0.8,0.6
					l-0.2,0.2L55.4,25z"/>
				<path id="路径_223_00000081624582269382939790000004477214301862626461_" class="st26" d="M57.4,22.7l0.9-0.8l0.2,0.2
					l-0.7,0.6l0.4,0.4l0.6-0.5l0.2,0.2l-0.6,0.5l0.4,0.5l0.7-0.6l0.2,0.2l-1,0.8L57.4,22.7z"/>
				<path id="路径_224_00000028314319909617857320000003028083864644884141_" class="st26" d="M60.1,21l-0.5,0.3l-0.1-0.2l1.3-0.8
					l0.1,0.2l-0.5,0.3l0.9,1.6L61,22.6L60.1,21z"/>
				<path id="路径_225_00000070815171973100978010000014303857638851724453_" class="st26" d="M61.8,19.8l0.3-0.1l0.5,1l0.3,0.6
					l0,0c0-0.2-0.1-0.5-0.1-0.7l-0.1-1.1l0.3-0.1l0.6,0.9c0.1,0.2,0.2,0.4,0.3,0.6l0,0c0-0.2-0.1-0.5-0.1-0.7l-0.2-1.1l0.3-0.1
					l0.3,2.1L64,21.3l-0.6-1c-0.1-0.1-0.2-0.3-0.2-0.4l0,0c0,0.2,0,0.3,0.1,0.5l0.1,1.2l-0.4,0.1L61.8,19.8z"/>
				<path id="路径_226_00000070083492272601435920000002262242507703438492_" class="st26" d="M65.4,19.8
					c-0.1-0.7,0.3-1.1,0.8-1.2c0.5,0,0.9,0.3,1,1c0.1,0.7-0.3,1.1-0.8,1.2C65.9,20.9,65.5,20.5,65.4,19.8z M66.9,19.7
					c0-0.5-0.3-0.8-0.6-0.7s-0.5,0.4-0.5,0.8c0,0.5,0.3,0.8,0.6,0.7C66.7,20.5,66.9,20.2,66.9,19.7L66.9,19.7z"/>
				<path id="路径_227_00000095309402376864390270000007498353144513934996_" class="st26" d="M69.5,20.9L69.1,20l-0.3,0l-0.1,0.8
					l-0.3,0l0.2-2.1l0.7,0.1c0.4,0,0.7,0.2,0.7,0.7c0,0.3-0.2,0.5-0.5,0.5l0.4,0.9L69.5,20.9z M68.8,19.7l0.3,0
					c0.3,0,0.5-0.1,0.5-0.3S69.5,19,69.2,19l-0.3,0L68.8,19.7z"/>
				<path id="路径_228_00000180348585593564923370000001345545842712616874_" class="st26" d="M71.4,19.1l0.3,0.1l-0.3,0.9h0
					l1.1-0.7l0.4,0.1L72,20.2l0.3,1.5L72,21.5l-0.3-1.2l-0.4,0.3l-0.2,0.6l-0.3-0.1L71.4,19.1z"/>
				<path id="路径_229_00000134945570724094899260000000630651147091983008_" class="st26" d="M77.9,41.8l0,0.3
					c-0.2,0-0.4,0.1-0.6,0.3c-0.2,0.2-0.2,0.4,0,0.5c0.1,0.1,0.3,0.1,0.5,0l0.3-0.1c0.2-0.1,0.5-0.1,0.7,0c0.2,0.2,0.2,0.6,0,0.9
					c0,0,0,0,0,0c-0.2,0.2-0.4,0.3-0.6,0.3l0-0.3c0.2,0,0.3-0.1,0.4-0.2c0.1-0.2,0.2-0.3,0-0.4c-0.1-0.1-0.3,0-0.5,0l-0.3,0.1
					c-0.2,0.1-0.5,0.1-0.7-0.1c-0.3-0.3-0.3-0.7,0-0.9c0,0,0,0,0,0C77.3,41.9,77.6,41.8,77.9,41.8z"/>
				<path id="路径_230_00000059302237576779921460000011652759743093757067_" class="st26" d="M77.3,45l-0.5,0.4
					c-0.4,0.3-0.7,0.4-1,0c-0.2-0.3-0.2-0.7,0.1-0.9c0,0,0.1,0,0.1-0.1l0.2-0.2l-0.5-0.6l0.3-0.2L77.3,45z M76.1,44.6
					c-0.3,0.2-0.3,0.4-0.1,0.6c0.2,0.2,0.4,0.2,0.6,0l0.2-0.2l-0.5-0.6L76.1,44.6z"/>
				<path id="路径_231_00000014634928425344516630000015591537352148399257_" class="st26" d="M73.5,45.7l0.6-0.3l-0.1-0.6
					l0.3-0.2l0.4,2.2l-0.3,0.2l-1.6-1.5l0.3-0.2L73.5,45.7z M73.7,45.9l0.2,0.2c0.2,0.2,0.3,0.3,0.5,0.5l0,0
					c-0.1-0.2-0.1-0.5-0.2-0.7l-0.1-0.3L73.7,45.9z"/>
				<path id="路径_232_00000147214707463472784100000010189192283866189233_" class="st26" d="M72.4,46.7c0.2,0.5,0,1.1-0.5,1.3
					c0,0-0.1,0-0.1,0c-0.2,0.1-0.5,0-0.6-0.1l0.1-0.3c0.1,0.1,0.3,0.1,0.4,0.1c0.3-0.1,0.5-0.5,0.4-0.9c-0.1-0.5-0.5-0.7-0.8-0.6
					c-0.2,0.1-0.3,0.2-0.4,0.3l-0.2-0.1c0.1-0.2,0.3-0.4,0.5-0.5c0.5-0.1,1,0.1,1.2,0.6C72.4,46.6,72.4,46.6,72.4,46.7z"/>
				<path id="路径_233_00000074433123457513174910000016830152401363622047_" class="st26" d="M69.9,48.4l-1.2,0.1l0-0.3l0.9-0.1
					l-0.1-0.6l-0.8,0.1l0-0.3l0.8-0.1l-0.1-0.7l-0.9,0.1l0-0.3l1.3-0.1L69.9,48.4z"/>
				<path id="路径_234_00000065760551310775378600000006434009167312373124_" class="st26" d="M67.2,48.6l-0.6,0
					c-0.5,0-0.8-0.2-0.8-0.7c0-0.5,0.4-0.6,0.8-0.6l0.3,0l0.1-0.8l0.3,0L67.2,48.6z M66.7,47.5c-0.3,0-0.5,0.1-0.5,0.4
					s0.1,0.4,0.5,0.4l0.3,0l0.1-0.8L66.7,47.5z"/>
			</g>
			<g>
				<polygon class="st26" points="64.3,48.3 64,48.2 64.5,46.1 64.8,46.1 				"/>
			</g>
		</g>
	</g>
	<g>
		
			<radialGradient id="SVGID_00000023249765790314463200000014656235366288240554_" cx="98.6064" cy="34.1207" r="6.5619" gradientUnits="userSpaceOnUse">
			<stop  offset="0.3708" style="stop-color:#6E3A8C"/>
			<stop  offset="1" style="stop-color:#5E3E89"/>
		</radialGradient>
		<path style="fill:url(#SVGID_00000023249765790314463200000014656235366288240554_);" d="M97.1,29.2h-4v-2.5h11.1v2.5h-4v12.4
			h-3.1V29.2z"/>
		
			<radialGradient id="SVGID_00000110441181553034848590000010473985913456955036_" cx="108.3535" cy="35.9289" r="5.4524" gradientUnits="userSpaceOnUse">
			<stop  offset="0.3708" style="stop-color:#6E3A8C"/>
			<stop  offset="1" style="stop-color:#5E3E89"/>
		</radialGradient>
		<path style="fill:url(#SVGID_00000110441181553034848590000010473985913456955036_);" d="M106.3,36.6c0,1.4,0.5,2.8,2.2,2.8
			c1.3,0,1.8-0.8,1.9-1.3h2.9c-0.5,1.9-1.9,3.6-4.9,3.6c-3.6,0-5.1-2.4-5.1-5.8c0-2.8,1.4-5.8,5.2-5.8c3.8,0,4.9,2.7,4.9,5.6
			c0,0.2,0,0.7,0,0.9H106.3z M110.5,34.7c0-1.3-0.6-2.4-2.1-2.4c-1.7,0-2.1,1.4-2.1,2.4H110.5z"/>
		
			<radialGradient id="SVGID_00000152229417753182305120000005692254418571827844_" cx="116.9835" cy="33.6646" r="5.6747" gradientUnits="userSpaceOnUse">
			<stop  offset="0.3708" style="stop-color:#6E3A8C"/>
			<stop  offset="1" style="stop-color:#5E3E89"/>
		</radialGradient>
		<path style="fill:url(#SVGID_00000152229417753182305120000005692254418571827844_);" d="M115.5,41.6V25.8h2.9v15.8H115.5z"/>
		
			<radialGradient id="SVGID_00000095301772774622134060000013771019300351606679_" cx="125.6422" cy="35.9289" r="5.4524" gradientUnits="userSpaceOnUse">
			<stop  offset="0.3708" style="stop-color:#6E3A8C"/>
			<stop  offset="1" style="stop-color:#5E3E89"/>
		</radialGradient>
		<path style="fill:url(#SVGID_00000095301772774622134060000013771019300351606679_);" d="M123.6,36.6c0,1.4,0.5,2.8,2.2,2.8
			c1.3,0,1.8-0.8,1.9-1.3h2.9c-0.5,1.9-1.9,3.6-4.9,3.6c-3.6,0-5.1-2.4-5.1-5.8c0-2.8,1.4-5.8,5.2-5.8c3.8,0,4.9,2.7,4.9,5.6
			c0,0.2,0,0.7,0,0.9H123.6z M127.8,34.7c0-1.3-0.6-2.4-2.1-2.4c-1.7,0-2.1,1.4-2.1,2.4H127.8z"/>
		
			<radialGradient id="SVGID_00000088840601737026016110000017122978092023903903_" cx="137.4897" cy="38.0792" r="6.7269" gradientUnits="userSpaceOnUse">
			<stop  offset="0.3708" style="stop-color:#6E3A8C"/>
			<stop  offset="1" style="stop-color:#5E3E89"/>
		</radialGradient>
		<path style="fill:url(#SVGID_00000088840601737026016110000017122978092023903903_);" d="M142.6,40.4c0,3.5-1.4,5.6-5.3,5.6
			c-3.6,0-4.7-2-4.8-3.6h2.9c0.2,0.9,0.9,1.4,2.1,1.4c1.9,0,2.3-1.1,2.3-3.1v-0.7c-0.6,1.1-1.6,1.5-3,1.5c-2.7,0-4.5-2.1-4.5-5.6
			c0-3.6,2.2-5.7,4.7-5.7c1.8,0,2.5,0.6,2.7,1.2c0-0.3,0.1-0.8,0.1-1h2.9c0,0.6,0,1.8,0,3.4V40.4z M135.3,35.8c0,2,0.8,3.2,2.3,3.2
			c1.7,0,2.3-1,2.3-3.3c0-2.1-0.3-3.2-2.2-3.2C136.3,32.5,135.3,33.5,135.3,35.8z"/>
		
			<radialGradient id="SVGID_00000024684348368981050620000008483226422236783774_" cx="148.4891" cy="35.8491" r="4.6164" gradientUnits="userSpaceOnUse">
			<stop  offset="0.3708" style="stop-color:#6E3A8C"/>
			<stop  offset="1" style="stop-color:#5E3E89"/>
		</radialGradient>
		<path style="fill:url(#SVGID_00000024684348368981050620000008483226422236783774_);" d="M145.4,34.1c0-1.8,0-3,0-3.8h2.9
			c0.1,0.5,0.1,1.2,0.1,2c0.4-0.9,1.4-2.1,3.4-2.1v3c-2.3,0-3.4,0.7-3.4,3.3v5.1h-2.9V34.1z"/>
		
			<radialGradient id="SVGID_00000078033830513522854480000017857893201906689925_" cx="157.2328" cy="35.9277" r="5.3483" gradientUnits="userSpaceOnUse">
			<stop  offset="0.3708" style="stop-color:#6E3A8C"/>
			<stop  offset="1" style="stop-color:#5E3E89"/>
		</radialGradient>
		<path style="fill:url(#SVGID_00000078033830513522854480000017857893201906689925_);" d="M161.9,38.6c0,0.8,0,2.1,0.2,2.9h-2.6
			c-0.1-0.3-0.2-1-0.2-1.4c-0.5,0.9-1.5,1.6-3.1,1.6c-2.8,0-3.8-1.7-3.8-3.4c0-2,1.4-3.7,5.3-3.7c0.4,0,0.8,0,1.3,0v-0.8
			c0-0.9-0.3-1.6-1.6-1.6c-1.3,0-1.6,0.7-1.7,1.5h-2.9c0.1-1.8,1.2-3.6,4.6-3.6c2.7,0,4.4,0.9,4.4,3.7V38.6z M159.1,36.5
			c-0.4,0-0.8,0-1.4,0c-2,0-2.4,0.8-2.4,1.6c0,0.8,0.5,1.4,1.6,1.4c1.8,0,2.2-1.2,2.2-2.8V36.5z"/>
		
			<radialGradient id="SVGID_00000026160100298130317290000014593237878335333000_" cx="172.5478" cy="35.83" r="6.9016" gradientUnits="userSpaceOnUse">
			<stop  offset="0.3708" style="stop-color:#6E3A8C"/>
			<stop  offset="1" style="stop-color:#5E3E89"/>
		</radialGradient>
		<path style="fill:url(#SVGID_00000026160100298130317290000014593237878335333000_);" d="M164.7,33.8c0-2.2,0-3,0-3.5h2.9
			c0.1,0.4,0.1,0.9,0.1,1.3c0.6-0.9,1.6-1.5,3.1-1.5c1.5,0,2.4,0.8,2.8,1.7c0.5-0.9,1.7-1.7,3.4-1.7c1.9,0,3.6,1,3.6,3.9v7.5h-2.9
			v-7.1c0-1-0.4-2-1.6-2c-1.4,0-1.9,1-1.9,2.6v6.4h-2.9v-7.1c0-1-0.5-1.9-1.6-1.9c-1.3,0-1.9,0.8-1.9,2.8v6.3h-2.9V33.8z"/>
	</g>
</g>
</svg>
