<?xml version="1.0" encoding="utf-8"?>
<!-- Generator: Adobe Illustrator 26.0.0, SVG Export Plug-In . SVG Version: 6.00 Build 0)  -->
<svg version="1.1" id="图层_1" xmlns="http://www.w3.org/2000/svg" xmlns:xlink="http://www.w3.org/1999/xlink" x="0px" y="0px"
	 viewBox="0 0 230 67" style="enable-background:new 0 0 230 67;" xml:space="preserve">
<style type="text/css">
	.st0{fill:#F1AE4B;}
	.st1{fill:#7124F0;}
	.st2{fill-rule:evenodd;clip-rule:evenodd;fill:#7124F0;}
	.st3{fill:#593B81;}
	.st4{fill:#63C3EF;}
	.st5{fill:#E74989;}
	.st6{fill:#4A4397;}
	.st7{fill:#F2CB3C;}
	.st8{fill:#6F4122;}
	.st9{fill:#0A0607;}
	.st10{fill:#090505;}
	.st11{fill:#070303;}
	.st12{fill:#080505;}
	.st13{fill:#070404;}
	.st14{fill:#CE9058;}
	.st15{fill:#F3D596;}
	.st16{fill:#713B1D;}
	.st17{fill:#713A1C;}
	.st18{fill:none;}
	.st19{fill:#222127;}
	.st20{fill:#F0B81D;}
	.st21{fill:#F2C106;}
	.st22{fill:#479BD5;}
	.st23{fill:#F4D546;}
	.st24{fill:#8B6CAE;}
	.st25{fill:#E74583;}
	.st26{fill:#FFFFFF;}
	.st27{fill:#20324F;}
	.st28{fill:#1D314F;}
	.st29{fill:#1C314F;}
	.st30{fill:#1E314F;}
	.st31{fill:#222D40;}
	.st32{fill:#F9FBFB;}
	.st33{fill:#F8FAFB;}
	.st34{fill:#CF2326;}
	.st35{fill:#95A5C2;}
	.st36{fill:#94A5C2;}
	.st37{fill:#92A3C1;}
	.st38{fill:#CB2428;}
	.st39{fill:#B52A32;}
	.st40{fill:#D72123;}
	.st41{fill:#2D3C55;}
	.st42{fill:#F1F5F7;}
	.st43{fill:#C3272C;}
	.st44{fill:#C8252A;}
	.st45{fill:#DDEAF3;}
	.st46{fill:#E9F0F7;}
	.st47{fill:#962D3B;}
	.st48{fill:#27374B;}
	.st49{fill:#2A3A53;}
	.st50{fill:#EED339;}
	.st51{fill:#4580DA;}
	.st52{fill:#05E9D0;}
	.st53{fill:#04E9D0;}
	.st54{fill:#555656;}
	.st55{fill:#1B314F;}
	.st56{fill:url(#路径_405_00000000207497528047531040000003143212012375687578_);}
	.st57{fill:url(#路径_407_00000111173188378062974810000005629924889514873229_);}
	.st58{fill:url(#路径_409_00000113327004569453570410000004649686595096625556_);}
	.st59{fill:url(#路径_415_00000052804175581658269470000005200371981333065369_);}
	.st60{fill:url(#路径_416_00000120531476076969578590000007030153372045944224_);}
	.st61{fill:url(#路径_417_00000179612148616514648860000015573573025712594865_);}
	.st62{fill:#DD471D;}
	.st63{fill:#16191C;}
	.st64{fill:#F4C034;}
	.st65{fill:#060001;}
	.st66{fill:#F8E19A;}
	.st67{fill:#1C1C1C;}
	.st68{fill:#181818;}
	.st69{fill:#498EB7;}
	.st70{fill:#4A8EB6;}
	.st71{fill:#1D9BF0;}
	.st72{fill:url(#路径_206_00000174575956079588121900000014280484885146395044_);}
	.st73{fill:url(#路径_207_00000044858045076494807290000009739426122161016734_);}
	.st74{fill:url(#路径_208_00000039115613590112776210000003391812626295381379_);}
	.st75{fill:url(#路径_209_00000181070976663272147770000008539260041727105458_);}
	.st76{fill:#FDD333;}
</style>
<g id="spiswap" transform="translate(-2.4 -0.5)">
	<path id="路径_5_00000070107496518131307610000010163094783055673744_" class="st55" d="M84.8,37.4c0.2,3.2,1.6,6.1,5.3,6.1
		c1.7,0,3.6-1,3.6-3.3c0-2.1-1.9-3.1-4.7-4.5c-2.6-1.4-4.9-2.8-4.9-5.7c0-3,2.6-4.6,5.5-4.6c1.3-0.1,2.6,0.3,3.6,1.1
		c0.3,0.2,0.6,0.4,1,0.4c0.4,0,0.6-0.5,0.6-1.3h0.7c-0.1,0.9-0.1,2.1-0.1,5.4h-0.7c-0.2-2.5-1.6-5-4.8-5c-2.1,0-3.6,1.2-3.6,2.9
		c0,2.2,2.1,3,4.6,4.5c3,1.6,5.3,3,5.3,5.7c0,3.3-2.7,5-6,5c-1.4,0.1-2.8-0.3-4-1.1c-0.3-0.2-0.6-0.4-1-0.4c-0.4,0-0.6,0.4-0.6,1.3
		H84c0.1-1.1,0.1-2.7,0.1-6.5L84.8,37.4L84.8,37.4z"/>
	<path id="路径_6_00000156564204902191809420000011389330403984464035_" class="st55" d="M104.2,40.6c0,2.1,0.4,2.4,2.4,2.5v0.6
		c-0.9-0.1-2.4-0.1-3.7-0.1c-1.5,0-2.9,0-3.7,0.1v-0.6c2-0.1,2.4-0.4,2.4-2.5V29c0-2.2-0.4-2.4-2.4-2.5v-0.6
		c0.8,0.1,2.3,0.1,3.6,0.1c1.9,0,3.7-0.1,4.4-0.1c4.3,0,6.5,2,6.5,4.9c0,2.5-1.6,5.7-7.4,5.7h-2V40.6z M105.8,35.9
		c3.9,0,4.8-2.2,4.8-4.8c0-3-1.1-4.7-4.3-4.7c-1.8,0-2.2,0.5-2.2,2.5v7H105.8z"/>
	<path id="路径_7_00000146470081489909445410000011200298940338107779_" class="st55" d="M123,26.5c-2,0.1-2.4,0.4-2.4,2.5v11.6
		c0,2.1,0.4,2.4,2.4,2.5v0.6c-0.9-0.1-2.4-0.1-3.7-0.1c-1.5,0-2.9,0-3.7,0.1v-0.6c2-0.1,2.4-0.4,2.4-2.5V29c0-2.2-0.4-2.4-2.4-2.5
		v-0.6c0.8,0.1,2.2,0.1,3.7,0.1c1.4,0,2.8,0,3.7-0.1V26.5z"/>
	<path id="路径_1_00000027583105551749106780000014377591528744822953_" class="st55" d="M56.5,27.6L56.5,27.6
		c1.2,0,2.2,1,2.2,2.2v6.2c0.8,0.3,1.5,0.5,2.3,0.7v-6.9c0-1.2,1-2.2,2.2-2.2h1.2v-1.8H48.9v1.8h0.8c1.2,0,2.2,1,2.2,2.2v3
		c0.7,0.4,1.5,0.9,2.3,1.3v-4.3C54.3,28.6,55.3,27.6,56.5,27.6L56.5,27.6"/>
	<path id="路径_2_00000033340957808162446700000010847796149061406623_" class="st55" d="M58.6,39.7c0,1.7,0.3,2.9,0.9,3.5
		c0.6,0.7,1.7,1.1,3.4,1.1l0.2-1.9c-0.9,0-1.5-0.2-1.7-0.6c-0.2-0.6-0.4-1.3-0.4-2c-0.7-0.2-1.6-0.4-2.4-0.6L58.6,39.7z"/>
	<path id="路径_3_00000170259975239753316240000014962197508764659358_" class="st55" d="M52,44.1h2.3v-6.7
		c-0.8-0.4-1.6-0.7-2.3-1.1V44.1z"/>
	<path id="路径_4_00000058573969430086607570000011820859635218938038_" class="st55" d="M68.4,35.1c0.5,0.7,0.7,1.6,0.4,2.4
		c-0.7,1.6-3.9,1.9-8,0.9c-0.7-0.2-1.5-0.4-2.3-0.6c-1.2-0.4-2.4-0.8-3.6-1.4l-0.7-0.4c-0.8-0.4-1.6-0.8-2.3-1.2c-4.9-2.7-7.9-6-7-8
		c0.4-0.7,1.1-1.2,1.9-1.3c-1.6,0.1-2.8,0.7-3.2,1.6c-1,2.2,2.6,6.1,8.3,9.1c0.7,0.4,1.5,0.8,2.3,1.1c0.1,0.1,0.2,0.1,0.3,0.1
		c1.3,0.6,2.7,1.1,4.1,1.6c0.8,0.2,1.6,0.4,2.4,0.6c4.4,1.1,7.9,0.7,8.7-1.1C70,37.8,69.5,36.5,68.4,35.1"/>
	<g id="组_2549">
		
			<linearGradient id="路径_405_00000181046314913116521470000001180073799496282264_" gradientUnits="userSpaceOnUse" x1="-1695.9965" y1="678.1078" x2="-1695.3746" y2="678.1078" gradientTransform="matrix(59 0 0 -59 100101.8516 40042.3633)">
			<stop  offset="0" style="stop-color:#AA1760"/>
			<stop  offset="0.322" style="stop-color:#0940FA"/>
			<stop  offset="0.69" style="stop-color:#1B314F"/>
			<stop  offset="1" style="stop-color:#CC1891"/>
		</linearGradient>
		<path id="路径_405" style="fill:url(#路径_405_00000181046314913116521470000001180073799496282264_);" d="M56.4,52.3
			c-10.1,0-18.3-8.2-18.3-18.3s8.2-18.3,18.3-18.3S74.7,23.9,74.7,34C74.8,44.1,66.5,52.3,56.4,52.3C56.4,52.3,56.4,52.3,56.4,52.3z
			 M56.4,17.1c-9.3,0-16.9,7.6-16.9,16.9s7.6,16.9,16.9,16.9S73.3,43.3,73.3,34l0,0C73.3,24.7,65.7,17.1,56.4,17.1z"/>
	</g>
	<path id="路径_406" class="st18" d="M174.2,36.7l-3.3-7.5l-3.3,7.5H174.2z"/>
	
		<linearGradient id="路径_407_00000058576069785153350010000007936847258880111030_" gradientUnits="userSpaceOnUse" x1="-1649.4413" y1="680.3326" x2="-1648.8159" y2="680.3326" gradientTransform="matrix(16.9 0 0 -28.8 28046.1113 19628.2656)">
		<stop  offset="0" style="stop-color:#3BF8FA"/>
		<stop  offset="0.316" style="stop-color:#AA1760"/>
		<stop  offset="0.791" style="stop-color:#0940FA"/>
		<stop  offset="1" style="stop-color:#CC1891"/>
	</linearGradient>
	<path id="路径_407" style="fill:url(#路径_407_00000058576069785153350010000007936847258880111030_);" d="M179.1,41.2
		l-6.8-15.5h-0.5l-1.2,2.7l0.3,0.8l3.3,7.5l0.2,0.6l1.5,3.4c0.2,0.4,0.4,0.9,0.4,1.4c0,0.8-0.7,1-2.1,1.1v0.6
		c0.8-0.1,2.2-0.1,3.8-0.1c1.1,0,2.4,0,3.1,0.1v-0.6C180.5,43.1,179.7,42.7,179.1,41.2z"/>
	<path id="路径_408" class="st55" d="M167.6,36.7l3.4-7.5l-0.3-0.8l-5.3,11.9c-0.6,1.4-1.3,2.4-2.4,2.7v0.6
		c0.5-0.1,1.9-0.1,2.5-0.1c1.1,0,2.1,0,2.7,0.1v-0.6c-1.6-0.1-2.3-0.7-2.3-1.7c0-0.6,0.2-1.3,0.5-1.9l1-2.2h7.1l-0.2-0.6L167.6,36.7
		L167.6,36.7z"/>
	
		<linearGradient id="路径_409_00000173883014487323182240000009211070902631294398_" gradientUnits="userSpaceOnUse" x1="-1643.9458" y1="680.3365" x2="-1643.3271" y2="680.3365" gradientTransform="matrix(15.8 0 0 -28.8 26123.5664 19628.5625)">
		<stop  offset="0" style="stop-color:#3BF8FA"/>
		<stop  offset="0.316" style="stop-color:#AA1760"/>
		<stop  offset="0.791" style="stop-color:#0940FA"/>
		<stop  offset="1" style="stop-color:#CC1891"/>
	</linearGradient>
	<path id="路径_409" style="fill:url(#路径_409_00000173883014487323182240000009211070902631294398_);" d="M154.4,28.9
		c-0.2-0.4-0.3-0.9-0.4-1.4c0-0.8,0.7-1,2.1-1.1v-0.6c-0.8,0.1-2.2,0.1-3.7,0.1c-1.1,0-2.3,0-3.1-0.1v0.6c0.6,0,1.4,0.4,2.1,1.9
		l1.4,3.5l0.3,0.8l4.5,11.2h0.5l1-2.9l-0.4-0.9L154.4,28.9z"/>
	<path id="路径_410" class="st55" d="M162.8,26c-1.1,0-2.1,0-2.7-0.1v0.6c1.4,0.1,2.2,0.5,2.2,1.8c-0.1,0.9-0.3,1.8-0.6,2.6
		l-3.2,9.2L159,41l4-11.6c0.6-1.9,1.3-2.7,2.4-2.9v-0.6C164.9,25.9,163.5,26,162.8,26z"/>
	<path id="路径_411" class="st55" d="M144.9,28.9c-0.2-0.5-0.3-0.9-0.3-1.4c0-0.8,0.6-1,2.1-1.1v-0.6c-0.8,0.1-2.2,0.1-3.7,0.1
		c-1.1,0-2.4,0-3.1-0.1v0.6c0.6,0,1.4,0.4,2,1.9l6,15.5h0.5l1.2-2.8l-0.3-0.8L144.9,28.9z"/>
	<path id="路径_412" class="st55" d="M152.7,31.8l-3.5,8.5l0.3,0.7l3.5-8.4L152.7,31.8z"/>
	<path id="路径_413" class="st18" d="M193.8,31.1c0-3-1.1-4.6-4.1-4.7v0.1h-0.1c-1.8,0-2.2,0.5-2.2,2.5v6.9h1.7
		C192.9,35.9,193.8,33.7,193.8,31.1z"/>
	<path id="路径_414" class="st55" d="M187.3,36.5V29c0-2,0.4-2.5,2.2-2.5h0.1v-0.6c-0.9,0-2.4,0.1-3.9,0.1c-1.3,0-2.7,0-3.6-0.1
		v0.6c2,0.1,2.4,0.4,2.4,2.5v11.6c0,2.1-0.4,2.4-2.4,2.5v0.6c0.8-0.1,2.2-0.1,3.7-0.1c1.4,0,2.8,0,3.7,0.1v-0.6
		c-2-0.1-2.4-0.4-2.4-2.5L187.3,36.5z"/>
	
		<linearGradient id="路径_415_00000031176087077340691440000016165574313639515063_" gradientUnits="userSpaceOnUse" x1="-1641.6326" y1="682.9796" x2="-1642.1025" y2="683.3967" gradientTransform="matrix(15.1 0 0 -17 24983.2266 11645.8623)">
		<stop  offset="0" style="stop-color:#3BF8FA"/>
		<stop  offset="0.316" style="stop-color:#AA1760"/>
		<stop  offset="0.791" style="stop-color:#0940FA"/>
		<stop  offset="1" style="stop-color:#CC1891"/>
	</linearGradient>
	<path id="路径_415" style="fill:url(#路径_415_00000031176087077340691440000016165574313639515063_);" d="M193.8,31.1
		c0,2.5-0.9,4.8-4.8,4.8h-1.7v0.6h2c5.8,0,7.4-3.2,7.4-5.7c0-2.9-2.2-4.9-6.5-4.9h-0.6v0.6C192.7,26.5,193.8,28.1,193.8,31.1z"/>
	
		<linearGradient id="路径_416_00000168113821693001811230000002289695941856848528_" gradientUnits="userSpaceOnUse" x1="-1579.8804" y1="688.0062" x2="-1579.2574" y2="688.0062" gradientTransform="matrix(8.5 0 0 -10.7 13555.0811 7402.415)">
		<stop  offset="0" style="stop-color:#3BF8FA"/>
		<stop  offset="0.316" style="stop-color:#AA1760"/>
		<stop  offset="0.791" style="stop-color:#0940FA"/>
		<stop  offset="1" style="stop-color:#CC1891"/>
	</linearGradient>
	<path id="路径_416" style="fill:url(#路径_416_00000168113821693001811230000002289695941856848528_);" d="M126.9,37.4h-0.7
		c0,3.8,0,5.3-0.1,6.5h0.7c0.1-0.9,0.2-1.3,0.6-1.3c0.4,0.1,0.7,0.2,1,0.4c0.9,0.6,1.9,0.9,3,1.1v-0.6
		C128.3,43.1,127.1,40.5,126.9,37.4z"/>
	
		<linearGradient id="路径_417_00000155852185331467556220000006979218852853481121_" gradientUnits="userSpaceOnUse" x1="-1601.8561" y1="689.3972" x2="-1601.2375" y2="689.3972" gradientTransform="matrix(10.1 0 0 -9.0226 16310.1514 6248.4453)">
		<stop  offset="0" style="stop-color:#3BF8FA"/>
		<stop  offset="0.316" style="stop-color:#AA1760"/>
		<stop  offset="0.791" style="stop-color:#0940FA"/>
		<stop  offset="1" style="stop-color:#CC1891"/>
	</linearGradient>
	<path id="路径_417" style="fill:url(#路径_417_00000155852185331467556220000006979218852853481121_);" d="M132,26
		c3.2,0,4.6,2.5,4.8,5h0.7c0-3.4,0.1-4.5,0.1-5.4h-0.7c-0.1,0.8-0.2,1.3-0.6,1.3c-0.4-0.1-0.7-0.2-1-0.4c-1-0.8-2.3-1.2-3.6-1.1
		h-0.4v0.6C131.6,26.1,131.8,26,132,26z"/>
	<path id="路径_418" class="st55" d="M133.1,33.4l-1.7-0.9c-1.7-0.9-2.9-1.8-2.9-3.5c0-1.5,1.2-2.6,2.9-2.9v-0.6
		c-2.7,0.1-5.2,1.6-5.2,4.5c0,2.9,2.3,4.3,4.9,5.7c0.1,0.1,0.1,0.1,0.2,0.1c2.6,1.4,4.4,2.4,4.4,4.4c0,2.4-1.9,3.3-3.6,3.3
		c-0.3,0-0.5,0-0.8-0.1V44c0.3,0.1,0.7,0.1,1,0.1c3.2,0,6-1.7,6-5C138.4,36.4,136.1,35,133.1,33.4z"/>
</g>
</svg>
