<?xml version="1.0" encoding="utf-8"?>
<!-- Generator: Adobe Illustrator 26.0.0, SVG Export Plug-In . SVG Version: 6.00 Build 0)  -->
<svg version="1.1" id="图层_1" xmlns="http://www.w3.org/2000/svg" xmlns:xlink="http://www.w3.org/1999/xlink" x="0px" y="0px"
	 viewBox="0 0 230 67" style="enable-background:new 0 0 230 67;" xml:space="preserve">
<style type="text/css">
	.st0{fill:#F1AE4B;}
	.st1{fill:#7124F0;}
	.st2{fill-rule:evenodd;clip-rule:evenodd;fill:#7124F0;}
	.st3{fill:#593B81;}
	.st4{fill:#63C3EF;}
	.st5{fill:#E74989;}
	.st6{fill:#4A4397;}
	.st7{fill:#F2CB3C;}
	.st8{fill:#6F4122;}
	.st9{fill:#0A0607;}
	.st10{fill:#090505;}
	.st11{fill:#070303;}
	.st12{fill:#080505;}
	.st13{fill:#070404;}
	.st14{fill:#CE9058;}
	.st15{fill:#F3D596;}
	.st16{fill:#713B1D;}
	.st17{fill:#713A1C;}
	.st18{fill:none;}
	.st19{fill:#222127;}
	.st20{fill:#F0B81D;}
	.st21{fill:#F2C106;}
	.st22{fill:#479BD5;}
	.st23{fill:#F4D546;}
	.st24{fill:#8B6CAE;}
	.st25{fill:#E74583;}
	.st26{fill:#FFFFFF;}
	.st27{fill:#20324F;}
	.st28{fill:#1D314F;}
	.st29{fill:#1C314F;}
	.st30{fill:#1E314F;}
	.st31{fill:#222D40;}
	.st32{fill:#F9FBFB;}
	.st33{fill:#F8FAFB;}
	.st34{fill:#CF2326;}
	.st35{fill:#95A5C2;}
	.st36{fill:#94A5C2;}
	.st37{fill:#92A3C1;}
	.st38{fill:#CB2428;}
	.st39{fill:#B52A32;}
	.st40{fill:#D72123;}
	.st41{fill:#2D3C55;}
	.st42{fill:#F1F5F7;}
	.st43{fill:#C3272C;}
	.st44{fill:#C8252A;}
	.st45{fill:#DDEAF3;}
	.st46{fill:#E9F0F7;}
	.st47{fill:#962D3B;}
	.st48{fill:#27374B;}
	.st49{fill:#2A3A53;}
	.st50{fill:#EED339;}
	.st51{fill:#4580DA;}
	.st52{fill:#05E9D0;}
	.st53{fill:#04E9D0;}
	.st54{fill:#555656;}
	.st55{fill:#1B314F;}
	.st56{fill:url(#路径_405_00000086658190077777743950000010218253615073280935_);}
	.st57{fill:url(#路径_407_00000132081386368171206280000013167497572869259405_);}
	.st58{fill:url(#路径_409_00000137835024784451189630000005929598289727783819_);}
	.st59{fill:url(#路径_415_00000082329516334447406100000018093502468951002498_);}
	.st60{fill:url(#路径_416_00000108286786906427179390000005116875241604066485_);}
	.st61{fill:url(#路径_417_00000083774769028987610450000000560193154030656918_);}
	.st62{fill:#DD471D;}
	.st63{fill:#16191C;}
	.st64{fill:#F4C034;}
	.st65{fill:#060001;}
	.st66{fill:#F8E19A;}
	.st67{fill:#1C1C1C;}
	.st68{fill:#181818;}
	.st69{fill:#498EB7;}
	.st70{fill:#4A8EB6;}
	.st71{fill:#1D9BF0;}
	.st72{fill:url(#路径_206_00000060715701104421851250000003840174115771645843_);}
	.st73{fill:url(#路径_207_00000077323036288618275510000003515854925324698011_);}
	.st74{fill:url(#路径_208_00000063629937003739694390000007707455181608675975_);}
	.st75{fill:url(#路径_209_00000165930031571204672770000001298646429541966524_);}
	.st76{fill:#FDD333;}
</style>
<g>
	<path class="st1" d="M108.3,28.3c0.2,0.2,0.4,0.3,0.6,0.4c0.2,0.1,0.5,0.1,0.8,0.1c0.3,0,0.5,0,0.8-0.1c0.2-0.1,0.5-0.2,0.6-0.4
		c0.2-0.2,0.3-0.4,0.4-0.6c0.1-0.2,0.1-0.5,0.1-0.8c0-0.3,0-0.5-0.1-0.8c-0.1-0.2-0.2-0.5-0.4-0.6c-0.2-0.2-0.4-0.3-0.6-0.4
		c-0.2-0.1-0.5-0.2-0.8-0.1c-0.3,0-0.5,0-0.8,0.1c-0.2,0.1-0.5,0.3-0.6,0.4c-0.2,0.2-0.3,0.4-0.4,0.6c-0.1,0.2-0.1,0.5-0.1,0.8
		c0,0.3,0,0.5,0.1,0.8C108,27.9,108.2,28.2,108.3,28.3z"/>
	<path class="st1" d="M108,30.2c0,0-0.1,0.1-0.1,0.1c0,0,0,0.1,0,0.1v11.2c0,0,0,0.1,0,0.1c0,0,0,0.1,0.1,0.1c0,0,0.1,0.1,0.1,0.1
		c0,0,0.1,0,0.1,0h2.9c0,0,0.1,0,0.1,0c0,0,0.1,0,0.1-0.1c0,0,0.1-0.1,0.1-0.1c0,0,0-0.1,0-0.1V30.5c0,0,0-0.1,0-0.1
		c0,0,0-0.1-0.1-0.1c0,0-0.1-0.1-0.1-0.1c0,0-0.1,0-0.1,0h-2.9c0,0-0.1,0-0.1,0C108.1,30.2,108,30.2,108,30.2"/>
	<path class="st2" d="M139,33.5c0.5-0.4,1-0.6,1.6-0.5c0.6,0,1.1,0.2,1.6,0.5c0.4,0.3,0.7,0.8,0.8,1.5h-4.9
		C138.2,34.4,138.5,33.9,139,33.5z M146.1,37c0.1-0.2,0.2-0.6,0.2-1.2c0-1-0.2-2.1-0.7-3c-0.5-0.9-1.1-1.6-2-2.2
		c-0.9-0.5-1.9-0.8-3-0.8c-1.1,0-2.2,0.3-3.1,0.8c-0.9,0.5-1.7,1.3-2.2,2.2c-0.5,1-0.8,2-0.8,3.1c0,1.1,0.3,2.2,0.8,3.1
		c0.5,0.9,1.3,1.7,2.2,2.2c1,0.6,2.1,0.8,3.3,0.8c0.8,0,1.6-0.1,2.4-0.5c0.8-0.3,1.4-0.8,2-1.4c0,0,0.1-0.1,0.1-0.1
		c0-0.1,0-0.1,0-0.2c0,0,0-0.1,0-0.1c0,0,0-0.1-0.1-0.1l-1.3-1.2c-0.1-0.1-0.2-0.1-0.3-0.1c-0.1,0-0.2,0-0.3,0.1
		c-0.4,0.2-0.8,0.4-1.2,0.6c-0.4,0.1-0.8,0.1-1.1,0.1c-0.8,0-1.5-0.2-2-0.5c-0.5-0.3-0.9-0.9-1-1.5h7.2
		C145.7,37.4,146,37.2,146.1,37"/>
	<path class="st2" d="M153.2,33c-0.6,0-1.2,0.2-1.6,0.5c-0.5,0.3-0.8,0.8-0.9,1.5h4.9c-0.1-0.7-0.4-1.2-0.8-1.5
		C154.4,33.2,153.8,33,153.2,33z M158.9,35.8c0,0.5-0.1,0.9-0.2,1.2c-0.1,0.2-0.3,0.3-0.7,0.3h-7.2c0.1,0.6,0.5,1.1,1,1.5
		c0.5,0.3,1.2,0.5,2,0.5c0.4,0,0.8,0,1.1-0.1c0.4-0.1,0.8-0.3,1.2-0.6c0.1-0.1,0.2-0.1,0.3-0.1c0.1,0,0.2,0.1,0.3,0.1l1.3,1.2
		c0,0,0.1,0.1,0.1,0.1c0,0,0,0.1,0,0.1c0,0.1,0,0.1,0,0.2c0,0.1-0.1,0.1-0.1,0.1c-0.6,0.6-1.3,1-2,1.4c-0.8,0.3-1.6,0.5-2.4,0.5
		c-1.1,0-2.3-0.3-3.3-0.8c-0.9-0.5-1.7-1.3-2.2-2.2c-0.5-0.9-0.8-2-0.8-3.1c0-1.1,0.3-2.2,0.8-3.1c0.5-0.9,1.3-1.7,2.2-2.2
		c0.9-0.6,2-0.8,3.1-0.8c1,0,2.1,0.3,3,0.8c0.9,0.5,1.5,1.3,2,2.2C158.7,33.8,158.9,34.8,158.9,35.8"/>
	<path class="st2" d="M168.1,38.1c-0.5,0.5-1.1,0.8-1.9,0.8c-0.8,0-1.4-0.3-1.9-0.8c-0.5-0.5-0.7-1.2-0.7-2c0-0.8,0.2-1.5,0.7-2
		c0.2-0.3,0.5-0.5,0.9-0.6c0.3-0.1,0.7-0.2,1.1-0.2c0.4,0,0.7,0.1,1,0.2c0.3,0.1,0.6,0.3,0.9,0.6c0.5,0.5,0.8,1.2,0.8,2.1
		C168.8,36.9,168.6,37.6,168.1,38.1L168.1,38.1z M169.5,30.7c-0.9-0.6-1.9-0.8-2.9-0.8c-1.4,0-2.5,0.6-3.4,1.7l-0.1-1.1
		c0-0.2-0.2-0.4-0.4-0.4h-2.5c0,0-0.1,0-0.1,0c0,0-0.1,0-0.1,0.1c0,0-0.1,0.1-0.1,0.1c0,0,0,0.1,0,0.1v15.8c0,0,0,0.1,0,0.1
		c0,0,0,0.1,0.1,0.1c0,0,0.1,0.1,0.1,0.1c0,0,0.1,0,0.1,0h2.9c0,0,0.1,0,0.1,0c0,0,0.1,0,0.1-0.1c0,0,0.1-0.1,0.1-0.1
		c0,0,0-0.1,0-0.1V41c0.8,0.8,1.8,1.2,3.1,1.2c1,0,2.1-0.3,2.9-0.8c0.9-0.5,1.6-1.3,2.1-2.2c0.5-1,0.8-2,0.8-3.1
		c0-1.1-0.2-2.2-0.8-3.1C171.1,32.1,170.4,31.3,169.5,30.7z"/>
	<path class="st1" d="M120.4,30.1c0,0,0.1,0,0.1,0c0,0,0.1,0,0.1,0.1c0,0,0.1,0.1,0.1,0.1c0,0,0,0.1,0,0.1v2.2c0,0,0,0.1,0,0.1
		c0,0,0,0.1-0.1,0.1c0,0-0.1,0.1-0.1,0.1c0,0-0.1,0-0.1,0h-1.9v8.6c0,0,0,0.1,0,0.1c0,0,0,0.1-0.1,0.1c0,0-0.1,0.1-0.1,0.1
		c0,0-0.1,0-0.1,0h-2.9c0,0-0.1,0-0.1,0c0,0-0.1,0-0.1-0.1c0,0-0.1-0.1-0.1-0.1c0,0,0-0.1,0-0.1v-8.6h-1.9c0,0-0.1,0-0.1,0
		c0,0-0.1,0-0.1-0.1c0,0-0.1-0.1-0.1-0.1c0,0,0-0.1,0-0.1v-2.2c0,0,0-0.1,0-0.1c0,0,0-0.1,0.1-0.1c0,0,0.1-0.1,0.1-0.1
		c0,0,0.1,0,0.1,0h1.9v-3.3c0,0,0-0.1,0-0.1c0,0,0-0.1,0.1-0.1c0,0,0.1-0.1,0.1-0.1c0,0,0.1,0,0.1,0h2.9c0,0,0.1,0,0.1,0
		c0,0,0.1,0,0.1,0.1c0,0,0.1,0.1,0.1,0.1c0,0,0,0.1,0,0.1v3.3L120.4,30.1z"/>
	<path class="st2" d="M100.8,38.7c0.7,0,1.3-0.2,1.8-0.5c0.4-0.3,0.7-0.9,0.7-1.5c0-0.7-0.2-1.2-0.7-1.5c-0.4-0.3-1-0.5-1.8-0.5H98
		v4H100.8z M102.2,29.9c0-1-0.6-1.6-1.9-1.6H98v3.3h2.2c0.6,0,1.1-0.1,1.4-0.4C102,30.9,102.2,30.5,102.2,29.9L102.2,29.9z
		 M103.6,33c0.9,0.2,1.7,0.8,2.3,1.5c0.7,0.7,1,1.7,1,2.7c0,1.6-0.5,2.9-1.6,3.7c-1,0.8-2.6,1.2-4.8,1.2h-6c0,0-0.1,0-0.1,0
		c0,0-0.1,0-0.1-0.1c0,0-0.1-0.1-0.1-0.1c0,0,0-0.1,0-0.1V25.4c0,0,0-0.1,0-0.1c0,0,0-0.1,0.1-0.1c0,0,0.1-0.1,0.1-0.1
		c0,0,0.1,0,0.1,0h6c1.1,0,2,0.2,2.7,0.6c0.7,0.3,1.3,0.9,1.8,1.6c0.4,0.7,0.6,1.5,0.6,2.2c0,0.8-0.2,1.6-0.6,2.2
		C104.7,32.3,104.2,32.7,103.6,33"/>
	<path class="st1" d="M135.9,41.9c0-0.1,0-0.2-0.1-0.2l-6.8-9.1l6.5-7c0.1-0.1,0.1-0.1,0.1-0.2c0,0,0-0.1,0-0.1c0,0,0,0-0.1-0.1
		c0,0-0.1,0-0.1-0.1c0,0-0.1,0-0.1,0H132c-0.1,0-0.2,0-0.2,0.1c-0.1,0-0.1,0.1-0.2,0.1l-6.3,6.8v-6.6c0,0,0-0.1,0-0.1
		c0,0,0-0.1-0.1-0.1c0,0-0.1-0.1-0.1-0.1c0,0-0.1,0-0.1,0h-2.9c0,0-0.1,0-0.1,0c0,0-0.1,0-0.1,0.1c0,0-0.1,0.1-0.1,0.1
		c0,0,0,0.1,0,0.1v16.3c0,0,0,0.1,0,0.1c0,0,0,0.1,0.1,0.1c0,0,0.1,0.1,0.1,0.1c0,0,0.1,0,0.1,0h2.9c0,0,0.1,0,0.1,0
		c0,0,0.1,0,0.1-0.1c0,0,0.1-0.1,0.1-0.1c0,0,0-0.1,0-0.1v-5.3l1.4-1.6l5.2,7c0,0.1,0.1,0.1,0.2,0.2c0.1,0,0.2,0.1,0.2,0.1h3.1
		C135.8,42.2,135.9,42.1,135.9,41.9"/>
	<path class="st2" d="M87,26.2v1.7c0,0.2,0,0.3-0.1,0.5c-0.1,0.1-0.2,0.3-0.3,0.3l-5.4,3.1l4.8,2.8c0.3,0.2,0.6,0.4,0.8,0.8
		c0.2,0.3,0.3,0.7,0.3,1v4.4c0,0.4-0.1,0.7-0.3,1c-0.2,0.3-0.4,0.6-0.8,0.8l-12.6,7.2c-0.3,0.2-0.7,0.3-1,0.3s-0.7-0.1-1-0.3
		l-4.1-2.4c-0.1,0-0.1-0.1-0.2-0.2c0-0.1-0.1-0.1-0.1-0.2c0-0.1,0-0.2,0.1-0.2c0-0.1,0.1-0.1,0.2-0.2l13.6-7.8c0,0,0.1,0,0.1-0.1
		c0,0,0-0.1,0-0.1c0,0,0-0.1,0-0.1c0,0,0-0.1-0.1-0.1l-5.1-2.9c-0.1-0.1-0.3-0.1-0.5-0.1c-0.2,0-0.3,0-0.5,0.1l-13.8,8
		c-0.1,0.1-0.2,0.1-0.3,0.1c-0.1,0-0.2,0-0.3-0.1l-1.6-0.9c-0.3-0.2-0.6-0.4-0.8-0.8c-0.2-0.3-0.3-0.7-0.3-1v-1.8
		c0-0.1,0-0.2,0.1-0.3s0.1-0.2,0.3-0.3l19.8-11.4c0,0,0.1,0,0.1-0.1s0-0.1,0-0.1c0,0,0-0.1,0-0.1c0,0,0-0.1-0.1-0.1l-5.1-2.9
		c-0.1-0.1-0.3-0.1-0.5-0.1c-0.2,0-0.3,0-0.5,0.1l-13.5,7.8c-0.1,0-0.1,0.1-0.2,0.1c-0.1,0-0.2,0-0.2-0.1c-0.1,0-0.1-0.1-0.2-0.2
		c0-0.1-0.1-0.1-0.1-0.2v-4.8c0-0.4,0.1-0.7,0.3-1c0.2-0.3,0.4-0.6,0.8-0.8l12.6-7.2c0.3-0.2,0.7-0.3,1-0.3s0.7,0.1,1,0.3l12.6,7.3
		c0.3,0.2,0.6,0.4,0.8,0.8C86.9,25.5,87,25.9,87,26.2z"/>
</g>
</svg>
