<?xml version="1.0" encoding="utf-8"?>
<!-- Generator: Adobe Illustrator 26.0.0, SVG Export Plug-In . SVG Version: 6.00 Build 0)  -->
<svg version="1.1" id="图层_1" xmlns="http://www.w3.org/2000/svg" xmlns:xlink="http://www.w3.org/1999/xlink" x="0px" y="0px"
	 viewBox="0 0 230 67" style="enable-background:new 0 0 230 67;" xml:space="preserve">
<style type="text/css">
	.st0{fill:#F1AE4B;}
	.st1{fill:#7124F0;}
	.st2{fill-rule:evenodd;clip-rule:evenodd;fill:#7124F0;}
	.st3{fill:#593B81;}
	.st4{fill:#63C3EF;}
	.st5{fill:#E74989;}
	.st6{fill:#4A4397;}
	.st7{fill:#F2CB3C;}
	.st8{fill:#6F4122;}
	.st9{fill:#0A0607;}
	.st10{fill:#090505;}
	.st11{fill:#070303;}
	.st12{fill:#080505;}
	.st13{fill:#070404;}
	.st14{fill:#CE9058;}
	.st15{fill:#F3D596;}
	.st16{fill:#713B1D;}
	.st17{fill:#713A1C;}
	.st18{fill:none;}
	.st19{fill:#222127;}
	.st20{fill:#F0B81D;}
	.st21{fill:#F2C106;}
	.st22{fill:#479BD5;}
	.st23{fill:#F4D546;}
	.st24{fill:#8B6CAE;}
	.st25{fill:#E74583;}
	.st26{fill:#FFFFFF;}
	.st27{fill:#20324F;}
	.st28{fill:#1D314F;}
	.st29{fill:#1C314F;}
	.st30{fill:#1E314F;}
	.st31{fill:#222D40;}
	.st32{fill:#F9FBFB;}
	.st33{fill:#F8FAFB;}
	.st34{fill:#CF2326;}
	.st35{fill:#95A5C2;}
	.st36{fill:#94A5C2;}
	.st37{fill:#92A3C1;}
	.st38{fill:#CB2428;}
	.st39{fill:#B52A32;}
	.st40{fill:#D72123;}
	.st41{fill:#2D3C55;}
	.st42{fill:#F1F5F7;}
	.st43{fill:#C3272C;}
	.st44{fill:#C8252A;}
	.st45{fill:#DDEAF3;}
	.st46{fill:#E9F0F7;}
	.st47{fill:#962D3B;}
	.st48{fill:#27374B;}
	.st49{fill:#2A3A53;}
	.st50{fill:#EED339;}
	.st51{fill:#4580DA;}
	.st52{fill:#05E9D0;}
	.st53{fill:#04E9D0;}
	.st54{fill:#555656;}
	.st55{fill:#1B314F;}
	.st56{fill:url(#路径_405_00000025425457125713604690000004285435854857612931_);}
	.st57{fill:url(#路径_407_00000113319680522702014830000004157208119053906327_);}
	.st58{fill:url(#路径_409_00000152986656502485236470000000152973924355406503_);}
	.st59{fill:url(#路径_415_00000121996688755910620640000003787308439217626043_);}
	.st60{fill:url(#路径_416_00000118378184171624550760000013214762068066984583_);}
	.st61{fill:url(#路径_417_00000052791198426964263860000010460862857123272333_);}
	.st62{fill:#DD471D;}
	.st63{fill:#16191C;}
	.st64{fill:#F4C034;}
	.st65{fill:#060001;}
	.st66{fill:#F8E19A;}
	.st67{fill:#1C1C1C;}
	.st68{fill:#181818;}
	.st69{fill:#498EB7;}
	.st70{fill:#4A8EB6;}
	.st71{fill:url(#SVGID_1_);}
	.st72{fill:#FDD333;}
	.st73{fill:url(#SVGID_00000166643795880148576110000013541153567969510554_);}
	.st74{fill:url(#SVGID_00000035496565674137799990000012526168319486395044_);}
	.st75{fill:url(#SVGID_00000008116728856350018010000012736407794073876125_);}
	.st76{fill:url(#SVGID_00000083768414858082196500000002100095936160448690_);}
	.st77{fill:url(#SVGID_00000158730632799246183780000016410349182540738451_);}
	.st78{fill:url(#SVGID_00000093883359244424571160000003753472643967105701_);}
	.st79{fill:url(#SVGID_00000015318970367864142110000004192431540256634241_);}
	.st80{fill:url(#SVGID_00000151536860435164263160000006864127398235801003_);}
	.st81{fill:url(#SVGID_00000078756170901688196560000016837128961678679969_);}
	.st82{fill:url(#SVGID_00000024707258938757424440000000068304592263417779_);}
	.st83{fill:url(#SVGID_00000016758775544501869520000014480495527983455671_);}
	.st84{fill:url(#SVGID_00000078024113140092071860000009424800294365737349_);}
	.st85{fill:url(#SVGID_00000109022025092600747970000002012635640649957519_);}
	.st86{fill:url(#SVGID_00000057834518610214004300000009322161809944221610_);}
	.st87{fill:url(#SVGID_00000058579087450514344890000018131639789263057549_);}
	.st88{fill:#3E81C3;}
	.st89{fill:#3E82C3;}
	.st90{fill:#3F82C3;}
	.st91{fill:#3D81C3;}
	.st92{fill:#3F82C4;}
	.st93{fill:#3B80C3;}
	.st94{fill:url(#SVGID_00000026858954500835462910000016169589331020079507_);}
	.st95{fill:#2980FE;}
	.st96{fill:#222323;}
	.st97{fill:#F2E591;}
	.st98{fill:#91C34B;}
	.st99{fill:#15954C;}
	.st100{fill:#626466;}
	.st101{fill:#010101;}
	.st102{fill:#020202;}
	.st103{fill:url(#SVGID_00000038381882251554449420000007839482363899437708_);}
	.st104{fill:url(#SVGID_00000137105878549164324360000006013656596647190937_);}
	.st105{fill:url(#SVGID_00000036215778902256848490000009097715897720116887_);}
	.st106{fill:url(#SVGID_00000118386380403246335290000011161182458684306352_);}
	.st107{fill:url(#SVGID_00000029030992447734335900000012048483266897193615_);}
	.st108{fill:url(#SVGID_00000067207372627819064030000014908586465439287974_);}
	.st109{fill:url(#SVGID_00000178885158626146243920000015694673558886645920_);}
	.st110{fill:url(#SVGID_00000014597705037694188390000001104380929180639918_);}
	.st111{fill:url(#SVGID_00000080899113900899941780000014650153338394629814_);}
	.st112{fill:url(#SVGID_00000110445763715532596320000001040264216738641075_);}
	.st113{fill:url(#SVGID_00000073715486746705204400000018194039356214939833_);}
	.st114{fill:#163060;}
	.st115{fill-rule:evenodd;clip-rule:evenodd;fill:#FFFFFF;}
	.st116{fill-rule:evenodd;clip-rule:evenodd;fill:#16305E;}
	.st117{fill-rule:evenodd;clip-rule:evenodd;fill:url(#SVGID_00000073696163753832481530000010383486893625074358_);}
	.st118{fill-rule:evenodd;clip-rule:evenodd;fill:url(#SVGID_00000103971046837065219570000008987453345995106473_);}
	.st119{fill:url(#SVGID_00000129187198540584509190000017748635750061208480_);}
	.st120{fill:url(#SVGID_00000152970217220005802420000017051720209470696858_);}
	.st121{fill:url(#SVGID_00000015324810731022003520000014362365527627996335_);}
	.st122{fill:url(#SVGID_00000129919851708099135150000003152492520166001826_);}
	.st123{fill:url(#SVGID_00000057832617865211546290000014943463819025463950_);}
	.st124{fill:url(#SVGID_00000099652276786620832950000017760480522092941733_);}
	.st125{fill:url(#SVGID_00000065037612735426602510000010424315213285043091_);}
	.st126{fill:url(#SVGID_00000064342083533947376020000018240557310402869400_);}
	.st127{fill:url(#SVGID_00000165923228812263593810000005525426131291466159_);}
	.st128{fill:#191F4D;}
	.st129{fill:#4382FF;}
	.st130{fill:#3772FF;}
</style>
<g>
	<g>
		<path class="st129" d="M112.4,40.2H110l4.5-10.6h-3.3l0.8-1.9h9.1l-0.8,1.9h-3.3L112.4,40.2z"/>
		<path class="st129" d="M131.5,30.9l-6.7,9.3H123l1.1-6.5l-4.4,6.5h-1.9l1.1-9.3h2.2l-0.8,6.2l4.2-6.2h1.9l-1,6.2l4.4-6.2H131.5z"
			/>
		<path class="st129" d="M135.5,29.9h-2.1l0.9-2.2h2.1L135.5,29.9z M131.1,40.2H129l3.9-9.3h2.1L131.1,40.2z"/>
		<path class="st129" d="M138.6,38.6l-0.7,1.6c-0.7,0.1-1.2,0.2-1.5,0.2c-0.6,0-1-0.1-1.3-0.3c-0.3-0.2-0.5-0.5-0.5-0.9
			c0-0.4,0.1-1,0.5-1.8l2-4.8H136l0.7-1.6h1.3l1.2-2.4l1.8-0.2l-1.1,2.6h1.9l-0.7,1.6h-1.9l-1.9,4.5c-0.2,0.6-0.3,1-0.2,1.2
			s0.5,0.3,1.1,0.3C138.3,38.6,138.5,38.6,138.6,38.6z"/>
		<path class="st129" d="M144.7,38.6l-0.7,1.6c-0.7,0.1-1.2,0.2-1.5,0.2c-0.6,0-1-0.1-1.3-0.3c-0.3-0.2-0.5-0.5-0.5-0.9
			c0-0.4,0.1-1,0.5-1.8l2-4.8H142l0.7-1.6h1.3l1.2-2.4l1.8-0.2l-1.1,2.6h1.9l-0.7,1.6h-1.9l-1.9,4.5c-0.2,0.6-0.3,1-0.2,1.2
			s0.5,0.3,1.1,0.3C144.4,38.6,144.5,38.6,144.7,38.6z"/>
		<path class="st129" d="M152.7,37.3l1.8,0.3c-0.6,0.8-1.4,1.5-2.3,2.1c-0.9,0.5-2,0.8-3,0.8c-1.3,0-2.1-0.4-2.6-1.3
			c-0.4-0.9-0.3-2,0.3-3.5c0.6-1.4,1.5-2.6,2.7-3.5c1.2-0.9,2.4-1.4,3.8-1.4c1.3,0,2.2,0.5,2.5,1.4c0.3,0.9,0.2,2.1-0.4,3.5
			l-0.1,0.2H149c-0.3,0.6-0.4,1.1-0.5,1.5s0.1,0.7,0.3,1c0.2,0.3,0.6,0.4,1.2,0.4C151,38.8,151.9,38.3,152.7,37.3z M153.7,34.5
			c0.3-0.7,0.3-1.2,0.1-1.6c-0.2-0.4-0.6-0.6-1.2-0.6c-0.6,0-1.1,0.2-1.7,0.6c-0.6,0.4-1,1-1.4,1.7H153.7z"/>
		<path class="st129" d="M157.5,40.2h-2.1l3.9-9.3h1.9l-0.9,2.2c0.6-0.9,1.3-1.5,1.9-1.9c0.6-0.4,1.2-0.6,1.7-0.6c0.1,0,0.2,0,0.3,0
			l-1,2.3c-1.1,0-1.9,0.3-2.6,1c-0.6,0.7-1.1,1.3-1.4,2L157.5,40.2z"/>
	</g>
	<g>
		<circle class="st130" cx="83.3" cy="33.5" r="17.5"/>
		<path class="st26" d="M86.4,25.7L86.4,25.7c-1.4,0-2.7,1-3.1,2.3l0,0h2.4L86.4,25.7z"/>
		<path class="st26" d="M82.5,23.1L82.5,23.1c-1.4,0-2.7,0.9-3.2,2.3L78.6,28H81L82.5,23.1z"/>
		<path class="st72" d="M94.1,32.3c0.3-1.8-0.7-3.2-2.5-3.5c-0.1,0-0.2,0-0.3,0H88v2.4l2.4,0c0.3,0,0.7,0.1,0.9,0.3
			c0.5,0.4,0.5,1,0,1.6c-0.4,0.5-0.9,0.9-1.6,0.9c-0.7,0-1.6,0-2.5,0c-1.5,0-2.8,1-3.2,2.4c0,0,0,0,0,0.1c0.6,0,1,0,1.5,0
			c1.2,0,2.4,0,3.7,0c0.7,0,1.1,0.5,1,1.3c-0.2,0.8-1,1.5-1.8,1.5c-0.7,0-1.6,0-2.5,0c-1.5,0-2.8,0.9-3.2,2.3c0,0,0,0.1,0,0.1
			c0.2,0,0.3,0,0.4,0c1.4,0,2.9,0,4.3,0c2.1,0,3.6-0.9,4.7-2.7c0.6-1,0.9-2.2,0.4-3.4c-0.1-0.1-0.1-0.3-0.2-0.4
			C93.2,34.4,93.8,33.5,94.1,32.3z"/>
		<path class="st26" d="M85.2,31.2c0,0-0.1,0-0.1,0C85.1,31.2,85.2,31.2,85.2,31.2z"/>
		<path class="st26" d="M81.9,28.8c-2.1,0-4.1,0-6.2,0c-1.5,0-2.8,1-3.2,2.4c0,0,0,0,0,0h1.8h3.5C76.9,34.7,75,41.7,75,41.7
			c1.4,0.1,2.7-0.9,3-2.2c0.4-1.5,0.9-3.4,1.3-4.6c0.3-1.1,0.6-2.2,0.8-3.2c0.1-0.2,0.1-0.3,0.3-0.4h2c-0.5,2-1.1,4-1.6,6h0
			c-0.4,1.5-1.8,6.7-1.8,6.7h0c1.3,0.2,2.6-0.7,3-2c0.5-1.7,1.1-3.9,1.3-4.7l0,0c0.2-0.8,0.4-1.6,0.6-2.4c0.3-1.1,0.6-2.2,0.8-3.2
			c0.1-0.2,0.1-0.3,0.3-0.4c0,0,0.1,0,0.1,0c0,0,0,0,0,0c0.6,0,1.6,0,2.6,0c1.3,0,2.4-0.9,2.7-2.1c0,0,0,0,0,0
			c0-0.1,0.1-0.3,0.1-0.3S86.3,28.8,81.9,28.8z"/>
	</g>
</g>
</svg>
