<?xml version="1.0" encoding="utf-8"?>
<!-- Generator: Adobe Illustrator 26.0.0, SVG Export Plug-In . SVG Version: 6.00 Build 0)  -->
<svg version="1.1" id="图层_1" xmlns="http://www.w3.org/2000/svg" xmlns:xlink="http://www.w3.org/1999/xlink" x="0px" y="0px"
	 viewBox="0 0 230 67" style="enable-background:new 0 0 230 67;" xml:space="preserve">
<style type="text/css">
	.st0{fill:#F1AE4B;}
	.st1{fill:#7124F0;}
	.st2{fill-rule:evenodd;clip-rule:evenodd;fill:#7124F0;}
	.st3{fill:#593B81;}
	.st4{fill:#63C3EF;}
	.st5{fill:#E74989;}
	.st6{fill:#4A4397;}
	.st7{fill:#F2CB3C;}
	.st8{fill:#6F4122;}
	.st9{fill:#0A0607;}
	.st10{fill:#090505;}
	.st11{fill:#070303;}
	.st12{fill:#080505;}
	.st13{fill:#070404;}
	.st14{fill:#CE9058;}
	.st15{fill:#F3D596;}
	.st16{fill:#713B1D;}
	.st17{fill:#713A1C;}
	.st18{fill:none;}
	.st19{fill:#222127;}
	.st20{fill:#F0B81D;}
	.st21{fill:#F2C106;}
	.st22{fill:#479BD5;}
	.st23{fill:#F4D546;}
	.st24{fill:#8B6CAE;}
	.st25{fill:#E74583;}
	.st26{fill:#FFFFFF;}
	.st27{fill:#20324F;}
	.st28{fill:#1D314F;}
	.st29{fill:#1C314F;}
	.st30{fill:#1E314F;}
	.st31{fill:#222D40;}
	.st32{fill:#F9FBFB;}
	.st33{fill:#F8FAFB;}
	.st34{fill:#CF2326;}
	.st35{fill:#95A5C2;}
	.st36{fill:#94A5C2;}
	.st37{fill:#92A3C1;}
	.st38{fill:#CB2428;}
	.st39{fill:#B52A32;}
	.st40{fill:#D72123;}
	.st41{fill:#2D3C55;}
	.st42{fill:#F1F5F7;}
	.st43{fill:#C3272C;}
	.st44{fill:#C8252A;}
	.st45{fill:#DDEAF3;}
	.st46{fill:#E9F0F7;}
	.st47{fill:#962D3B;}
	.st48{fill:#27374B;}
	.st49{fill:#2A3A53;}
	.st50{fill:#EED339;}
	.st51{fill:#4580DA;}
	.st52{fill:#05E9D0;}
	.st53{fill:#04E9D0;}
	.st54{fill:#555656;}
	.st55{fill:#1B314F;}
	.st56{fill:url(#路径_405_00000134229621234488993880000014730514748156635070_);}
	.st57{fill:url(#路径_407_00000146467841046687696900000003293398263222860178_);}
	.st58{fill:url(#路径_409_00000056386523601232766040000001297223284104202431_);}
	.st59{fill:url(#路径_415_00000108291946264823418430000005165742758980044168_);}
	.st60{fill:url(#路径_416_00000062192754173901685250000003161378809268615589_);}
	.st61{fill:url(#路径_417_00000119101408523957830470000001492225096879595924_);}
	.st62{fill:#DD471D;}
	.st63{fill:#16191C;}
	.st64{fill:#F4C034;}
	.st65{fill:#060001;}
	.st66{fill:#F8E19A;}
	.st67{fill:#1C1C1C;}
	.st68{fill:#181818;}
	.st69{fill:#498EB7;}
	.st70{fill:#4A8EB6;}
	.st71{fill:#1D9BF0;}
	.st72{fill:url(#路径_206_00000094589924672078489820000009451098897103429508_);}
	.st73{fill:url(#路径_207_00000056419814050330314590000009821121330494925203_);}
	.st74{fill:url(#路径_208_00000072987053982937525000000002208337104458736264_);}
	.st75{fill:url(#路径_209_00000122689390086717918610000003202631357546418566_);}
	.st76{fill:#FDD333;}
</style>
<g>
	<path class="st8" d="M42.5,27.3c0.9,0,1.8,0,2.8,0c0-1.4,0-2.8,0-4.2c0.1-1.5,0.9-2.6,2.3-3.1c1.3-0.5,2.8-0.1,3.7,0.9
		c0.8,0.9,1,2,0.8,3.1c-0.3,1.3-0.6,2.6-0.7,4c0,0.3,0.2,0.8,0.5,1c0.4,0.3,0.9,0.5,1.3,0.8c5,2.9,5,10.7-0.4,13.6
		c-5.8,3.1-11.6,3.1-17.4,0.2c-2.5-1.3-4.2-3.4-4.3-6.5c-0.2-3.5,1.3-6,4.3-7.6c0.4-0.2,0.8-0.5,1.3-0.7c-0.3-1.8-0.7-3.5-0.9-5.2
		c-0.2-1.5,0.6-2.8,1.9-3.4c1.2-0.6,2.9-0.5,3.8,0.6c0.6,0.7,0.9,1.6,1.1,2.5c0.2,0.6,0,1.3,0,2C42.5,25.8,42.5,26.5,42.5,27.3z
		 M55.6,36.6c0.3-4.1-2.5-5.9-5.7-7.3c0.1-0.5,0.2-1,0.2-1.4c0.3-1.5,0.6-2.9,0.8-4.4c0.2-1.6-0.7-2.6-2.2-2.7
		c-1.5,0-2.4,0.9-2.4,2.5c0,1.7,0,3.4,0,5.1c-1.8,0-3.4,0-5.1,0c0-1.8,0-3.4,0-5.1c0-1.5-1-2.5-2.4-2.4c-1.4,0.1-2.3,1.1-2.1,2.6
		c0.1,1.3,0.4,2.5,0.6,3.7c0.4,2.1,0.4,2.1-1.5,3.1c-2.4,1.3-4,3.2-3.8,6.2c-0.3,2.3,0.7,4,2.4,5.3c4.7,3.6,13.3,3.7,18.2,0.3
		C54.7,40.7,55.7,39,55.6,36.6z"/>
	<path class="st9" d="M66.4,35.5c0,1,0,1.9,0,2.9c0,0.9-0.3,1.3-1.2,1.3c-2.9,0.1-2.9,0.1-2.9-2.7c0-3.1,0-6.3,0-9.4
		c0-1.4,0.2-1.6,1.6-1.5c2.1,0,4.3,0,6.4,0.2c2.4,0.3,3.6,1.9,3.5,4.5c0,2.6-1.2,4.1-3.6,4.5C69,35.4,67.7,35.4,66.4,35.5z
		 M66.4,32.5c1.1-0.1,2.3,0.5,3-0.7c0.3-0.6,0.3-1.5,0-2.1c-0.7-1.1-1.9-0.6-2.9-0.7C66.4,30.2,66.4,31.3,66.4,32.5z"/>
	<path class="st10" d="M191.2,39.6c0,1.1,0,2.1,0,3.1c0,0.8-0.4,1.1-1.1,1.1c-2.8,0.1-2.8,0.1-2.8-2.7c0-3,0-6,0-9
		c0-0.7,0.2-1.1,0.8-1.4c2.1-1,4.4-1.2,6.7-0.7c3,0.7,4.4,3.3,3.6,6.5c-0.7,2.7-3.3,4.1-6.1,3.3C191.9,39.7,191.6,39.7,191.2,39.6z
		 M194.4,34.6c0-0.2-0.1-0.7-0.3-1.1c-0.3-0.8-1.5-1.3-2.4-0.8c-0.3,0.1-0.4,0.9-0.5,1.3c-0.1,0.7-0.1,1.3,0,2
		c0.1,0.9,0.6,1.3,1.5,1.3C193.8,37.3,194.4,36.4,194.4,34.6z"/>
	<path class="st10" d="M156.5,29.3c-1.5-0.2-2.7-0.5-4-0.5c-0.4,0-1.1,0.5-1.1,0.9c-0.1,0.4,0.3,1.1,0.7,1.3c1,0.6,2.2,0.9,3.3,1.4
		c2,1,2.8,2.3,2.5,4.3c-0.2,1.7-1.5,2.9-3.6,3.2c-2.3,0.3-4.5,0.2-6.7-0.8c-0.9-0.4-1.2-0.8-0.6-1.8c0.6-1,1.1-1.3,2.2-0.8
		c1,0.4,2.2,0.5,3.3,0.5c0.4,0,1.1-0.5,1.2-0.9c0.1-0.4-0.4-1.1-0.8-1.3c-1.3-0.7-2.7-1.2-4-2c-1.6-0.9-2-2.2-1.7-4
		c0.3-1.4,1.2-2.3,2.4-2.7c2.3-0.8,4.6-0.6,6.9,0.3c0.9,0.4,1.3,0.9,0.5,1.8C156.9,28.6,156.6,29.1,156.5,29.3z"/>
	<path class="st11" d="M127.4,33.5c0.7-0.9,1.4-1.9,2.1-2.7c0.4-0.4,0.9-0.6,1.5-0.7c0.6-0.1,1.3-0.1,1.9,0c0.4,0,0.8,0.2,1.1,0.2
		c-0.2,0.3-0.3,0.7-0.5,1c-1,1.1-1.9,2.3-3,3.4c1.2,1.6,2.7,3,3.8,4.7c-0.1,0.1-0.2,0.2-0.2,0.3c-1.2,0-2.4,0-3.6,0
		c-0.3,0-0.6-0.3-0.8-0.5c-0.8-1-1.6-2.1-2.6-3c0,0.7,0,1.4,0,2.1c0,0.3,0.1,0.7-0.1,0.9c-0.7,1.2-2,0.5-2.9,0.6
		c-0.7,0.1-1.1-0.3-1.1-1c0-3.9,0-7.8,0-11.7c0-0.7,0.4-1,1-1c3.4,0,3-0.3,3,2.7c0,1.5,0,3,0,4.5C127.2,33.3,127.3,33.3,127.4,33.5z
		"/>
	<path class="st12" d="M163.6,34.9c0.5-1.2,0.8-2.1,1.1-3.1c0.2-0.7,0.5-1.1,1.3-1c0.8,0.1,1.4,0,1.6,1c0.2,0.9,0.7,1.8,1.2,2.7
		c0.3-1.2,0.6-2.4,0.9-3.6c0.2-0.7,0.5-1.1,1.3-1c0.8,0.1,1.6,0,2.6,0c-0.5,1.8-1,3.4-1.5,5.1c-0.4,1.2-0.8,2.4-1.1,3.6
		c-0.2,0.7-0.5,1-1.2,1c-2.5-0.1-1.9,0.3-2.7-1.9c-0.3-0.6-0.5-1.3-0.8-2.2c-0.4,1.1-0.8,1.9-1,2.8c-0.3,1.1-0.9,1.5-1.9,1.3
		c-0.3,0-0.6,0.1-0.9,0c-0.3-0.1-0.7-0.4-0.8-0.7c-0.9-2.9-1.8-5.8-2.7-9c1.2,0,2.2-0.1,3.2,0c0.2,0,0.6,0.5,0.6,0.9
		C162.9,32.2,163.2,33.4,163.6,34.9z"/>
	<path class="st10" d="M81.9,39.1c-0.9,0.3-1.7,0.7-2.5,0.8c-2.4,0.3-4-0.6-4.7-2.5c-0.9-2.5-0.1-5.4,2-6.6c2.7-1.6,5.6-1.4,8.3,0
		c0.2,0.1,0.4,0.6,0.4,0.9c0,2.4,0,4.7,0,7.1c0,0.7-0.3,1-1,1C82.5,39.8,82.5,39.8,81.9,39.1z M81.7,32.6c-1.1-0.3-2-0.2-2.7,0.6
		c-0.7,0.9-0.8,1.9-0.5,3c0.3,0.9,1,1.1,1.9,1c0.8-0.1,1.3-0.6,1.3-1.4C81.7,34.8,81.7,33.8,81.7,32.6z"/>
	<path class="st11" d="M117.9,39.1c-0.9,0.3-1.6,0.7-2.5,0.8c-2.4,0.3-4.2-0.6-4.8-2.5c-0.9-2.6,0-5.5,2.2-6.7
		c2.7-1.5,5.5-1.2,8.2,0.1c0.2,0.1,0.4,0.6,0.4,0.9c0,2.4,0,4.7,0,7.1c0,0.7-0.2,1.1-1,1C119.5,39.6,118.4,40.2,117.9,39.1z
		 M117.6,32.6c-1.1-0.3-2.1-0.2-2.7,0.7c-0.7,0.9-0.8,2-0.4,3.1c0.3,0.8,1,0.9,1.8,0.8c0.8-0.1,1.3-0.6,1.3-1.4
		C117.7,34.8,117.6,33.8,117.6,32.6z"/>
	<path class="st12" d="M182,39.1c-1,0.3-1.8,0.7-2.7,0.8c-2.4,0.3-3.9-0.6-4.6-2.5c-0.9-2.4-0.1-5.2,1.8-6.6
		c2.1-1.5,6.4-1.6,8.5-0.1c0.2,0.2,0.4,0.6,0.4,0.9c0,2.4,0,4.7,0,7.1c0,0.7-0.3,1-1,1C182.5,39.8,182.5,39.8,182,39.1z M181.7,32.6
		c-1.1-0.2-2-0.2-2.7,0.6c-0.7,0.9-0.8,2-0.5,3.1c0.3,0.9,1,1,1.8,0.9c0.8-0.1,1.3-0.5,1.3-1.4C181.7,34.8,181.7,33.7,181.7,32.6z"
		/>
	<path class="st13" d="M90.8,30.8c1.2-0.9,2.6-1.1,4.1-1c1.7,0.2,2.8,1.4,2.9,3c0.1,1.9,0,3.9,0,5.8c0,0.1,0,0.3-0.1,0.4
		c-0.8,1.2-2.1,0.4-3.1,0.6c-0.7,0.1-0.9-0.5-0.9-1.1c0-1.5,0-3.1,0-4.6c0-0.8-0.1-1.4-1.1-1.4c-1,0-1.3,0.6-1.3,1.5
		c0,1.5,0,3,0,4.5c0,0.9-0.4,1.2-1.3,1.3c-2.8,0.1-2.8,0.1-2.8-2.7c0-1.9,0-3.8,0-5.7c0-0.4,0.1-0.8,0.1-1.3
		C88.5,30.3,89.8,29.4,90.8,30.8z"/>
	<path class="st12" d="M138.7,35.7c0.1,1.9,2,2.3,5.5,1.1c0.3,0.6,0.7,1.2,1,1.9c-3,2.7-9.3,1.4-10.2-2.1c-1-3.7,0.9-6.6,4.6-6.7
		c1,0,2,0,3,0.3c2.1,0.5,3.3,2.4,3.3,4.5c0,0.8-0.4,1.1-1.2,1.1C142.6,35.7,140.6,35.7,138.7,35.7z M142.1,33.6
		c-0.1-1.2-0.8-1.6-1.9-1.5c-0.9,0-1.6,0.4-1.7,1.5C139.8,33.6,140.9,33.6,142.1,33.6z"/>
	<path class="st12" d="M108.1,36.4c0.5,0.8,0.9,1.5,1.2,2.2c-2.2,2.1-7.3,1.9-9.2-0.2c-2-2.2-1.4-6.3,1.2-7.7c2.3-1.3,4.7-1.2,7-0.2
		c0.8,0.3,1.1,0.8,0.5,1.5c-0.1,0.2-0.2,0.4-0.3,0.6c-0.3,0.7-0.7,0.9-1.4,0.4c-0.2-0.2-0.5-0.3-0.8-0.4c-1.2-0.3-2.3,0-2.8,0.8
		c-0.5,0.8-0.5,2.2,0,3c0.5,0.8,1.7,1.1,2.8,0.8C106.9,37,107.4,36.7,108.1,36.4z"/>
	<path class="st14" d="M32.2,36.4c-0.2-3,1.4-4.8,3.8-6.2c1.9-1,1.9-1,1.5-3.1c-0.2-1.2-0.5-2.5-0.6-3.7c-0.2-1.5,0.7-2.5,2.1-2.6
		c1.5-0.1,2.4,0.9,2.4,2.4c0,1.7,0,3.4,0,5.1c1.7,0,3.2,0,5.1,0c0-1.7,0-3.4,0-5.1c0-1.6,0.9-2.5,2.4-2.5c1.4,0,2.3,1.1,2.2,2.7
		c-0.2,1.5-0.5,2.9-0.8,4.4c-0.1,0.5-0.2,0.9-0.2,1.4c3.2,1.4,6,3.2,5.7,7.3c-1.6,3.5-4.5,5.1-8.1,5.6c-2.2,0.3-4.5,0.5-6.7,0.1
		C37.1,41.8,33.7,40.4,32.2,36.4z M49.6,35c0-1.2-0.5-2-1.4-1.9c-0.7,0-1.4,1.1-1.3,2.1c0.1,0.9,0.3,1.8,1.4,1.9
		C49.1,37.1,49.6,36.1,49.6,35z M40.6,35c0-1-0.6-1.9-1.3-1.9c-0.7,0-1.4,0.9-1.4,2c0,1,0.6,1.9,1.3,1.9C40,37,40.7,36,40.6,35z"/>
	<path class="st15" d="M32.2,36.4c1.5,4,4.9,5.4,8.6,6c2.2,0.3,4.5,0.2,6.7-0.1c3.5-0.5,6.5-2.1,8.1-5.6c0.1,2.4-1,4.1-2.9,5.4
		c-4.8,3.4-13.5,3.3-18.2-0.3C32.9,40.4,31.9,38.7,32.2,36.4z"/>
	<path class="st16" d="M49.6,35c0,1.2-0.6,2.1-1.3,2c-1.1-0.1-1.3-1-1.4-1.9c-0.1-1,0.6-2,1.3-2.1C49.1,33,49.6,33.7,49.6,35z"/>
	<path class="st17" d="M40.6,35c0,1.1-0.6,2-1.4,2C38.6,36.9,38,36,38,35c0-1.1,0.6-2,1.4-2C40,33,40.6,33.9,40.6,35z"/>
	<rect x="27" y="15.7" class="st18" width="176" height="35.6"/>
</g>
</svg>
