<?xml version="1.0" encoding="utf-8"?>
<!-- Generator: Adobe Illustrator 26.0.0, SVG Export Plug-In . SVG Version: 6.00 Build 0)  -->
<svg version="1.1" id="图层_1" xmlns="http://www.w3.org/2000/svg" xmlns:xlink="http://www.w3.org/1999/xlink" x="0px" y="0px"
	 viewBox="0 0 230 67" style="enable-background:new 0 0 230 67;" xml:space="preserve">
<style type="text/css">
	.st0{fill:#F1AE4B;}
	.st1{fill:#7124F0;}
	.st2{fill-rule:evenodd;clip-rule:evenodd;fill:#7124F0;}
	.st3{fill:#593B81;}
	.st4{fill:#63C3EF;}
	.st5{fill:#E74989;}
	.st6{fill:#4A4397;}
	.st7{fill:#F2CB3C;}
	.st8{fill:#6F4122;}
	.st9{fill:#0A0607;}
	.st10{fill:#090505;}
	.st11{fill:#070303;}
	.st12{fill:#080505;}
	.st13{fill:#070404;}
	.st14{fill:#CE9058;}
	.st15{fill:#F3D596;}
	.st16{fill:#713B1D;}
	.st17{fill:#713A1C;}
	.st18{fill:none;}
	.st19{fill:#222127;}
	.st20{fill:#F0B81D;}
	.st21{fill:#F2C106;}
	.st22{fill:#479BD5;}
	.st23{fill:#F4D546;}
	.st24{fill:#8B6CAE;}
	.st25{fill:#E74583;}
	.st26{fill:#FFFFFF;}
	.st27{fill:#20324F;}
	.st28{fill:#1D314F;}
	.st29{fill:#1C314F;}
	.st30{fill:#1E314F;}
	.st31{fill:#222D40;}
	.st32{fill:#F9FBFB;}
	.st33{fill:#F8FAFB;}
	.st34{fill:#CF2326;}
	.st35{fill:#95A5C2;}
	.st36{fill:#94A5C2;}
	.st37{fill:#92A3C1;}
	.st38{fill:#CB2428;}
	.st39{fill:#B52A32;}
	.st40{fill:#D72123;}
	.st41{fill:#2D3C55;}
	.st42{fill:#F1F5F7;}
	.st43{fill:#C3272C;}
	.st44{fill:#C8252A;}
	.st45{fill:#DDEAF3;}
	.st46{fill:#E9F0F7;}
	.st47{fill:#962D3B;}
	.st48{fill:#27374B;}
	.st49{fill:#2A3A53;}
	.st50{fill:#EED339;}
	.st51{fill:#4580DA;}
	.st52{fill:#05E9D0;}
	.st53{fill:#04E9D0;}
	.st54{fill:#555656;}
	.st55{fill:#1B314F;}
	.st56{fill:url(#路径_405_00000065790422926189259660000013804952759423103630_);}
	.st57{fill:url(#路径_407_00000046322423119000870210000006647077469242019751_);}
	.st58{fill:url(#路径_409_00000137827946497134324880000005384816507815945151_);}
	.st59{fill:url(#路径_415_00000003071258239458635210000013183928373352159123_);}
	.st60{fill:url(#路径_416_00000132074596162343601480000010456531242343065732_);}
	.st61{fill:url(#路径_417_00000075156413234943667320000006636130043489531576_);}
	.st62{fill:#DD471D;}
	.st63{fill:#16191C;}
	.st64{fill:#F4C034;}
	.st65{fill:#060001;}
	.st66{fill:#F8E19A;}
	.st67{fill:#1C1C1C;}
	.st68{fill:#181818;}
	.st69{fill:#498EB7;}
	.st70{fill:#4A8EB6;}
	.st71{fill:#1D9BF0;}
	.st72{fill:url(#路径_206_00000117667329867108071510000002439174046367012796_);}
	.st73{fill:url(#路径_207_00000021829613702737872170000006758966034142727594_);}
	.st74{fill:url(#路径_208_00000085249957500917797810000000788054374595234993_);}
	.st75{fill:url(#路径_209_00000159441049950156779000000008307421738747813770_);}
	.st76{fill:#FDD333;}
</style>
<g>
	<g>
		<path class="st0" d="M40.4,33.9c0.1-1.1,0-2.2,0.2-3.3c0.3-1.3,1.3-1.9,2.6-2.2c0.1,0,0.1,0,0.2,0c4.1,0,8.3,0,12.4-0.1
			c1.7,0,1.7,0,1.8-1.8c0-0.1,0.1-0.1,0.1-0.1c1,0,2,0,3.1,0c0.1,0,0.1,0.1,0.1,0.1c0,0.6,0,1.2,0,1.8c0,0,0,0.1,0,0.2
			c-0.3,2.1-1.5,3.1-3.6,3.1c-2,0-2,0-2,1.9c0,2.3,0,4.7,0,7c0,0.3,0,2.6,0,2.8c0,0,0,0,0,0L52,44.7c0,0-0.1,0-0.1,0V31.9
			c0-0.1-0.1-0.1-0.1-0.1h-2.3c-0.1,0-0.1,0.1-0.1,0.1c0,0,0,11.4,0,11.6c0,0,0,0,0,0L46,44.7c0,0-0.1,0,0,0c0-0.2,0-10.7,0-12.8
			c0-0.1-0.1-0.1-0.1-0.1l-2,0c-0.1,0-0.1,0.1-0.1,0.1c0,0.7,0,1.3,0,2c0,0.1-0.1,0.1-0.1,0.1c-1,0-2.1,0-3.1,0
			C40.4,34,40.4,33.9,40.4,33.9z"/>
		<path class="st0" d="M55.2,24.1c0,0.8,0,1.6,0,2.3c0,0.1-0.1,0.2-0.2,0.2c-1,0-2,0-2.9,0c-0.1,0-0.2-0.1-0.2-0.2
			c0-0.8,0-1.6,0-2.3c0-0.1,0.1-0.2,0.2-0.2c1,0,1.9,0,2.9,0C55.1,23.9,55.2,24,55.2,24.1z"/>
		<path class="st0" d="M49.3,24.1c0,0.8,0,1.6,0,2.3c0,0.1-0.1,0.2-0.2,0.2c-1,0-2,0-2.9,0c-0.1,0-0.2-0.1-0.2-0.2
			c0-0.8,0-1.6,0-2.3c0-0.1,0.1-0.2,0.2-0.2c1,0,1.9,0,2.9,0C49.2,23.9,49.3,24,49.3,24.1z"/>
	</g>
	<g>
		<path class="st0" d="M50.8,50.6c-9.4,0-17.1-7.7-17.1-17.1c0-9.4,7.7-17.1,17.1-17.1s17.1,7.7,17.1,17.1
			C67.9,42.9,60.2,50.6,50.8,50.6z M50.8,18c-8.6,0-15.5,7-15.5,15.5S42.2,49,50.8,49s15.5-7,15.5-15.5S59.3,18,50.8,18z"/>
	</g>
	<g>
		<path class="st0" d="M81.7,35.8v6.9h-2.2V26.3h7.4c1.5,0,2.7,0.4,3.6,1.3c0.9,0.9,1.3,2,1.3,3.3c0,1.3-0.4,2.4-1.1,3.3
			c-0.9,1.1-2.1,1.6-3.8,1.6H81.7z M81.7,28.2v5.7h4.4c1.1,0,1.9-0.2,2.4-0.6c0.6-0.5,0.9-1.2,0.9-2.3c0-1-0.3-1.7-0.9-2.1
			c-0.5-0.4-1.3-0.6-2.3-0.6H81.7z"/>
		<path class="st0" d="M97.2,28.6h-2v-2.3h2V28.6z M97.2,30.8v12h-2v-12H97.2z"/>
		<path class="st0" d="M119.6,26.3h2.1v16.4l-2.5,0l-8.3-13.3l0,13.3h-2.1V26.3l2.6,0l8.2,13.2L119.6,26.3z"/>
		<path class="st0" d="M134,39h2c-0.1,0.4-0.2,0.9-0.5,1.5c-0.4,0.7-0.9,1.3-1.6,1.8c-0.4,0.3-0.7,0.4-1.1,0.5
			c-0.6,0.2-1.3,0.3-2.1,0.3c-1.6,0-3-0.6-3.9-1.7c-1-1.1-1.4-2.6-1.4-4.3c0-2,0.5-3.5,1.4-4.7c1-1.3,2.5-1.9,4.4-1.9
			c1.7,0,3,0.6,3.8,1.9c0.9,1.2,1.3,2.9,1.3,5.1h-8.7c0,1.3,0.3,2.2,0.9,2.9c0.6,0.7,1.5,1,2.6,1c0.9,0,1.6-0.3,2.3-0.8
			C133.7,40,134,39.5,134,39z M127.5,35.8h6.7c0-1-0.2-1.9-0.7-2.5c-0.6-0.7-1.4-1.1-2.6-1.1c-0.9,0-1.7,0.4-2.3,1.1
			C127.8,34,127.5,34.8,127.5,35.8z"/>
		<path class="st0" d="M143.9,32.4H142v7.8c0,0.4,0.1,0.7,0.4,0.8c0.2,0.1,0.4,0.1,0.8,0.1h0.7v1.6l-1.5,0.2c-0.9,0-1.6-0.2-1.9-0.7
			c-0.3-0.4-0.5-1-0.5-1.8v-7.9h-1.6v-1.7h1.6v-3.3h2v3.3h1.9V32.4z"/>
		<path class="st0" d="M151.1,42.7l-2.1,0l-3.5-12l2.2,0l2.3,9.4l2.4-9.4h2.2l2.3,9.4l2.5-9.4l2,0l-3.5,12l-2.1,0l-2.4-9.3
			L151.1,42.7z"/>
		<path class="st0" d="M163.5,36.7c0-1.7,0.4-3.2,1.3-4.3c1-1.3,2.4-2,4.2-2c1.8,0,3.2,0.7,4.2,2c0.9,1.2,1.3,2.6,1.3,4.3
			c0,1.7-0.4,3.2-1.3,4.3c-1,1.3-2.4,2-4.2,2c-1.8,0-3.2-0.7-4.2-2C164,39.9,163.5,38.4,163.5,36.7z M165.6,36.7
			c0,1.1,0.2,2.1,0.6,2.9c0.6,1.1,1.6,1.7,2.8,1.7c1.3,0,2.2-0.6,2.8-1.7c0.4-0.8,0.7-1.8,0.7-2.9c0-1.1-0.2-2.1-0.6-2.9
			c-0.6-1.1-1.6-1.7-2.8-1.7c-1.3,0-2.2,0.6-2.8,1.7C165.8,34.6,165.6,35.6,165.6,36.7z"/>
		<path class="st0" d="M180.1,35.8v7h-2v-12h1.9v2c0.5-0.8,0.9-1.3,1.4-1.7c0.6-0.4,1.2-0.6,2-0.6c0.2,0,0.4,0,0.5,0.1v2.1h-0.8
			c-0.9,0-1.7,0.3-2.2,0.9C180.4,34.1,180.1,34.8,180.1,35.8z"/>
		<path class="st0" d="M191.5,35.2l4.9,7.5l-2.6,0l-3.7-6l-1.7,1.5v4.5h-1.9V26.3h1.9v9.5l5.1-5.1l2.6,0L191.5,35.2z"/>
	</g>
</g>
</svg>
