<?xml version="1.0" encoding="utf-8"?>
<!-- Generator: Adobe Illustrator 26.0.0, SVG Export Plug-In . SVG Version: 6.00 Build 0)  -->
<svg version="1.1" id="图层_1" xmlns="http://www.w3.org/2000/svg" xmlns:xlink="http://www.w3.org/1999/xlink" x="0px" y="0px"
	 viewBox="0 0 230 67" style="enable-background:new 0 0 230 67;" xml:space="preserve">
<style type="text/css">
	.st0{fill:#F1AE4B;}
	.st1{fill:#7124F0;}
	.st2{fill-rule:evenodd;clip-rule:evenodd;fill:#7124F0;}
	.st3{fill:#593B81;}
	.st4{fill:#63C3EF;}
	.st5{fill:#E74989;}
	.st6{fill:#4A4397;}
	.st7{fill:#F2CB3C;}
	.st8{fill:#6F4122;}
	.st9{fill:#0A0607;}
	.st10{fill:#090505;}
	.st11{fill:#070303;}
	.st12{fill:#080505;}
	.st13{fill:#070404;}
	.st14{fill:#CE9058;}
	.st15{fill:#F3D596;}
	.st16{fill:#713B1D;}
	.st17{fill:#713A1C;}
	.st18{fill:none;}
	.st19{fill:#222127;}
	.st20{fill:#F0B81D;}
	.st21{fill:#F2C106;}
	.st22{fill:#479BD5;}
	.st23{fill:#F4D546;}
	.st24{fill:#8B6CAE;}
	.st25{fill:#E74583;}
	.st26{fill:#FFFFFF;}
	.st27{fill:#20324F;}
	.st28{fill:#1D314F;}
	.st29{fill:#1C314F;}
	.st30{fill:#1E314F;}
	.st31{fill:#222D40;}
	.st32{fill:#F9FBFB;}
	.st33{fill:#F8FAFB;}
	.st34{fill:#CF2326;}
	.st35{fill:#95A5C2;}
	.st36{fill:#94A5C2;}
	.st37{fill:#92A3C1;}
	.st38{fill:#CB2428;}
	.st39{fill:#B52A32;}
	.st40{fill:#D72123;}
	.st41{fill:#2D3C55;}
	.st42{fill:#F1F5F7;}
	.st43{fill:#C3272C;}
	.st44{fill:#C8252A;}
	.st45{fill:#DDEAF3;}
	.st46{fill:#E9F0F7;}
	.st47{fill:#962D3B;}
	.st48{fill:#27374B;}
	.st49{fill:#2A3A53;}
	.st50{fill:#EED339;}
	.st51{fill:#4580DA;}
	.st52{fill:#05E9D0;}
	.st53{fill:#04E9D0;}
	.st54{fill:#555656;}
	.st55{fill:#1B314F;}
	.st56{fill:url(#路径_405_00000070812055130470565370000012010305063244460179_);}
	.st57{fill:url(#路径_407_00000182499542870297607640000007245993910110200448_);}
	.st58{fill:url(#路径_409_00000080170138904843492200000012712612741086159807_);}
	.st59{fill:url(#路径_415_00000137817382964021929440000004474186639297376172_);}
	.st60{fill:url(#路径_416_00000065066904827636961510000018183460165078876849_);}
	.st61{fill:url(#路径_417_00000131327669063854917020000000844770964283744702_);}
	.st62{fill:#DD471D;}
	.st63{fill:#16191C;}
	.st64{fill:#F4C034;}
	.st65{fill:#060001;}
	.st66{fill:#F8E19A;}
	.st67{fill:#1C1C1C;}
	.st68{fill:#181818;}
	.st69{fill:#498EB7;}
	.st70{fill:#4A8EB6;}
	.st71{fill:url(#SVGID_1_);}
	.st72{fill:#FDD333;}
	.st73{fill:url(#SVGID_00000067209510100637812480000007686728927200721815_);}
	.st74{fill:url(#SVGID_00000046308097180665542900000009816913251375343251_);}
	.st75{fill:url(#SVGID_00000047045743357422231000000011146182483483519373_);}
	.st76{fill:url(#SVGID_00000051381683760305186570000003761346599863934130_);}
	.st77{fill:url(#SVGID_00000180358880135161096870000013149862013593157279_);}
	.st78{fill:url(#SVGID_00000016074448642321637080000009400720741217477544_);}
	.st79{fill:url(#SVGID_00000124865566032707855370000004726278907001216655_);}
	.st80{fill:url(#SVGID_00000083778181604026239860000005483736022375669666_);}
	.st81{fill:url(#SVGID_00000096754708894643257190000014844598345111030674_);}
	.st82{fill:url(#SVGID_00000128459337583399631450000016816627738165127356_);}
	.st83{fill:url(#SVGID_00000061473141035486191900000001837303208833967002_);}
	.st84{fill:url(#SVGID_00000045609098720398797990000004026944085827010746_);}
	.st85{fill:url(#SVGID_00000010294332612161946690000002000602854777976202_);}
	.st86{fill:url(#SVGID_00000070821585121008454900000007190312948787952020_);}
	.st87{fill:url(#SVGID_00000054953886993607589610000010128485670644486590_);}
	.st88{fill:url(#SVGID_00000127016011871385170590000003284669707616009900_);}
	.st89{fill:url(#SVGID_00000052808935104648146890000000365118605308781701_);}
	.st90{fill:url(#SVGID_00000173156374505994422360000008052166927903765434_);}
	.st91{fill:url(#SVGID_00000084531316075911743590000003137415432565116810_);}
	.st92{fill:url(#SVGID_00000177458247884711981590000009415583693917498544_);}
	.st93{fill:url(#SVGID_00000132809895539329023810000014254407984523024286_);}
	.st94{fill:url(#SVGID_00000109721276615556029230000003443216264885027495_);}
	.st95{fill:url(#SVGID_00000047037527090799981490000004793073416334597803_);}
	.st96{fill:url(#SVGID_00000095297326115655213110000008845094056846761871_);}
	.st97{fill:#4382FF;}
	.st98{fill:#3772FF;}
	.st99{fill:#FEFEFE;}
	.st100{fill:#3E81C3;}
	.st101{fill:#3E82C3;}
	.st102{fill:#3F82C3;}
	.st103{fill:#3D81C3;}
	.st104{fill:#3F82C4;}
	.st105{fill:#3B80C3;}
	.st106{fill:url(#SVGID_00000165939838308664424900000000887952515049393547_);}
	.st107{fill:#2980FE;}
	.st108{fill:#222323;}
	.st109{fill:#F2E591;}
	.st110{fill:#91C34B;}
	.st111{fill:#15954C;}
	.st112{fill:#626466;}
	.st113{fill:#010101;}
	.st114{fill:#020202;}
	.st115{fill:url(#SVGID_00000018926775214050372100000015604953096407351436_);}
	.st116{fill:url(#SVGID_00000147912436492296355920000004100318307048031628_);}
	.st117{fill:url(#SVGID_00000011725677467239349620000008046657067317211033_);}
	.st118{fill:url(#SVGID_00000101097467854397880450000008222825992615357058_);}
	.st119{fill:url(#SVGID_00000069380476728519213650000010582768602251563147_);}
	.st120{fill:url(#SVGID_00000169552736309181652560000013357961850158914219_);}
	.st121{fill:url(#SVGID_00000053536950989778363020000007726334922330229425_);}
	.st122{fill:url(#SVGID_00000070803122112354145160000015690125099896291515_);}
	.st123{fill:url(#SVGID_00000130623095527301245500000014209756569560964259_);}
	.st124{fill:url(#SVGID_00000170248378261361789030000007972877720660736433_);}
	.st125{fill:url(#SVGID_00000137127497888687454430000004677666822964027833_);}
	.st126{fill:#163060;}
	.st127{fill-rule:evenodd;clip-rule:evenodd;fill:#FFFFFF;}
	.st128{fill-rule:evenodd;clip-rule:evenodd;fill:#16305E;}
	.st129{fill-rule:evenodd;clip-rule:evenodd;fill:url(#SVGID_00000144333791435335070360000009666477016928654496_);}
	.st130{fill-rule:evenodd;clip-rule:evenodd;fill:url(#SVGID_00000144321671990305942440000012544967157724558517_);}
</style>
<g>
	<g>
		<radialGradient id="SVGID_1_" cx="41.9708" cy="33.5" r="18.096" gradientUnits="userSpaceOnUse">
			<stop  offset="0.3708" style="stop-color:#6E3A8C"/>
			<stop  offset="1" style="stop-color:#5E3E89"/>
		</radialGradient>
		<circle class="st71" cx="42" cy="33.5" r="18.1"/>
		<g>
			<g>
				<path id="路径_206_00000170989489747180024320000001570339721821565599_" class="st26" d="M51.7,21.1c-2.4-1.7-5.2-2.8-8.1-3
					c-2.9-0.3-5.8,0.3-8.4,1.5c-0.6,0.3-1.3,0.7-1.9,1.1c-0.6,0.4-1.2,0.8-1.7,1.3c-0.5,0.5-1,1-1.5,1.5c-0.1,0.1-0.2,0.3-0.3,0.4
					c-0.1,0.1-0.2,0.3-0.3,0.4l-0.3,0.4l-0.3,0.5c-1.6,2.5-2.5,5.3-2.6,8.2c-0.1-1.5,0.1-2.9,0.5-4.4c0.1-0.4,0.2-0.7,0.3-1.1
					c0.1-0.3,0.2-0.7,0.4-1c0.3-0.7,0.6-1.3,1-2c0.8-1.3,1.7-2.4,2.8-3.4c0.6-0.5,1.1-1,1.8-1.4c0.6-0.4,1.3-0.8,1.9-1.1
					c1.3-0.7,2.8-1.1,4.2-1.4c0.4-0.1,0.7-0.1,1.1-0.1l0.6,0l0.3,0l0.3,0c0.7,0,1.5,0,2.2,0.1c1.5,0.2,2.9,0.6,4.3,1.1
					c0.7,0.3,1.3,0.6,2,1C50.5,20.2,51.1,20.6,51.7,21.1z"/>
				<path id="路径_207_00000017485322943141007590000011616441827514491806_" class="st26" d="M31.9,45.5c2.3,1.8,5.1,3,8.1,3.4
					c0.7,0.1,1.5,0.1,2.2,0.1c0.7,0,1.5-0.1,2.2-0.2c0.7-0.1,1.4-0.3,2.1-0.5c0.7-0.2,1.4-0.5,2-0.8c2.7-1.2,4.9-3.2,6.6-5.7
					c1.6-2.5,2.5-5.4,2.6-8.4c0,1.5-0.1,3-0.5,4.4c-0.2,0.7-0.4,1.4-0.7,2.1c-0.1,0.4-0.3,0.7-0.5,1c-0.2,0.3-0.4,0.7-0.6,1
					c-0.2,0.3-0.4,0.6-0.6,0.9c-0.2,0.3-0.5,0.6-0.7,0.9c-0.5,0.6-1,1.1-1.6,1.6c-0.6,0.5-1.2,1-1.8,1.4c-0.6,0.4-1.3,0.8-2,1.1
					c-0.7,0.3-1.4,0.6-2.1,0.8c-0.7,0.2-1.5,0.4-2.2,0.5c-1.5,0.2-3,0.2-4.5,0c-0.7-0.1-1.5-0.3-2.2-0.5c-0.7-0.2-1.4-0.5-2.1-0.8
					c-0.7-0.3-1.3-0.7-2-1.1C33,46.5,32.4,46,31.9,45.5z"/>
				<path id="路径_208_00000106122426188945203150000013359172151595296955_" class="st26" d="M48.5,23.3c-1.9-1.1-4-1.6-6.1-1.7
					H42l-0.4,0c-0.3,0-0.5,0-0.8,0.1c-0.5,0.1-1,0.2-1.6,0.3c-1,0.2-2,0.6-2.9,1.1c-0.5,0.3-0.9,0.5-1.3,0.8c-0.4,0.3-0.8,0.6-1.2,1
					c-0.8,0.7-1.4,1.5-2,2.4c-1.1,1.8-1.8,3.9-1.9,6c-0.1-2.2,0.4-4.4,1.5-6.3c0.3-0.5,0.6-0.9,0.9-1.4c0.2-0.2,0.3-0.4,0.5-0.6
					c0.2-0.2,0.4-0.4,0.6-0.6c0.8-0.8,1.7-1.4,2.6-2c1-0.5,2-0.9,3.1-1.2c0.5-0.1,1.1-0.2,1.6-0.3c0.5,0,1.1-0.1,1.6,0
					C44.6,21.3,46.7,22.1,48.5,23.3z"/>
				<path id="路径_209_00000145056436319543133080000018033721061909055383_" class="st26" d="M35.3,43.4c1.7,1,3.6,1.6,5.6,1.8
					c0.5,0,1,0,1.5,0l0.7,0c0.2,0,0.5-0.1,0.7-0.1l0.4-0.1l0.4-0.1c0.2-0.1,0.5-0.1,0.7-0.2c0.5-0.1,0.9-0.3,1.4-0.5l0.3-0.1
					l0.2-0.1l0.2-0.1l0.6-0.3c0.2-0.1,0.4-0.3,0.6-0.4l0.3-0.2l0.3-0.2c0.8-0.6,1.5-1.2,2.1-2l0.5-0.6l0.4-0.6
					c0.1-0.2,0.3-0.4,0.4-0.6l0.2-0.3c0.1-0.1,0.1-0.2,0.2-0.3l0.3-0.7c0.1-0.2,0.2-0.5,0.3-0.7l0.1-0.3c0-0.1,0.1-0.2,0.1-0.4
					l0.2-0.7c-0.1,0.5-0.2,1-0.3,1.5c-0.1,0.2-0.1,0.5-0.2,0.7l-0.3,0.7c0,0.1-0.1,0.2-0.2,0.3l-0.2,0.3c-0.1,0.2-0.2,0.5-0.4,0.7
					L52,40.6l-0.5,0.6c-0.6,0.8-1.3,1.5-2.2,2.1l-0.3,0.2l-0.3,0.2c-0.2,0.1-0.4,0.3-0.6,0.4l-0.7,0.4l-0.2,0.1l-0.2,0.1l-0.4,0.1
					c-0.5,0.2-1,0.4-1.4,0.5c-0.2,0.1-0.5,0.1-0.7,0.2l-0.4,0.1l-0.4,0c-0.3,0-0.5,0.1-0.8,0.1l-0.8,0c-0.5,0-1,0-1.5-0.1
					C38.8,45.4,36.9,44.7,35.3,43.4z"/>
				<path id="路径_214_00000036954884763995784350000009267095808924080017_" class="st72" d="M39.3,22.9c0.1,0.2,0.8,1,1,1.3
					c0.3,0.4,0.5,0.8,0.4,1.3c0,0.9,0,1.6,0,2.4v0.2c-0.3,0-1.1,0-1.4,0V28C39.3,26.3,39.3,24.7,39.3,22.9
					C39.3,23,39.3,23,39.3,22.9z"/>
				<path id="路径_215_00000029747187069724524910000000563353856639694210_" class="st72" d="M44.8,28.1c-0.5,0-1,0-1.4,0l0-0.2
					c0-0.4,0-0.9,0-1.4L44.8,28.1z"/>
				<path id="路径_216_00000182524582490098421030000013239420089849687455_" class="st72" d="M40.8,35.8c0,0,0-0.9,0-1
					c0-1.2,0-2.4,0-3.6c0-0.3,0-0.3-0.3-0.3c-0.4,0-0.7,0-1.1,0c-0.2,0-0.3,0.1-0.3,0.3c0,0.8,0,1.5,0,2.3l0,0v0.3
					c0,0.1,0,0.1,0,0.2c0,0,0,0,0,0s0.1,5.7,0.1,6.9c0-0.2,0-0.3,0-0.4c0.1-0.8,0.1-1.5,0.2-2.3c0,0,0,0,0,0c0-0.1,0.1-0.1,0.2,0
					c0,0,0,0,0.1,0.1c0,0,0,0,0,0c0,0.9,0.1,1.7,0.1,2.6c0,0.4,0,0.7,0,1.1H40c0.1-0.9,0.2-1.9,0.2-2.8l0,0c0-0.1,0.1-0.1,0.1-0.1
					c0.1,0,0.1,0.1,0.1,0.1v0c0,1.1,0.1,2.2,0.1,3.3c0-0.8,0.1-1.7,0.1-2.5C40.7,39.1,40.8,35.9,40.8,35.8z"/>
				<path id="路径_217_00000089563881766281431220000004164773226457935528_" class="st72" d="M45.4,28.7
					c-0.4,0.1-0.8,0.1-1.2,0.1c-1.4,0-2.8,0-4.1,0c-0.6,0-1.2,0-1.8,0.1c-0.9,0.1-1.6,0.6-2,1.5c-0.2,0.4-0.2,0.9-0.2,1.4
					c0,0.4,0.1,0.8,0.2,1.2c0-0.1,0.1-0.3,0.1-0.5c0.1-0.8,0.7-1.5,1.5-1.8c0.7-0.3,1.5-0.4,2.3-0.4c0.9,0,1.9,0,2.8,0
					c0.3,0,0.3,0,0.3,0.3c0,1.7,0.1,9.6,0.1,11c0,0.1,0,0.1,0,0.2c0-0.1,0-0.1,0-0.2c0-0.5,0.1-1.1,0.1-1.6c0-0.2,0-0.3,0.2-0.3
					c0.2,0,0.2,0.2,0.2,0.4c0.1,1.2,0.1,2.4,0.2,3.7h0.1c0-0.6,0-1.2,0-1.7c0-0.5,0-1,0.1-1.4c0-0.1,0-0.4,0.2-0.4
					c0.2,0,0.2,0.2,0.2,0.4c0,0.3,0,0.7,0,1c0,1.1,0,2.2,0.1,3.3c0-1,0.2-10.2,0.2-10.2c0,0,0,0,0-0.1c0,0,0,0,0,0V34
					c0,0,0-0.1,0-0.1c0-1.1,0-2.2,0-3.3c0-0.5,0-0.4,0.4-0.5c1.5-0.2,2.7-1.5,2.7-3.1C47.5,28.1,46.5,28.5,45.4,28.7z"/>
				<path id="路径_218_00000096028999103792478630000007288645357415338653_" class="st72" d="M43.3,33.9v0.3
					c2.7,0.1,4.6,0.5,4.6,1c0,0.6-2.7,1.1-5.9,1.1c-3.3,0-5.9-0.5-5.9-1.1c0-0.5,2-0.9,4.7-1v-0.3c-3.5,0.1-6.2,0.8-6.2,1.6
					c0,0.9,3.3,1.6,7.4,1.6s7.4-0.7,7.4-1.6C49.4,34.7,46.8,34.1,43.3,33.9z"/>
				<path id="路径_220_00000129175492986361679790000004001148932199398805_" class="st26" d="M27.8,29.1l0.2-0.6
					c0.2-0.4,0.4-0.7,0.9-0.5c0.4,0.2,0.5,0.5,0.4,1l-0.1,0.3l0.7,0.3l-0.1,0.3L27.8,29.1z M28.9,28.9c0.1-0.3,0-0.5-0.2-0.6
					c-0.3-0.1-0.4,0-0.5,0.4l-0.1,0.3l0.7,0.3L28.9,28.9z"/>
				<path id="路径_221_00000002345437529827731700000016177775100440829851_" class="st26" d="M28.8,26.6l0.2-0.3l1.8,1l-0.2,0.3
					L28.8,26.6z"/>
				<path id="路径_222_00000137090775567536941550000011193669689043567237_" class="st26" d="M29.7,25l0.2-0.3l1.4,0.2l0.5,0.1
					l0,0c-0.2-0.1-0.4-0.3-0.6-0.4L30.5,24l0.2-0.2l1.7,1.3l-0.2,0.3l-1.4-0.2L30.3,25l0,0c0.2,0.1,0.4,0.2,0.6,0.4l0.8,0.6
					l-0.2,0.2L29.7,25z"/>
				<path id="路径_223_00000009586042318005301330000011309498460337653689_" class="st26" d="M31.8,22.7l0.9-0.8l0.2,0.2
					l-0.7,0.6l0.4,0.4l0.6-0.5l0.2,0.2l-0.6,0.5l0.4,0.5l0.7-0.6l0.2,0.2l-1,0.8L31.8,22.7z"/>
				<path id="路径_224_00000142158756001001996010000002038038028122712747_" class="st26" d="M34.4,21l-0.5,0.3l-0.1-0.2l1.3-0.8
					l0.1,0.2l-0.5,0.3l0.9,1.6l-0.3,0.2L34.4,21z"/>
				<path id="路径_225_00000124880072381746531490000015385701784232665008_" class="st26" d="M36.1,19.8l0.3-0.1l0.5,1l0.3,0.6
					l0,0c0-0.2-0.1-0.5-0.1-0.7l-0.1-1.1l0.3-0.1l0.6,0.9c0.1,0.2,0.2,0.4,0.3,0.6l0,0c0-0.2-0.1-0.5-0.1-0.7l-0.2-1.1l0.3-0.1
					l0.3,2.1l-0.4,0.1l-0.6-1c-0.1-0.1-0.2-0.3-0.2-0.4l0,0c0,0.2,0,0.3,0.1,0.5l0.1,1.2l-0.4,0.1L36.1,19.8z"/>
				<path id="路径_226_00000076604531384421422140000013414865399904620477_" class="st26" d="M39.7,19.8
					c-0.1-0.7,0.3-1.1,0.8-1.2c0.5,0,0.9,0.3,1,1c0.1,0.7-0.3,1.1-0.8,1.2C40.2,20.9,39.8,20.5,39.7,19.8z M41.2,19.7
					c0-0.5-0.3-0.8-0.6-0.7c-0.3,0-0.5,0.4-0.5,0.8c0,0.5,0.3,0.8,0.6,0.7C41.1,20.5,41.3,20.2,41.2,19.7L41.2,19.7z"/>
				<path id="路径_227_00000163784974652167591790000014047057883478577593_" class="st26" d="M43.8,20.9L43.4,20l-0.3,0L43,20.8
					l-0.3,0l0.2-2.1l0.7,0.1c0.4,0,0.7,0.2,0.7,0.7c0,0.3-0.2,0.5-0.5,0.5l0.4,0.9L43.8,20.9z M43.1,19.7l0.3,0
					c0.3,0,0.5-0.1,0.5-0.3c0-0.3-0.1-0.4-0.4-0.4l-0.3,0L43.1,19.7z"/>
				<path id="路径_228_00000132801262855884820910000002962348850517711551_" class="st26" d="M45.7,19.1l0.3,0.1l-0.3,0.9h0
					l1.1-0.7l0.4,0.1l-0.9,0.6l0.3,1.5l-0.4-0.1L46,20.3l-0.4,0.3l-0.2,0.6l-0.3-0.1L45.7,19.1z"/>
				<path id="路径_229_00000083783217693156084820000016317173755267767986_" class="st26" d="M52.2,41.8l0,0.3
					c-0.2,0-0.4,0.1-0.6,0.3c-0.2,0.2-0.2,0.4,0,0.5c0.1,0.1,0.3,0.1,0.5,0l0.3-0.1c0.2-0.1,0.5-0.1,0.7,0c0.2,0.2,0.2,0.6,0,0.9
					c0,0,0,0,0,0c-0.2,0.2-0.4,0.3-0.6,0.3l0-0.3c0.2,0,0.3-0.1,0.4-0.2c0.1-0.2,0.2-0.3,0-0.4c-0.1-0.1-0.3,0-0.5,0l-0.3,0.1
					c-0.2,0.1-0.5,0.1-0.7-0.1c-0.3-0.3-0.3-0.7,0-0.9c0,0,0,0,0,0C51.7,41.9,51.9,41.8,52.2,41.8z"/>
				<path id="路径_230_00000060716211110986467610000014131529868800047806_" class="st26" d="M51.6,45l-0.5,0.4
					c-0.4,0.3-0.7,0.4-1,0c-0.2-0.3-0.2-0.7,0.1-0.9c0,0,0.1,0,0.1-0.1l0.2-0.2L50,43.6l0.3-0.2L51.6,45z M50.5,44.6
					c-0.3,0.2-0.3,0.4-0.1,0.6c0.2,0.2,0.4,0.2,0.6,0l0.2-0.2l-0.5-0.6L50.5,44.6z"/>
				<path id="路径_231_00000091004294713138900500000008643071834883783861_" class="st26" d="M47.9,45.7l0.6-0.3l-0.1-0.6
					l0.3-0.2l0.4,2.2l-0.3,0.2l-1.6-1.5l0.3-0.2L47.9,45.7z M48.1,45.9l0.2,0.2c0.2,0.2,0.3,0.3,0.5,0.5l0,0
					c-0.1-0.2-0.1-0.5-0.2-0.7l-0.1-0.3L48.1,45.9z"/>
				<path id="路径_232_00000084488282280376512810000011016148534103720340_" class="st26" d="M46.8,46.7c0.2,0.5,0,1.1-0.5,1.3
					c0,0-0.1,0-0.1,0c-0.2,0.1-0.5,0-0.6-0.1l0.1-0.3c0.1,0.1,0.3,0.1,0.4,0.1c0.3-0.1,0.5-0.5,0.4-0.9c-0.1-0.5-0.5-0.7-0.8-0.6
					c-0.2,0.1-0.3,0.2-0.4,0.3L45,46.4c0.1-0.2,0.3-0.4,0.5-0.5c0.5-0.1,1,0.1,1.2,0.6C46.7,46.6,46.7,46.6,46.8,46.7z"/>
				<path id="路径_233_00000180342642611834467590000002202763130207376313_" class="st26" d="M44.2,48.4L43,48.5l0-0.3l0.9-0.1
					l-0.1-0.6L43,47.7l0-0.3l0.8-0.1l-0.1-0.7l-0.9,0.1l0-0.3l1.3-0.1L44.2,48.4z"/>
				<path id="路径_234_00000011748728582242159490000010981377003177851031_" class="st26" d="M41.5,48.6l-0.6,0
					c-0.5,0-0.8-0.2-0.8-0.7c0-0.5,0.4-0.6,0.8-0.6l0.3,0l0.1-0.8l0.3,0L41.5,48.6z M41,47.5c-0.3,0-0.5,0.1-0.5,0.4
					s0.1,0.4,0.5,0.4l0.3,0l0.1-0.8L41,47.5z"/>
			</g>
			<g>
				<polygon class="st26" points="38.6,48.3 38.3,48.2 38.8,46.1 39.1,46.1 				"/>
			</g>
		</g>
	</g>
	<g>
		
			<radialGradient id="SVGID_00000129167185756077059020000016831812991628771253_" cx="75.7385" cy="33.7873" r="7.7586" gradientUnits="userSpaceOnUse">
			<stop  offset="0.3708" style="stop-color:#6E3A8C"/>
			<stop  offset="1" style="stop-color:#5E3E89"/>
		</radialGradient>
		<path style="fill:url(#SVGID_00000129167185756077059020000016831812991628771253_);" d="M66.5,39.5c0.9-0.8,1.6-1.6,2.5-2.3
			c0.1-0.1,0.4-0.1,0.5-0.1c4,0,8,0,12,0c0.8,0,1.3-0.7,1-1.4c-0.2-0.4-0.5-0.6-1-0.6c-1,0-2.1,0-3.1,0c-2.8,0-5.6,0-8.5,0
			c-2.5,0-4.2-2.6-3.2-4.9c0.6-1.3,1.6-2.1,3.1-2.1c4.8,0,9.6,0,14.3,0c0.1,0,0.1,0,0.3,0c-0.3,0.2-0.5,0.4-0.6,0.6
			c-0.4,0.4-0.9,0.8-1.3,1.2c-0.5,0.6-1,0.7-1.7,0.7c-3.6,0-7.1,0-10.7,0c-0.5,0-0.8,0.1-1,0.5c-0.3,0.7,0.1,1.4,0.9,1.4
			c1.5,0,2.9,0,4.4,0c2.4,0,4.7,0,7.1,0c1.7,0,3.1,1,3.6,2.5c0.6,2.2-1,4.5-3.3,4.5c-5,0-10,0-15,0C66.6,39.5,66.6,39.5,66.5,39.5z"
			/>
		
			<radialGradient id="SVGID_00000166634822468096353760000003676058198587650699_" cx="98.6055" cy="33.747" r="7.7391" gradientUnits="userSpaceOnUse">
			<stop  offset="0.3708" style="stop-color:#6E3A8C"/>
			<stop  offset="1" style="stop-color:#5E3E89"/>
		</radialGradient>
		<path style="fill:url(#SVGID_00000166634822468096353760000003676058198587650699_);" d="M89.4,30.5c0.8-0.8,1.5-1.6,2.3-2.4
			C91.8,28,92,28,92.1,28c3.9,0,7.7,0,11.6,0c2.2,0,4,1.8,4.2,4.1c0.2,2.2-1.5,4.3-3.6,4.6c-0.3,0-0.6,0.1-0.9,0.1
			c-3.7,0-7.4,0-11.1,0c-0.2,0-0.4,0-0.6,0c0,0.9,0,1.8,0,2.8c-0.8,0-1.6,0-2.5,0c0-0.9,0-1.8,0-2.7c0-0.1,0.1-0.2,0.2-0.3
			c0.7-0.7,1.4-1.4,2.1-2c0.2-0.1,0.4-0.2,0.6-0.2c3.8,0,7.5,0,11.3,0c1.1,0,1.8-0.7,1.8-1.8c0-1.1-0.7-1.9-1.8-1.9
			c-4.5,0-9.1,0-13.6,0C89.7,30.5,89.5,30.5,89.4,30.5z"/>
		<path class="st72" d="M183.3,36.8c0,1,0,1.9,0,2.8c-0.8,0-1.6,0-2.5,0c0-0.9,0-1.8,0-2.7c0-0.1,0.1-0.2,0.2-0.3
			c0.7-0.7,1.4-1.4,2.1-2c0.2-0.1,0.5-0.2,0.7-0.2c3.8,0,7.5,0,11.3,0c1.1,0,1.9-0.7,1.9-1.8c0-1.1-0.8-1.9-1.9-1.9
			c-4.6,0-9.1,0-13.7,0c-0.2,0-0.3,0-0.5,0c0.7-0.7,1.4-1.4,2-2.1c0.3-0.4,0.7-0.5,1.2-0.5c3.7,0,7.3,0,11,0c2.4,0,4.4,1.9,4.4,4.4
			c0,2.5-1.9,4.4-4.4,4.4c-3.7,0-7.4,0-11.1,0C183.7,36.8,183.5,36.8,183.3,36.8z"/>
		
			<radialGradient id="SVGID_00000082338628908817359890000010136948299711894963_" cx="144.368" cy="33.7687" r="7.775" gradientUnits="userSpaceOnUse">
			<stop  offset="0.3708" style="stop-color:#6E3A8C"/>
			<stop  offset="1" style="stop-color:#5E3E89"/>
		</radialGradient>
		<path style="fill:url(#SVGID_00000082338628908817359890000010136948299711894963_);" d="M153.7,37c-0.9,0.9-1.7,1.6-2.5,2.4
			c-0.1,0.1-0.3,0.1-0.4,0.1c-3.3,0-6.7,0-10,0c-3.2,0-5.8-2.7-5.7-5.9c0-3.1,2.6-5.7,5.8-5.7c4.1,0,8.2,0,12.3,0c0.1,0,0.3,0,0.5,0
			c-0.9,0.9-1.7,1.7-2.6,2.4c-0.1,0.1-0.3,0.1-0.5,0.1c-3.3,0-6.5,0-9.8,0c-1.7,0-3.1,1.3-3.2,3c-0.2,1.6,1,3.2,2.6,3.5
			c0.2,0.1,0.5,0.1,0.8,0.1c4.1,0,8.1,0,12.2,0C153.3,37,153.4,37,153.7,37z"/>
		
			<radialGradient id="SVGID_00000145765351231390651030000012702086818564722088_" cx="121.4282" cy="33.7915" r="7.7532" gradientUnits="userSpaceOnUse">
			<stop  offset="0.3708" style="stop-color:#6E3A8C"/>
			<stop  offset="1" style="stop-color:#5E3E89"/>
		</radialGradient>
		<path style="fill:url(#SVGID_00000145765351231390651030000012702086818564722088_);" d="M112.1,39.5c1-1.4,1.9-2.7,2.9-3.9
			c1.6-2.2,3.3-4.4,4.9-6.7c0.9-1.3,2.4-1.1,3.2,0c2.5,3.5,5,6.9,7.5,10.3c0.1,0.1,0.1,0.2,0.2,0.3c-0.1,0-0.3,0-0.4,0
			c-0.8,0-1.5,0-2.3,0c-0.6,0-0.9-0.2-1.2-0.6c-1.7-2.4-3.4-4.7-5.1-7.1c-0.1-0.2-0.2-0.3-0.4-0.5c-0.1,0.1-0.2,0.3-0.3,0.4
			c-1.8,2.5-3.6,5-5.5,7.5c-0.2,0.2-0.4,0.4-0.7,0.3C114.1,39.5,113.2,39.5,112.1,39.5z"/>
		
			<radialGradient id="SVGID_00000099656858729300049500000001472044732017538462_" cx="167.2282" cy="29.2427" r="6.6191" gradientUnits="userSpaceOnUse">
			<stop  offset="0.3708" style="stop-color:#6E3A8C"/>
			<stop  offset="1" style="stop-color:#5E3E89"/>
		</radialGradient>
		<path style="fill:url(#SVGID_00000099656858729300049500000001472044732017538462_);" d="M158,30.5c0.9-0.8,1.8-1.6,2.7-2.4
			c0.1-0.1,0.2-0.1,0.4-0.1c5.1,0,10.1,0,15.2,0c0.1,0,0.1,0,0.3,0c-0.9,0.8-1.8,1.6-2.7,2.4c-0.1,0.1-0.2,0.1-0.3,0.1
			c-5.1,0-10.1,0-15.2,0C158.2,30.5,158.1,30.5,158,30.5z"/>
		
			<radialGradient id="SVGID_00000048469401284329384990000011354292928990818189_" cx="167.2231" cy="38.287" r="6.6462" gradientUnits="userSpaceOnUse">
			<stop  offset="0.3708" style="stop-color:#6E3A8C"/>
			<stop  offset="1" style="stop-color:#5E3E89"/>
		</radialGradient>
		<path style="fill:url(#SVGID_00000048469401284329384990000011354292928990818189_);" d="M157.9,39.5c1-0.9,1.8-1.7,2.7-2.4
			c0.1-0.1,0.2-0.1,0.4-0.1c5.1,0,10.2,0,15.3,0c0.1,0,0.1,0,0.3,0c-0.7,0.7-1.5,1.2-2.1,1.9c-0.5,0.5-1,0.6-1.7,0.6
			c-4.7,0-9.5,0-14.2,0C158.4,39.5,158.2,39.5,157.9,39.5z"/>
		
			<radialGradient id="SVGID_00000151509812353863066190000013804074769528522383_" cx="167.2105" cy="33.7173" r="6.5794" gradientUnits="userSpaceOnUse">
			<stop  offset="0.3708" style="stop-color:#6E3A8C"/>
			<stop  offset="1" style="stop-color:#5E3E89"/>
		</radialGradient>
		<path style="fill:url(#SVGID_00000151509812353863066190000013804074769528522383_);" d="M176.4,32.6c-0.9,0.8-1.7,1.5-2.6,2.3
			c-0.1,0.1-0.2,0.1-0.4,0.1c-5.1,0-10.1,0-15.2,0c-0.1,0-0.1,0-0.3,0c0.5-0.4,0.9-0.8,1.3-1.2c0.9-1.1,2-1.3,3.4-1.3
			c4.4,0.1,8.8,0,13.2,0C176.1,32.5,176.2,32.5,176.4,32.6C176.4,32.5,176.4,32.6,176.4,32.6z"/>
		<path class="st72" d="M206.1,27.4c0,4.1,0,8.1,0,12.1c-0.8,0-1.6,0-2.5,0c0-0.1,0-0.3,0-0.4c0-3,0-6,0-9c0-0.3,0.1-0.5,0.3-0.7
			C204.6,28.8,205.3,28.2,206.1,27.4z"/>
	</g>
</g>
</svg>
