<?xml version="1.0" encoding="utf-8"?>
<!-- Generator: Adobe Illustrator 26.0.0, SVG Export Plug-In . SVG Version: 6.00 Build 0)  -->
<svg version="1.1" id="图层_1" xmlns="http://www.w3.org/2000/svg" xmlns:xlink="http://www.w3.org/1999/xlink" x="0px" y="0px"
	 viewBox="0 0 230 67" style="enable-background:new 0 0 230 67;" xml:space="preserve">
<style type="text/css">
	.st0{fill:#6200EB;}
	.st1{fill:url(#SVGID_1_);}
	.st2{fill:url(#SVGID_00000141416172823742112020000016309040181893866937_);}
	.st3{fill:url(#SVGID_00000044862152699705446030000011111865730134252477_);}
	.st4{fill:url(#SVGID_00000010291933981326258980000010920601351281949100_);}
	.st5{fill:url(#SVGID_00000016059499010544618020000007153430353221920162_);}
	.st6{fill:url(#SVGID_00000095315261692349365300000013834563091872061861_);}
	.st7{fill:#FFFFFF;}
	.st8{clip-path:url(#SVGID_00000176021887105755080100000016743652237419338628_);}
</style>
<g>
	<path id="路径_55" class="st0" d="M81.77,33.5c0,12.31-9.98,22.29-22.29,22.29S37.19,45.81,37.19,33.5s9.98-22.29,22.29-22.29
		c0,0,0,0,0,0C71.79,11.21,81.77,21.19,81.77,33.5"/>
	<g>
		<linearGradient id="SVGID_1_" gradientUnits="userSpaceOnUse" x1="137.4702" y1="33.5" x2="155.3929" y2="33.5">
			<stop  offset="0" style="stop-color:#6200EB"/>
			<stop  offset="1" style="stop-color:#1D64FD"/>
		</linearGradient>
		<path class="st1" d="M139.33,28.14c-0.56,3.45-1.04,6.91-1.54,10.37c-0.11,0.79-0.2,1.58-0.31,2.48c1.35,0,2.56-0.03,3.78,0.01
			c0.6,0.02,0.8-0.21,0.87-0.78c0.23-1.96,0.51-3.92,0.78-5.88c0.1-0.71,0.23-1.41,0.34-2.12l0.22-0.03
			c0.15,0.25,0.31,0.49,0.45,0.75c1.36,2.44,2.73,4.87,4.05,7.33c0.21,0.51,0.73,0.81,1.27,0.74c1.08-0.06,2.17-0.06,3.25,0
			c0.85,0.06,1.05-0.32,1.12-1.06c0.15-1.54,0.4-3.06,0.6-4.59c0.39-2.87,0.76-5.75,1.17-8.62c0.08-0.56-0.11-0.74-0.65-0.73
			c-0.95,0.02-1.9,0.03-2.85-0.01c-0.5-0.02-0.74,0.15-0.8,0.66c-0.19,1.56-0.42,3.11-0.63,4.67c-0.17,1.26-0.35,2.52-0.53,3.78
			c-0.29-0.21-0.53-0.49-0.7-0.81c-1.44-2.54-2.89-5.09-4.32-7.64c-0.18-0.43-0.62-0.7-1.08-0.66c-1.49,0.03-5.01,0-5.27,0
			C139.26,26.45,139.58,27.33,139.33,28.14"/>
	</g>
	<g>
		
			<linearGradient id="SVGID_00000174587694618149664810000015227262358730213821_" gradientUnits="userSpaceOnUse" x1="88.4229" y1="33.4928" x2="105.3276" y2="33.4928">
			<stop  offset="0" style="stop-color:#6200EB"/>
			<stop  offset="1" style="stop-color:#1D64FD"/>
		</linearGradient>
		<path style="fill:url(#SVGID_00000174587694618149664810000015227262358730213821_);" d="M104.7,26c-4.55,0.01-9.11,0.01-13.66,0
			c-0.43,0-0.63,0.13-0.69,0.58c-0.19,1.42-0.43,2.84-0.64,4.26c-0.19,1.31-0.35,2.62-0.53,4.05h10.14c-0.13,0.82-0.3,1.5-0.34,2.2
			c-0.04,0.71-0.35,0.91-1.03,0.89c-1.22-0.02-2.44-0.02-3.67-0.02c-0.92,0-1.84,0-2.76,0c-0.15,0-0.3,0.01-0.46,0.01
			c-0.86,0.19-1.75-0.19-2.2-0.95l-0.45,3.82c0.16,0.07,0.2,0.11,0.25,0.11c4.36,0.01,8.73,0.03,13.09,0
			c0.91,0.01,1.69-0.65,1.82-1.56c0.32-2.06,0.6-4.13,0.94-6.18c0.11-0.66-0.1-0.85-0.76-0.84c-1.5,0.01-3,0.01-4.5,0.01
			c-1.35,0-2.69,0-4.04,0.01c-0.6,0-0.79-0.19-0.65-0.77c0.13-0.52,0.23-1.06,0.35-1.58c0.35-1.51,0.35-1.51,1.88-1.51h3.24
			c-0.06,0.66-0.1,1.15-0.16,1.74c1.59,0,3.08,0.02,4.56-0.03c0.18-0.01,0.46-0.35,0.5-0.57c0.16-0.99,0.23-1.99,0.35-2.99
			C105.38,26.2,105.21,26.01,104.7,26L104.7,26"/>
	</g>
	<g>
		
			<linearGradient id="SVGID_00000070120737488113412350000017844543036758181013_" gradientUnits="userSpaceOnUse" x1="107.8351" y1="33.5351" x2="125.3231" y2="33.5351">
			<stop  offset="0" style="stop-color:#6200EB"/>
			<stop  offset="1" style="stop-color:#1D64FD"/>
		</linearGradient>
		<path style="fill:url(#SVGID_00000070120737488113412350000017844543036758181013_);" d="M113.95,32.79
			c0.15-1.21,0.24-2.43,0.41-3.64c0.03-0.22,0.3-0.58,0.47-0.59c1.67-0.04,3.35-0.03,5.2-0.03c-0.24,1.56-0.44,2.98-0.7,4.39
			c-0.1,0.23-0.3,0.4-0.55,0.45c-1.06,0.03-2.12,0.03-3.18,0.02h-1.13C114.06,33.4,113.9,33.23,113.95,32.79 M109.24,26.07
			c0.16,0.35,0.25,0.72,0.29,1.1c-0.28,2.56-0.61,5.11-0.93,7.66c-0.25,1.99-0.49,3.97-0.77,6.16c1.45,0,2.77-0.02,4.09,0.01
			c0.5,0.01,0.73-0.17,0.8-0.67c0.17-1.21,0.42-2.4,0.54-3.61c0.07-0.73,0.4-0.86,1.05-0.85c2.57,0.03,5.15,0.02,7.73,0.01
			c1.19,0.05,2.21-0.84,2.33-2.03c0.25-1.85,0.46-3.71,0.69-5.56c0.09-0.71,0.17-1.43,0.26-2.21L109.24,26.07z"/>
	</g>
	<g>
		
			<linearGradient id="SVGID_00000023983469100495587710000015693760480815632016_" gradientUnits="userSpaceOnUse" x1="157.982" y1="33.4943" x2="174.1317" y2="33.4943">
			<stop  offset="0" style="stop-color:#6200EB"/>
			<stop  offset="1" style="stop-color:#1D64FD"/>
		</linearGradient>
		<path style="fill:url(#SVGID_00000023983469100495587710000015693760480815632016_);" d="M159.46,26
			c0.22,0.45,0.36,0.93,0.41,1.43c-0.56,4.05-1.18,8.1-1.77,12.14c-0.06,0.44-0.08,0.89-0.13,1.41c1.58,0,3.05,0.02,4.5-0.03
			c0.2-0.01,0.51-0.37,0.55-0.6c0.23-1.36,0.42-2.73,0.55-4.11c0.06-0.64,0.27-0.89,0.95-0.88c1.36,0.03,2.73,0.02,4.09,0.02
			c0.53,0,1.07,0,1.61,0h2.13c0.1-0.87,0.18-1.63,0.27-2.42c-0.28-0.03-0.44-0.07-0.6-0.07c-2.33,0-4.67-0.02-7,0
			c-0.66,0.01-0.85-0.25-0.65-1.08c0.16-0.66,0.23-1.34,0.22-2.03c-0.01-0.94,0.18-1.31,1.04-1.29c1.9,0.04,6.23,0.03,7.61,0.02
			c0.25,0,0.46-0.18,0.51-0.43l0.38-2.11l-14.05,0.01c0,0-0.38-0.01-0.58-0.01h-0.05"/>
	</g>
	<g>
		
			<linearGradient id="SVGID_00000098900242958412524840000008535357983084981170_" gradientUnits="userSpaceOnUse" x1="176.4969" y1="33.4827" x2="192.8129" y2="33.4827">
			<stop  offset="0" style="stop-color:#6200EB"/>
			<stop  offset="1" style="stop-color:#1D64FD"/>
		</linearGradient>
		<path style="fill:url(#SVGID_00000098900242958412524840000008535357983084981170_);" d="M186.17,26.01
			c-2.42,0-7.42,0.04-8.94,0.05c-0.26,0-0.47,0.2-0.5,0.45l-0.24,2.04h5.54l-1.76,12.43c1.64,0,3.2,0.01,4.76-0.02
			c0.12,0,0.3-0.34,0.33-0.54c0.33-2.11,0.63-4.23,0.94-6.35c0.26-1.82,0.52-3.64,0.8-5.54c0.95,0,3.43-0.01,4.47-0.01
			c0.28,0,0.53-0.19,0.61-0.46l0.62-2.08C192.81,25.99,188.15,26.01,186.17,26.01"/>
	</g>
	<g>
		
			<linearGradient id="SVGID_00000037653960700204578120000003107002829011122065_" gradientUnits="userSpaceOnUse" x1="127.788" y1="33.4982" x2="134.7476" y2="33.4982">
			<stop  offset="0" style="stop-color:#6200EB"/>
			<stop  offset="1" style="stop-color:#1D64FD"/>
		</linearGradient>
		<path style="fill:url(#SVGID_00000037653960700204578120000003107002829011122065_);" d="M129.41,28.1
			c-0.23,2.15-0.54,4.3-0.81,6.45c-0.27,2.09-0.53,4.18-0.81,6.42c1.55,0,3.03,0.01,4.5-0.02c0.12,0,0.31-0.33,0.34-0.53
			c0.4-2.43,0.79-4.87,1.17-7.3c0.33-2.09,0.66-4.17,0.94-6.27c0.04-0.26,0.03-0.8-0.3-0.8c-1.78-0.02-3.56-0.04-5.2-0.04
			C129.35,26.71,129.41,27.41,129.41,28.1"/>
	</g>
	<path id="路径_74" class="st7" d="M70.82,31.09L70.82,31.09c-0.37-0.62-0.86-1.16-1.44-1.59c-1.7-1.28-3.97-1.54-5.91-0.66l0,0
		l0.93,3.91l0.52-0.32l0,0c0.33-0.2,0.7-0.29,1.08-0.27l0,0l0.09,0.01l0,0c0.09,0.01,0.18,0.02,0.27,0.05h0.01l0.08,0.02l0.02,0.01
		l0.07,0.02l0.03,0.01l0.06,0.02l0.02,0.01l0.07,0.03l0.03,0.02l0.05,0.03l0.01,0.01l0.07,0.04l0.02,0.01l0.06,0.04L67,32.49
		l0.03,0.02l0.04,0.03l0.04,0.03l0.04,0.03l0.04,0.03l0.04,0.03l0.03,0.03l0.02,0.02c0.06,0.06,0.12,0.13,0.17,0.2
		c0.04,0.05,0.08,0.11,0.11,0.16c0.55,0.9,0.26,2.08-0.64,2.63c0,0,0,0,0,0l-1.58,0.96l0.93,3.91l2.63-1.6
		C71.6,37.32,72.46,33.79,70.82,31.09C70.82,31.08,70.82,31.08,70.82,31.09"/>
	<g>
		<defs>
			<path id="SVGID_00000168115721531678640980000000795234412605757874_" d="M64.24,23.9l-13.08,7.94c-0.9,0.55-1.18,1.73-0.63,2.63
				c0.55,0.89,1.71,1.18,2.61,0.64l1.41-0.86l0.93,3.91l0.93,3.91l0.93,3.91l3.02-1.84l-0.93-3.91l-0.93-3.91l-0.93-3.91l2.86-1.74
				l2.79,11.73l3.02-1.84l-2.79-11.73l0.91-0.55l1.85-1.12c0.91-0.54,1.2-1.72,0.66-2.62c-0.54-0.91-1.72-1.2-2.62-0.66
				C64.25,23.89,64.24,23.9,64.24,23.9"/>
		</defs>
		
			<linearGradient id="SVGID_00000152254862213677762820000000791159717448282502_" gradientUnits="userSpaceOnUse" x1="50.2504" y1="34.7963" x2="67.1503" y2="34.7963">
			<stop  offset="0" style="stop-color:#CE00CD"/>
			<stop  offset="1" style="stop-color:#6200EB"/>
		</linearGradient>
		
			<use xlink:href="#SVGID_00000168115721531678640980000000795234412605757874_"  style="overflow:visible;fill:url(#SVGID_00000152254862213677762820000000791159717448282502_);"/>
		<clipPath id="SVGID_00000017480122281465845950000003353142145096312764_">
			<use xlink:href="#SVGID_00000168115721531678640980000000795234412605757874_"  style="overflow:visible;"/>
		</clipPath>
		
			<g id="组_559" transform="translate(-357.945 4969.413)" style="clip-path:url(#SVGID_00000017480122281465845950000003353142145096312764_);">
			<g id="组_558" transform="translate(-0.27)">
				<g id="组_557">
					<g>
						<defs>
							
								<rect id="SVGID_00000122001057978675299630000003031905192965615256_" x="408.19" y="-4945.79" width="17.44" height="22.35"/>
						</defs>
						
							<linearGradient id="SVGID_00000120533308579264707630000004738769737486706614_" gradientUnits="userSpaceOnUse" x1="408.1871" y1="-4934.6138" x2="425.6281" y2="-4934.6138">
							<stop  offset="0" style="stop-color:#CE00CD"/>
							<stop  offset="1" style="stop-color:#6200EB"/>
						</linearGradient>
						
							<use xlink:href="#SVGID_00000122001057978675299630000003031905192965615256_"  style="overflow:visible;fill:url(#SVGID_00000120533308579264707630000004738769737486706614_);"/>
						<clipPath id="SVGID_00000095316762749533500040000013440012524184212661_">
							<use xlink:href="#SVGID_00000122001057978675299630000003031905192965615256_"  style="overflow:visible;"/>
						</clipPath>
					</g>
				</g>
			</g>
		</g>
	</g>
	<g id="组_561" transform="translate(-371 4957)">
		<path id="路径_77" class="st7" d="M435.92-4924.57L435.92-4924.57"/>
		<path id="路径_78" class="st7" d="M429.51-4920.68"/>
		<path id="路径_79" class="st7" d="M434.23-4914.6l-0.93-3.91l-8.63,5.22c-0.03,0.02-0.05,0.06-0.05,0.1l0.29,4.21L434.23-4914.6
			z"/>
	</g>
	<path id="路径_73" class="st7" d="M53.15,35.11c-0.91,0.54-2.08,0.25-2.62-0.66c-0.54-0.9-0.25-2.06,0.64-2.61l15.49-9.43
		c0.03-0.02,0.05-0.06,0.05-0.1l-0.29-4.07c-0.09,0.05-17.23,10.34-17.23,10.34c-2.71,1.64-3.57,5.17-1.93,7.88c0,0,0,0,0,0l0,0
		c1.64,2.71,5.17,3.57,7.87,1.93c0,0,0,0,0.01,0l0.36-0.22l-0.93-3.91L53.15,35.11z"/>
	<path id="路径_75" class="st7" d="M61.37,34.59l-0.93-3.91l-2.86,1.74l0.93,3.91L61.37,34.59z"/>
</g>
</svg>
