<svg id="组_49" data-name="组 49" xmlns="http://www.w3.org/2000/svg" width="23.767" height="25" viewBox="0 0 23.767 25">
  <path id="路径_42" data-name="路径 42" d="M120.325,6.069h11.1V2.44l5.745,4.4-5.745,4.343V7.706h-11.1ZM130.222,0V4.865h-11.1V8.911h11.1V13.6l8.492-6.416V6.511Z" transform="translate(-114.947)" fill="#777e90"/>
  <path id="路径_43" data-name="路径 43" d="M1.2,140.043H2.778v1.637H1.2ZM0,142.884H3.982v-4.045H0Z" transform="translate(0 -133.974)" fill="#3772ff"/>
  <path id="路径_44" data-name="路径 44" d="M565.88,460.34h1.571v1.637H565.88Zm-1.2,2.841h3.979v-4.045h-3.979Z" transform="translate(-544.888 -443.047)" fill="#3772ff"/>
  <path id="路径_45" data-name="路径 45" d="M1.542,331.967l5.745-4.341v3.481h11.1v1.634H7.288v3.63ZM0,331.623v.677l8.492,6.511v-4.865h11.1V329.9H8.492v-4.693Z" transform="translate(0 -313.811)" fill="#777e90"/>
</svg>
