<svg xmlns="http://www.w3.org/2000/svg" width="25.781" height="25" viewBox="0 0 25.781 25">
  <g id="全球" transform="translate(-14.332 -29.404)">
    <path id="路径_34" data-name="路径 34" d="M17.471,156.662l1.252-4.206.983,1.142c5.176-4.794,13.966-7.264,20.066-2.5.656.513.274,1.023-.382.51-5.583-4.365-13.9-1.141-18.593,3.217l.98,1.179-4.305.652Zm19.5,2.7-1.252,4.206-.983-1.142c-5.176,4.794-13.966,7.264-20.066,2.5-.656-.513-.275-1.023.382-.51,5.583,4.365,13.9,1.141,18.593-3.217l-.98-1.179,4.305-.652Z" transform="translate(0 -116.044)" fill="#3772ff"/>
    <path id="路径_35" data-name="路径 35" d="M31.807,36.677v4.782h4.669a13.92,13.92,0,0,0-1.236-5.294,15.01,15.01,0,0,1-3.434.512Zm-.918,10.477V42.373H26.219a13.923,13.923,0,0,0,1.229,5.283,15.034,15.034,0,0,1,3.44-.5ZM23.67,49.245a15,15,0,0,1,2.9-1.323A14.837,14.837,0,0,1,25.3,42.373H19.917a.482.482,0,0,1-.076-.006,11.007,11.007,0,0,0,2.464,6.492,8.778,8.778,0,0,1-2.349-1.269A12.282,12.282,0,0,1,22.312,33.06,13.007,13.007,0,0,1,38.72,31.69a15.253,15.253,0,0,0-2.884-.129,11.693,11.693,0,0,0-3.536-.846,15,15,0,0,1,1.164,1.132q-.524.1-1.042.233-.3-.3-.615-.582v.751q-.463.134-.918.293V31.5a14.085,14.085,0,0,0-1.6,1.68q-.895.4-1.749.89A14.9,14.9,0,0,1,30.4,30.715a11.615,11.615,0,0,0-6.712,2.808,14.058,14.058,0,0,0,2.6,1.318q-.453.3-.891.623a15.019,15.019,0,0,1-2.23-1.19.466.466,0,0,1-.136-.136,11.051,11.051,0,0,0-3.189,7.328.5.5,0,0,1,.077-.007h.658l0,.015.088-.015h10.23v-4.78a14.887,14.887,0,0,1-1.8-.163c.5-.278,1.01-.535,1.532-.763a13.872,13.872,0,0,0,4.213-.422q-.2-.364-.411-.716l.174-.028c.271-.041.543-.073.818-.1q.166.286.318.58a14.118,14.118,0,0,0,1.558-.617,11.633,11.633,0,0,1,1.593.2A15.037,15.037,0,0,1,36.125,35.9a14.83,14.83,0,0,1,1.27,5.562h5.383a.5.5,0,0,1,.077.007,11,11,0,0,0-2.335-6.353,8.718,8.718,0,0,1,2.3,1.284l.017.013a12.282,12.282,0,0,1-2.453,14.338,13.008,13.008,0,0,1-16.194,1.514,15.366,15.366,0,0,0,2.925.087,11.666,11.666,0,0,0,3.248.742q-.555-.487-1.06-1.027.526-.1,1.045-.239.264.262.541.509v-.658q.463-.134.918-.293v.951a14.045,14.045,0,0,0,1.48-1.535q.91-.4,1.779-.893a14.9,14.9,0,0,1-2.732,3.184,11.617,11.617,0,0,0,6.643-2.774,14.057,14.057,0,0,0-2.5-1.28q.449-.3.883-.623a14.934,14.934,0,0,1,2.162,1.168.462.462,0,0,1,.118.112,11.053,11.053,0,0,0,3.211-7.326.486.486,0,0,1-.076.006H31.807v4.782a14.892,14.892,0,0,1,1.921.186q-.719.409-1.473.752a14.174,14.174,0,0,0-4.394.4q.22.411.467.806l-.224.035q-.381.058-.766.094c-.13-.223-.255-.448-.374-.676a14.032,14.032,0,0,0-1.759.7,11.291,11.291,0,0,1-1.536-.212Z" transform="translate(-4.117 0)" fill="#777e90"/>
  </g>
</svg>
