<svg id="组_48" data-name="组 48" xmlns="http://www.w3.org/2000/svg" xmlns:xlink="http://www.w3.org/1999/xlink" width="27.449" height="25" viewBox="0 0 27.449 25">
  <defs>
    <clipPath id="clip-path">
      <rect id="矩形_25" data-name="矩形 25" width="27.449" height="25" fill="none"/>
    </clipPath>
  </defs>
  <g id="组_47" data-name="组 47" clip-path="url(#clip-path)">
    <path id="路径_38" data-name="路径 38" d="M24.783.216A.727.727,0,0,0,24.257,0L15.341.127a.726.726,0,0,0-.5.213L.213,15.011a.73.73,0,0,0,0,1.03l8.719,8.747a.724.724,0,0,0,1.027,0L24.584,10.116a.729.729,0,0,0,.212-.5l.2-8.873a.73.73,0,0,0-.21-.529M23.351,9.293,9.446,23.242,1.753,15.525l13.9-13.947,7.869-.111Z" transform="translate(0 0)" fill="#777e90"/>
    <path id="路径_39" data-name="路径 39" d="M387.5,87.093a3.049,3.049,0,1,0-3.04-3.049,3.048,3.048,0,0,0,3.04,3.049m0-4.642a1.593,1.593,0,1,1-1.588,1.593,1.592,1.592,0,0,1,1.588-1.593" transform="translate(-368.819 -77.7)" fill="#777e90"/>
    <path id="路径_40" data-name="路径 40" d="M485.673,517.364l-3.38-2.989-.538.609,3.917,3.464,3.932-3.463-.537-.61Z" transform="translate(-462.155 -493.447)" fill="#3772ff"/>
    <path id="路径_41" data-name="路径 41" d="M489.6,444.982l-.537-.61-3.394,2.989-3.38-2.989-.538.609,3.917,3.464Z" transform="translate(-462.155 -426.293)" fill="#3772ff"/>
  </g>
</svg>
