<svg xmlns="http://www.w3.org/2000/svg" xmlns:xlink="http://www.w3.org/1999/xlink" width="81.95" height="81.95" viewBox="0 0 81.95 81.95">
  <defs>
    <clipPath id="clip-path">
      <rect id="508" data-name="508" width="49.949" height="48.084" fill="none"/>
    </clipPath>
  </defs>
  <g id="2973" data-name="2973" transform="translate(12252 5363)">
    <path id="665" data-name="665" d="M79.95,39.975A39.975,39.975,0,1,1,39.975,0,39.975,39.975,0,0,1,79.95,39.975" transform="translate(-12251 -5362)" fill="#3772ff" stroke="#fff" stroke-width="2"/>
    <g id="2970" data-name="2970" transform="translate(-12235.999 -5346.067)">
      <g id="2961" data-name="2961">
        <g id="2960" data-name="2960" clip-path="url(#clip-path)">
          <path id="651" data-name="651" d="M147.708,33.63h-.065a7.331,7.331,0,0,0-7.028,5.358h5.563Z" transform="translate(-115.535 -27.632)" fill="#fff"/>
          <path id="652" data-name="652" d="M87.986,0h0A7.674,7.674,0,0,0,80.7,5.37l-1.885,5.987h5.563Z" transform="translate(-64.759)" fill="#fff"/>
          <path id="653" data-name="653" d="M157.988,81.785c.787-4.181-1.5-7.421-5.685-8.045a5.428,5.428,0,0,0-.589-.053h-7.776V79.3l5.52-.018a3.14,3.14,0,0,1,2.108.766c1.042.93,1.112,2.305.076,3.743A4.3,4.3,0,0,1,148,85.754l-5.683-.014a7.74,7.74,0,0,0-7.456,5.526q-.024.08-.044.156h3.559c2.812,0,5.625-.033,8.436.014a2.236,2.236,0,0,1,2.24,2.923,4.465,4.465,0,0,1-4.2,3.455c-1.532,0-3.705,0-5.713-.007a7.724,7.724,0,0,0-7.39,5.373c-.029.093-.053.174-.07.242h.988c3.315,0,6.63-.023,9.944,0a11.952,11.952,0,0,0,10.815-6.155c1.47-2.386,2.123-4.986.909-7.743-.143-.324-.308-.638-.432-.9a12.909,12.909,0,0,0,4.086-6.847" transform="translate(-108.193 -60.545)" fill="#fdd333"/>
          <path id="654" data-name="654" d="M163.562,105.021a1.905,1.905,0,0,0-.29.022,1.58,1.58,0,0,0,.29-.022" transform="translate(-134.152 -86.29)" fill="#fff"/>
          <path id="655" data-name="655" d="M21.671,73.69q-7.152,0-14.3,0A7.608,7.608,0,0,0,.016,79.26L0,79.319H12.337l-6.44,24.1a6.942,6.942,0,0,0,6.984-5.109c.958-3.511,2.165-7.947,2.9-10.688.669-2.49,1.317-4.986,1.926-7.491.116-.476.287-.721.644-.814h4.637L19.3,93.126c-.915,3.426-4.212,15.446-4.212,15.446a6.222,6.222,0,0,0,6.83-4.5c1.105-3.975,2.519-9.07,3.028-10.947q.746-2.75,1.489-5.5c.669-2.49,1.317-4.986,1.926-7.491.128-.524.324-.766.759-.835a1.886,1.886,0,0,1,.29-.022l.047,0c1.492.017,3.787.028,5.9.035a6.488,6.488,0,0,0,6.3-4.859l.012-.044c.055-.209.2-.718.2-.718s-10.056,0-20.19,0" transform="translate(0 -60.544)" fill="#fff"/>
        </g>
      </g>
    </g>
  </g>
</svg>
