<svg xmlns="http://www.w3.org/2000/svg" width="80" height="80" viewBox="0 0 80 80">
  <g id="组_2862" data-name="组 2862" transform="translate(12280 5196)">
    <path id="路径_603" data-name="路径 603" d="M76,38A38,38,0,1,1,38,0,38,38,0,0,1,76,38" transform="translate(-12278 -5194)" fill="#3772ff" stroke="#fff" stroke-width="4"/>
    <path id="路径_604" data-name="路径 604" d="M101.748,74.829c-.25-.158-.495-.325-.847-.558.329-.132.49-.214.661-.263,4.876-1.381,6.475-9.127,2.226-12.483a18.023,18.023,0,0,0-5.144-2.859c-.731-.261-.974-.555-.742-1.356.505-1.742.894-3.517,1.35-5.274.131-.5.038-.777-.527-.892-.9-.182-1.8-.408-2.678-.673-.643-.194-.935-.061-1.089.64-.384,1.746-.838,3.478-1.3,5.2-.064.237-.381.611-.525.587-1-.17-1.98-.427-3-.666.1-.443.164-.75.239-1.054.411-1.66.8-3.324,1.248-4.975.164-.607-.007-.865-.605-.991-.9-.189-1.795-.414-2.678-.673-.606-.177-.836.022-.972.618-.407,1.768-.87,3.524-1.316,5.283-.069.272-.17.536-.261.819-.278-.047-.487-.068-.689-.117-2.375-.585-4.751-1.165-7.121-1.772-.482-.124-.728-.047-.845.474-.247,1.1-.53,2.2-.822,3.292-.114.428.01.627.442.728.9.21,1.792.427,2.67.7l10.007,2.812a18.468,18.468,0,0,1,6.514,2.259,3.809,3.809,0,0,1,1.971,3.3,3.721,3.721,0,0,1-3.543,3.824,63.715,63.715,0,0,1-6.917-.906c-.029-.006-.054-.014-.081-.021l-1.086,4.256c.024.006.047.009.073.017,2.255.692,4.525,1.339,6.753,2.109a6.693,6.693,0,0,1,1.98,1.263,3.952,3.952,0,0,1-1.783,7c-.662.146-1.35.176-2.026.259A32.985,32.985,0,0,1,84,83.432l-9.767-2.475c-.743-.175-1.476-.395-2.225-.529-.221-.039-.626.074-.7.233-.666,1.423-1.276,2.872-1.937,4.393.371.118.635.217.907.286,2.269.577,4.536,1.159,6.811,1.713.573.14.772.356.6.981-.482,1.776-.855,3.583-1.359,5.353-.22.774.008,1.036.732,1.167a18.642,18.642,0,0,1,2.372.59c.676.217.985.087,1.148-.655.389-1.772.891-3.519,1.292-5.289.149-.661.431-.8,1.044-.595a12.956,12.956,0,0,0,1.755.46c.6.114.771.365.6.982-.457,1.674-.852,3.366-1.27,5.05-.276,1.107-.276,1.11.8,1.378.739.186,1.5.317,2.217.561s1.031.071,1.2-.687c.4-1.8.888-3.574,1.308-5.366.127-.541.354-.732.926-.641,1.142.182,2.291.341,3.443.424a11.283,11.283,0,0,0,7.025-1.282c2.777-1.727,3.883-4.48,4.334-7.544.461-3.138-.874-5.457-3.5-7.111" transform="translate(-12327.806 -5228.81)" fill="#fefefe"/>
    <path id="路径_605" data-name="路径 605" d="M99.522,97.18a.921.921,0,0,1,1.124-.659l4.055,1.116a2.66,2.66,0,0,0-1.887-3.167l-2.214-.58-6.9-1.8-2.525-.659a.212.212,0,0,0-.259.151l-.533,2.042a.212.212,0,0,0,.151.259l1.634.426a.921.921,0,0,1,.659,1.124l-2.777,10.635-.587,2.247a.212.212,0,0,0,.152.259l2.041.533a.212.212,0,0,0,.259-.152l.587-2.247,2.956-11.322a.212.212,0,0,1,.259-.152l1.383.361a.212.212,0,0,1,.152.259L94.29,107.185l-.587,2.247a.212.212,0,0,0,.151.259l2.247.587,3.368.88a2.534,2.534,0,0,0,3.092-1.812l-4.928-1.287a.921.921,0,0,1-.659-1.124Z" transform="translate(-12342.229 -5259.641)" fill="#fff"/>
  </g>
</svg>
