<svg xmlns="http://www.w3.org/2000/svg" width="60" height="60" viewBox="0 0 71.055 60">
  <path id="商家_1_" data-name="商家 (1)" d="M154.612,210.546H151.06V159.209l4.263-1.776a1.75,1.75,0,1,0-1.421-3.2l-31.619,13.678a1.51,1.51,0,0,0-.888-.533L96.17,162.051a1.842,1.842,0,0,0-2.132,1.421,1.8,1.8,0,0,0,1.421,2.132l.711.178v13.678l-9.592,4.263A1.75,1.75,0,0,0,88,186.92l6.04-2.665v26.29H87.11a1.776,1.776,0,1,0,0,3.553h67.5a1.776,1.776,0,1,0,0-3.553ZM99.545,166.492l17.586,3.73-17.586,7.638V166.492Zm-2.132,16.165,50.094-21.849v49.739h-7.461a5.256,5.256,0,0,0,.355-1.776V191.006a5.234,5.234,0,0,0-5.329-5.329h-5.329a5.234,5.234,0,0,0-5.329,5.329V208.77a5.255,5.255,0,0,0,.355,1.776H97.413V182.657Zm32.33,27.889a1.678,1.678,0,0,1-1.776-1.776V191.006a1.78,1.78,0,0,1,1.776-1.776h5.329a1.678,1.678,0,0,1,1.776,1.776V208.77a1.678,1.678,0,0,1-1.776,1.776h-5.329Zm-15.987-24.869h-5.329a5.234,5.234,0,0,0-5.329,5.329v5.329a5.234,5.234,0,0,0,5.329,5.329h5.329a5.234,5.234,0,0,0,5.329-5.329v-5.329A5.234,5.234,0,0,0,113.756,185.677Zm1.776,10.658a1.678,1.678,0,0,1-1.776,1.776h-5.329a1.678,1.678,0,0,1-1.776-1.776v-5.329a1.678,1.678,0,0,1,1.776-1.776h5.329a1.678,1.678,0,0,1,1.776,1.776Z" transform="translate(-85.334 -154.099)" fill="#3772ff"/>
</svg>
