<svg xmlns="http://www.w3.org/2000/svg" width="60" height="60" viewBox="0 0 73.701 60">
  <path id="web__开发者专用" d="M256.339,311.21v55.382a2.309,2.309,0,0,0,2.309,2.309h69.083a2.309,2.309,0,0,0,2.309-2.309V311.21a2.309,2.309,0,0,0-2.309-2.309H258.648a2.309,2.309,0,0,0-2.309,2.309Zm4.618,2.309h64.465v9.194H260.957v-9.194Zm0,13.813h64.465v36.951H260.957V327.332Zm4.56-11.561a2.309,2.309,0,1,0,1.633.676A2.325,2.325,0,0,0,265.517,315.77Zm6.909,0a2.309,2.309,0,1,0,1.632.676A2.325,2.325,0,0,0,272.427,315.77Zm6.945,0a2.309,2.309,0,1,0,1.632.676A2.326,2.326,0,0,0,279.371,315.77Zm21.667,13.9a2.309,2.309,0,0,0-3.058,1.147l-13.71,28.229a2.309,2.309,0,1,0,4.2,1.911l13.71-28.229A2.309,2.309,0,0,0,301.039,329.669Zm-27.876,15.7,7.723-9.01a2.309,2.309,0,0,0-3.507-3.005l-9.011,10.513a2.309,2.309,0,0,0,0,3.005l9.011,10.513a2.309,2.309,0,0,0,3.507-3.005ZM309,333.351a2.309,2.309,0,0,0-3.507,3.006l7.723,9.01-7.723,9.01A2.309,2.309,0,1,0,309,357.382l9.011-10.513a2.309,2.309,0,0,0,0-3.005L309,333.351Z" transform="translate(-256.339 -308.901)" fill="#3772ff"/>
</svg>
