<svg xmlns="http://www.w3.org/2000/svg" width="18.85" height="20" viewBox="0 0 18.85 20">
  <path id="退出" d="M95.333,64a.476.476,0,0,1,.476.476v.952a.476.476,0,0,1-.476.476h-8.1V82.1h8.1a.476.476,0,0,1,.476.476v.952a.476.476,0,0,1-.476.476h-8.1a1.9,1.9,0,0,1-1.9-1.81l0-.1V65.9a1.9,1.9,0,0,1,1.81-1.9l.1,0h8.1Zm4.343,4.9,4.089,4.089a1.429,1.429,0,0,1,.064,1.951l-.064.069L99.677,79.1a.476.476,0,0,1-.673,0l-.673-.673a.476.476,0,0,1,0-.673l2.8-2.8h-9.6a.476.476,0,0,1-.476-.476v-.952a.476.476,0,0,1,.476-.476h9.6l-2.8-2.8a.476.476,0,0,1,0-.673L99,68.9a.476.476,0,0,1,.673,0Z" transform="translate(-85.333 -64)" fill="#3772ff"/>
</svg>
