<svg xmlns="http://www.w3.org/2000/svg" width="76" height="76" viewBox="0 0 76 76">
  <g id="组_2869" data-name="组 2869" transform="translate(-2828 -20978)">
    <g id="椭圆_26" data-name="椭圆 26" transform="translate(2828 20978)" fill="#f6c214" stroke="#fff" stroke-width="2">
      <circle cx="38" cy="38" r="38" stroke="none"/>
      <circle cx="38" cy="38" r="37" fill="none"/>
    </g>
    <path id="路径_639" data-name="路径 639" d="M27.363,24.475c2.473,0,4.771-.019,7.07,0,1.993.021,2.676.7,2.888,2.688.622,5.818,1.816,11.47,4.823,16.6.471.8.124,1.424-.827,1.452q-2.266.066-4.538.009a2.1,2.1,0,0,1-1.972-1.692,13.612,13.612,0,0,1-.727-2.89,5.291,5.291,0,0,1,.629-1.848c-.3-.026-.718-.091-1.137-.091-5.471,0-10.939.028-16.407-.007-.923,0-1.352.259-1.517,1.193a32.469,32.469,0,0,1-.881,3.494A2.15,2.15,0,0,1,12.3,45.236c-1.273.007-2.545.021-3.818,0-1.252-.019-1.564-.622-.949-1.711a39.3,39.3,0,0,0,4.585-15.934c.231-2.424.918-3.137,3.373-3.126,1.96.009,3.921.007,5.879.072.627.021.783-.214.781-.767-.007-4.333,0-8.666-.014-13-.007-1.392-.044-1.392,1.312-1.4.963,0,1.93.049,2.888-.016.839-.058,1.061.282,1.054,1.07-.03,4.161-.021,8.324-.026,12.484v1.562m5.3,10.3c-.193-1.837-.343-3.543-.583-5.238a1.05,1.05,0,0,0-.795-.613c-4.329-.037-8.659-.014-12.988-.033-.676,0-.827.259-.9.9-.2,1.66-.023,3.4-.967,4.983Z" transform="translate(2841.618 20994.066)" fill="#fff"/>
    <path id="路径_640" data-name="路径 640" d="M20.367,21.993V26.27H17c-.548,0-1.1,0-1.648,0a2.819,2.819,0,0,1-2.972-2.543c-.893-4.081-1.748-8.179-2.837-12.209A26.77,26.77,0,0,0,7.328,6.776c-.35-.7-.159-1.256.634-1.28a36.443,36.443,0,0,1,4.734.047,2.823,2.823,0,0,1,2.594,2.44q.888,4.752,1.646,9.531a18.6,18.6,0,0,1,.205,3.077c-.009,1,.508,1.352,1.378,1.4.576.028,1.156,0,1.848,0" transform="translate(2841.53 20988.863)" fill="#fff"/>
    <path id="路径_641" data-name="路径 641" d="M16.7,26.239V21.982c.622,0,1.2.035,1.764-.009.793-.061,1.205-.361,1.336-1.317.585-4.315,1.273-8.615,2-12.909a2.766,2.766,0,0,1,2.827-2.259c1.406-.058,2.818-.04,4.226-.012.944.021,1.245.538.762,1.35C26.55,11.964,25.562,17.719,24.671,23.5c-.242,1.566-1.1,2.646-2.594,2.72-1.744.089-3.494.021-5.375.021" transform="translate(2854.229 20988.873)" fill="#fff"/>
    <path id="路径_642" data-name="路径 642" d="M17.035,12.823A4.038,4.038,0,1,1,21.051,8.7c-.051,2.51-1.478,3.909-4.016,4.126" transform="translate(2849.349 20987.936)" fill="#fff"/>
  </g>
</svg>
