<svg xmlns="http://www.w3.org/2000/svg" xmlns:xlink="http://www.w3.org/1999/xlink" width="36" height="36" viewBox="0 0 36 36">
  <defs>
    <clipPath id="clip-path">
      <rect id="矩形_456" data-name="矩形 456" width="22" height="22" fill="none"/>
    </clipPath>
  </defs>
  <g id="组_2953" data-name="组 2953" transform="translate(-14332 -7290)">
    <g id="组_2865" data-name="组 2865" transform="translate(14339 7297)" clip-path="url(#clip-path)">
      <path id="路径_634" data-name="路径 634" d="M22,11A11,11,0,1,1,11,0,11,11,0,0,1,22,11" fill="#222127"/>
      <g id="组_2954" data-name="组 2954" transform="translate(0.278 0.367)">
        <path id="路径_635" data-name="路径 635" d="M13.352,13.953c.752,0,1.451-.006,2.151,0,.606.006.814.213.879.818a12.346,12.346,0,0,0,1.467,5.049c.143.244.038.433-.252.442q-.689.02-1.381,0a.639.639,0,0,1-.6-.515,4.141,4.141,0,0,1-.221-.879,1.609,1.609,0,0,1,.191-.562c-.091-.008-.218-.028-.346-.028-1.664,0-3.328.009-4.991,0-.281,0-.411.079-.462.363a9.877,9.877,0,0,1-.268,1.063.654.654,0,0,1-.75.563c-.387,0-.774.006-1.161,0s-.476-.189-.289-.52A11.956,11.956,0,0,0,8.714,14.9c.07-.737.279-.954,1.026-.951.6,0,1.193,0,1.788.022.191.006.238-.065.238-.233,0-1.318,0-2.636,0-3.955,0-.423-.013-.423.4-.425.293,0,.587.015.879,0,.255-.018.323.086.321.325-.009,1.266-.006,2.532-.008,3.8v.475m1.613,3.134c-.059-.559-.1-1.078-.177-1.593a.319.319,0,0,0-.242-.186c-1.317-.011-2.634,0-3.951-.01-.206,0-.252.079-.275.274a3.543,3.543,0,0,1-.294,1.516Z" transform="translate(-1.839 -2.547)" fill="#f0b81d"/>
        <path id="路径_636" data-name="路径 636" d="M11.178,10.477v1.3H10.152c-.167,0-.334,0-.5,0a.858.858,0,0,1-.9-.774c-.272-1.242-.532-2.488-.863-3.714a8.144,8.144,0,0,0-.673-1.442c-.106-.214-.048-.382.193-.389a11.086,11.086,0,0,1,1.44.014.859.859,0,0,1,.789.742q.27,1.445.5,2.9a5.658,5.658,0,0,1,.062.936c0,.3.155.411.419.425.175.009.352,0,.562,0" transform="translate(-1.82 -1.409)" fill="#f0b81d"/>
        <path id="路径_637" data-name="路径 637" d="M16.7,11.774V10.48c.189,0,.364.011.537,0,.241-.018.367-.11.406-.4.178-1.313.387-2.621.608-3.927a.841.841,0,0,1,.86-.687c.428-.018.857-.012,1.286,0,.287.006.379.164.232.411a13.64,13.64,0,0,0-1.5,5.071.85.85,0,0,1-.789.827c-.53.027-1.063.006-1.635.006" transform="translate(-4.596 -1.412)" fill="#f0b81d"/>
        <path id="路径_638" data-name="路径 638" d="M14.252,7.2a1.228,1.228,0,1,1,1.222-1.255A1.187,1.187,0,0,1,14.252,7.2" transform="translate(-3.53 -1.207)" fill="#f0b81d"/>
      </g>
    </g>
    <g id="椭圆_30" data-name="椭圆 30" transform="translate(14332 7290)" fill="none" stroke="#fff" stroke-width="2">
      <circle cx="18" cy="18" r="18" stroke="none"/>
      <circle cx="18" cy="18" r="17" fill="none"/>
    </g>
  </g>
</svg>
