<svg xmlns="http://www.w3.org/2000/svg" xmlns:xlink="http://www.w3.org/1999/xlink" width="432" height="433" viewBox="0 0 432 433">
  <defs>
    <clipPath id="clip-path">
      <rect id="508" data-name="508" width="85.953" height="82.745" fill="none"/>
    </clipPath>
  </defs>
  <g id="2974" data-name="2974" transform="translate(12143 5876)">
    <g id="2779" data-name="2779" transform="translate(-13271 -7379)">
      <path id="25" data-name="25" d="M1317.76,2784.571l-110.364,307.2,145.828-93.716Z" transform="translate(194.831 -1181.747)" fill="none" stroke="#74b7f6" stroke-width="1"/>
      <path id="26" data-name="26" d="M1349.882,2795.03l-135.609-93.782-111.787,68.081L981.032,2890.782l2.1,146.248,92.035,5.463,163.9,60.937" transform="translate(163.159 -1193.406)" fill="none" stroke="#74b7f6" stroke-width="1"/>
      <path id="27" data-name="27" d="M1239.2,3102.7l-137.874-334.9,282.83,242.066-170.2-309.727-40.344,224.836-97.919,117.251-95.4-152.972,370.663-94.137" transform="translate(163.056 -1193.561)" fill="none" stroke="#74b7f6" stroke-width="1"/>
      <path id="28" data-name="28" d="M981.48,2867.571,1238.67,3079.8" transform="translate(163.222 -1170.134)" fill="none" stroke="#74b7f6" stroke-width="1"/>
      <path id="29" data-name="29" d="M1064.169,3004.538l196.466-32.317h112.208" transform="translate(174.791 -1155.492)" fill="none" stroke="#74b7f6" stroke-width="1"/>
      <path id="30" data-name="30" d="M982.48,2865.571l205.114,29.116,85.311,91.615" transform="translate(163.361 -1170.414)" fill="none" stroke="#74b7f6" stroke-width="1"/>
      <path id="31" data-name="31" d="M1107.564,3074.712l-43.95-74.473" transform="translate(174.713 -1151.572)" fill="none" stroke="#74b7f6" stroke-width="1"/>
      <path id="32" data-name="32" d="M990,2730.5l109.97,34.736" transform="translate(164.414 -1189.313)" fill="none" stroke="#74b7f6" stroke-width="1"/>
    </g>
    <g id="2765" data-name="2765" transform="translate(-7616.495 -1595.495)">
      <g id="15" data-name="15" transform="translate(-4235.505 -3984.505)" fill="none" stroke="#3772ff" stroke-width="1">
        <circle cx="16.5" cy="16.5" r="16.5" stroke="none"/>
        <circle cx="16.5" cy="16.5" r="16" fill="none"/>
      </g>
      <circle id="16" data-name="16" cx="5.5" cy="5.5" r="5.5" transform="translate(-4224.505 -3973.505)" fill="#3772ff"/>
    </g>
    <circle id="16-2" data-name="16" cx="5.5" cy="5.5" r="5.5" transform="translate(-11874 -5474)" fill="#3772ff"/>
    <circle id="16-3" data-name="16" cx="5.5" cy="5.5" r="5.5" transform="translate(-12124 -5845)" fill="#3772ff"/>
    <g id="2786" data-name="2786" transform="translate(-7907.495 -1714.495)">
      <g id="15-2" data-name="15" transform="translate(-4235.505 -3984.505)" fill="none" stroke="#3772ff" stroke-width="1">
        <circle cx="16.5" cy="16.5" r="16.5" stroke="none"/>
        <circle cx="16.5" cy="16.5" r="16" fill="none"/>
      </g>
      <circle id="16-4" data-name="16" cx="5.5" cy="5.5" r="5.5" transform="translate(-4224.505 -3973.505)" fill="#3772ff"/>
    </g>
    <g id="2787" data-name="2787" transform="translate(-7906.495 -1567.495)">
      <g id="15-3" data-name="15" transform="translate(-4235.505 -3984.505)" fill="none" stroke="#3772ff" stroke-width="1">
        <circle cx="16.5" cy="16.5" r="16.5" stroke="none"/>
        <circle cx="16.5" cy="16.5" r="16" fill="none"/>
      </g>
      <circle id="16-5" data-name="16" cx="5.5" cy="5.5" r="5.5" transform="translate(-4224.505 -3973.505)" fill="#3772ff"/>
    </g>
    <g id="2781" data-name="2781" transform="translate(-7539.495 -1809.495)">
      <g id="15-4" data-name="15" transform="translate(-4235.505 -3984.505)" fill="none" stroke="#3772ff" stroke-width="1">
        <circle cx="16.5" cy="16.5" r="16.5" stroke="none"/>
        <circle cx="16.5" cy="16.5" r="16" fill="none"/>
      </g>
      <circle id="16-6" data-name="16" cx="5.5" cy="5.5" r="5.5" transform="translate(-4224.505 -3973.505)" fill="#3772ff"/>
    </g>
    <g id="2769" data-name="2769" transform="translate(-7500.289 -1591.289)">
      <g id="15-5" data-name="15" transform="translate(-4235.711 -3984.711)" fill="none" stroke="#3772ff" stroke-width="1">
        <circle cx="12.5" cy="12.5" r="12.5" stroke="none"/>
        <circle cx="12.5" cy="12.5" r="12" fill="none"/>
      </g>
      <circle id="16-7" data-name="16" cx="4.5" cy="4.5" r="4.5" transform="translate(-4227.711 -3976.711)" fill="#fdd333"/>
    </g>
    <g id="2780" data-name="2780" transform="translate(-7568.289 -1713.289)">
      <g id="15-6" data-name="15" transform="translate(-4235.711 -3984.711)" fill="none" stroke="#3772ff" stroke-width="1">
        <circle cx="12.5" cy="12.5" r="12.5" stroke="none"/>
        <circle cx="12.5" cy="12.5" r="12" fill="none"/>
      </g>
      <circle id="16-8" data-name="16" cx="4.5" cy="4.5" r="4.5" transform="translate(-4227.711 -3976.711)" fill="#3772ff"/>
    </g>
    <circle id="16-9" data-name="16" cx="4.5" cy="4.5" r="4.5" transform="translate(-11898 -5876)" fill="#3772ff"/>
    <g id="2783" data-name="2783" transform="translate(-7809.289 -1557.289)">
      <g id="15-7" data-name="15" transform="translate(-4235.711 -3984.711)" fill="none" stroke="#3772ff" stroke-width="1">
        <circle cx="12.5" cy="12.5" r="12.5" stroke="none"/>
        <circle cx="12.5" cy="12.5" r="12" fill="none"/>
      </g>
      <circle id="16-10" data-name="16" cx="4.5" cy="4.5" r="4.5" transform="translate(-4227.711 -3976.711)" fill="#fdd333"/>
    </g>
    <g id="2784" data-name="2784" transform="translate(-7765.289 -1483.289)">
      <g id="15-8" data-name="15" transform="translate(-4235.711 -3984.711)" fill="none" stroke="#3772ff" stroke-width="1">
        <circle cx="12.5" cy="12.5" r="12.5" stroke="none"/>
        <circle cx="12.5" cy="12.5" r="12" fill="none"/>
      </g>
      <circle id="16-11" data-name="16" cx="4.5" cy="4.5" r="4.5" transform="translate(-4227.711 -3976.711)" fill="#3772ff"/>
    </g>
    <g id="2782" data-name="2782" transform="translate(-7782.289 -1830.289)">
      <g id="15-9" data-name="15" transform="translate(-4235.711 -3984.711)" fill="none" stroke="#3772ff" stroke-width="1">
        <circle cx="12.5" cy="12.5" r="12.5" stroke="none"/>
        <circle cx="12.5" cy="12.5" r="12" fill="none"/>
      </g>
      <circle id="16-12" data-name="16" cx="4.5" cy="4.5" r="4.5" transform="translate(-4227.711 -3976.711)" fill="#fdd333"/>
    </g>
    <g id="2972" data-name="2972" transform="translate(256.913 -372.79)">
      <path id="665" data-name="665" d="M137.58,68.79A68.79,68.79,0,1,1,68.79,0a68.79,68.79,0,0,1,68.79,68.79" transform="translate(-12251 -5362)" fill="#3772ff"/>
      <g id="2970" data-name="2970" transform="translate(-12225.187 -5334.583)">
        <g id="2961" data-name="2961">
          <g id="2960" data-name="2960" clip-path="url(#clip-path)">
            <path id="651" data-name="651" d="M152.821,33.63h-.113a12.616,12.616,0,0,0-12.094,9.22h9.572Z" transform="translate(-97.457 -23.308)" fill="#fff"/>
            <path id="652" data-name="652" d="M94.6,0h0A13.2,13.2,0,0,0,82.059,9.24l-3.243,10.3h9.572Z" transform="translate(-54.626)" fill="#fff"/>
            <path id="653" data-name="653" d="M176.953,87.622c1.354-7.195-2.585-12.771-9.783-13.843a9.336,9.336,0,0,0-1.013-.091H152.774v9.656l9.5-.03A5.4,5.4,0,0,1,165.9,84.63c1.792,1.6,1.913,3.967.131,6.442a7.407,7.407,0,0,1-6.258,3.38l-9.78-.023a13.318,13.318,0,0,0-12.83,9.51q-.041.138-.076.268h6.124c4.839,0,9.68-.057,14.518.023,2.876.048,4.426,2.179,3.855,5.03a7.683,7.683,0,0,1-7.235,5.946c-2.636,0-6.376-.005-9.832-.012a13.292,13.292,0,0,0-12.717,9.245c-.05.16-.091.3-.121.416h1.7c5.7,0,11.409-.039,17.112.005,8.265.065,14.384-3.729,18.612-10.591,2.53-4.107,3.653-8.58,1.563-13.324-.246-.558-.529-1.1-.744-1.541,3.442-3.376,6.136-7.024,7.031-11.782" transform="translate(-91.264 -51.071)" fill="#fdd333"/>
            <path id="654" data-name="654" d="M163.771,105.021a3.277,3.277,0,0,0-.5.039,2.717,2.717,0,0,0,.5-.039" transform="translate(-113.161 -72.788)" fill="#fff"/>
            <path id="655" data-name="655" d="M37.293,73.692q-12.308,0-24.616.006A13.092,13.092,0,0,0,.027,83.278c-.009.034-.018.068-.027.1H21.229L10.148,124.856a11.947,11.947,0,0,0,12.018-8.792c1.648-6.041,3.726-13.675,4.993-18.392,1.152-4.285,2.266-8.58,3.314-12.891.2-.82.494-1.241,1.107-1.4H39.56l-6.348,23.759c-1.575,5.895-7.248,26.579-7.248,26.579a10.707,10.707,0,0,0,11.753-7.741c1.9-6.84,4.335-15.608,5.211-18.838q1.284-4.733,2.562-9.467c1.151-4.285,2.266-8.58,3.314-12.891.219-.9.558-1.318,1.307-1.437a3.245,3.245,0,0,1,.5-.039c.028,0,.051,0,.08,0,2.567.029,6.516.048,10.153.06A11.165,11.165,0,0,0,71.678,75l.02-.076c.094-.36.338-1.235.338-1.235s-17.305,0-34.744,0" transform="translate(0 -51.071)" fill="#fff"/>
          </g>
        </g>
      </g>
    </g>
  </g>
</svg>
