<svg xmlns="http://www.w3.org/2000/svg" width="20" height="20" viewBox="0 0 20 20">
  <path id="左下箭头方形" d="M194.883,214.56a.323.323,0,0,1-.323-.323V194.883a.323.323,0,0,1,.323-.323h19.355a.323.323,0,0,1,.323.323v19.355a.323.323,0,0,1-.323.323Zm.323-.645h18.71v-18.71h-18.71Zm5.256-5.256a.323.323,0,0,1-.027-.426l.027-.03,7.514-7.514h-5.028a.323.323,0,0,1-.32-.285l0-.038a.323.323,0,0,1,.285-.32l.038,0h5.831l.041.005.036.01.036.014.032.017.031.022.029.026a.325.325,0,0,1,.031.036l.023.035.017.037.011.034.01.048,0,.037v5.806a.323.323,0,0,1-.643.038l0-.038v-5.027l-7.514,7.513a.323.323,0,0,1-.456,0Z" transform="translate(-194.56 -194.56)" fill="#3772ff"/>
</svg>
