<svg xmlns="http://www.w3.org/2000/svg" width="60" height="60" viewBox="0 0 56.581 61.009">
  <g id="个人" transform="translate(-63.604 -39.954)">
    <path id="路径_33" data-name="路径 33" d="M117.5,100.463H66.3a1.332,1.332,0,0,1-1.239-.84,13.423,13.423,0,0,1,.426-10.287c2.212-4.344,7.276-5.41,10.007-5.983l.107-.027c.573-.12,5.57-1.279,5.317-4.917-.107-1.532-1.213-3-2.385-4.544-1.359-1.8-2.892-3.824-3.225-6.436-.04-.306-.107-.706-.173-1.173-.653-4.1-2.159-13.738,2.9-20.028,2.8-3.478,7.156-5.41,12.939-5.757h.013c2.705-.133,6.343,1.2,7.582,3.585a2.6,2.6,0,0,0,1,.253c.267.04.56.093.893.16,1.826.373,6.649,3.291,7.129,12.193.053,1.066.12,2,.16,2.825.346,5.69.413,6.863-2.145,10.887-.346.546-.693,1.066-1.013,1.559-2.239,3.411-3.278,5.144-2.678,7.169.64,2.132,2.212,3.7,8.062,4.97,6.236,1.359,8.262,4.491,8.915,6.223a15.83,15.83,0,0,1-.16,9.3A1.311,1.311,0,0,1,117.5,100.463ZM67.262,97.8h49.264a13.352,13.352,0,0,0-.107-6.569c-.373-1-1.8-3.425-6.982-4.557-5.13-1.119-8.808-2.705-10.047-6.809-1-3.318.76-6,3-9.408.32-.493.653-1,1-1.532,2.105-3.278,2.079-3.731,1.732-9.288-.053-.826-.107-1.772-.16-2.852-.4-7.289-4.064-9.514-5.024-9.7-.267-.053-.52-.093-.76-.133a3.608,3.608,0,0,1-2.865-1.492c-.027-.04-.04-.08-.067-.12-.586-1.2-3.118-2.279-5.117-2.185-5.01.293-8.715,1.906-11.02,4.757-4.331,5.37-2.932,14.178-2.345,17.936.08.48.147.906.187,1.239.253,1.919,1.439,3.5,2.705,5.184,1.346,1.8,2.745,3.651,2.9,5.97a6.31,6.31,0,0,1-2.638,5.557,12.112,12.112,0,0,1-4.8,2.145l-.107.027c-2.452.52-6.543,1.373-8.168,4.584A10.857,10.857,0,0,0,67.262,97.8Z" transform="translate(0 0)" fill="#3772ff" stroke="#3772ff" stroke-width="1"/>
  </g>
</svg>
