<svg xmlns="http://www.w3.org/2000/svg" width="49.423" height="49.44" viewBox="0 0 49.423 49.44">
  <g id="蓝色" transform="translate(0.75 0.75)">
    <path id="路径_611" data-name="路径 611" d="M88.195,112.057a23.97,23.97,0,1,1,16.95-7.02A23.877,23.877,0,0,1,88.195,112.057Zm0-2.4a21.808,21.808,0,0,0,8.116-1.575A21.962,21.962,0,0,0,108.193,96.2a21.694,21.694,0,0,0,0-16.231A21.962,21.962,0,0,0,96.31,68.089a21.694,21.694,0,0,0-16.231,0A21.962,21.962,0,0,0,68.2,79.972a21.694,21.694,0,0,0,0,16.231,21.962,21.962,0,0,0,11.882,11.882A21.809,21.809,0,0,0,88.195,109.66Z" transform="translate(-64.233 -64.117)" fill="#fff" stroke="#fff" stroke-width="1.5"/>
    <path id="路径_612" data-name="路径 612" d="M470.914,224.429a2.525,2.525,0,0,0,1.826-.742,2.531,2.531,0,0,0,0-3.622,2.642,2.642,0,0,0-3.652,0,2.531,2.531,0,0,0,0,3.622A2.525,2.525,0,0,0,470.914,224.429Zm1.966,26.465-.441-22.231h-3.17l-.441,22.231Z" transform="translate(-446.669 -211.273)" fill="#fff" stroke="#fff" stroke-width="1.5"/>
  </g>
</svg>
