<svg xmlns="http://www.w3.org/2000/svg" width="26" height="26" viewBox="0 0 26 26">
  <g id="语言-实" transform="translate(-129.945 -129.944)">
    <path id="路径_59" data-name="路径 59" d="M142.945,129.944h-.031a13,13,0,0,0,0,26h.031a13,13,0,1,0,0-26Zm0,24.962h-.031a11.959,11.959,0,0,1,0-23.919h.031a11.959,11.959,0,1,1,0,23.919Z" transform="translate(0 0)" fill="#8a9ac2"/>
    <path id="路径_60" data-name="路径 60" d="M206.172,198.541a17.712,17.712,0,0,1-3.619.487v4.256h4.225a21.434,21.434,0,0,0-.606-4.744Zm-3.625-5.581v5.119a16.509,16.509,0,0,0,3.362-.45C205.091,195.041,203.816,193.341,202.547,192.959Zm-4.431,4.663a16.818,16.818,0,0,0,3.387.456v-5.131C200.235,193.316,198.941,195.016,198.116,197.622Zm11.7-1.481a10.886,10.886,0,0,0-5.244-2.969,10.635,10.635,0,0,1,2.256,4.206,16.519,16.519,0,0,0,2.988-1.237Zm-2.081,7.144h5.206a10.866,10.866,0,0,0-2.469-6.412,17.523,17.523,0,0,1-3.381,1.425,22.311,22.311,0,0,1,.644,4.987Zm-10.487,0h4.262v-4.256a17.531,17.531,0,0,1-3.65-.494,21.106,21.106,0,0,0-.612,4.75Zm9.531,1.037h-4.231v4.25a17.35,17.35,0,0,1,3.625.487A21.375,21.375,0,0,0,206.779,204.322Zm-8.919,4.744a17.533,17.533,0,0,1,3.65-.494v-4.25h-4.262a21,21,0,0,0,.612,4.744Zm3.65,5.587v-5.131a16.878,16.878,0,0,0-3.394.456c.825,2.606,2.119,4.312,3.394,4.675Zm3.063-.219a10.945,10.945,0,0,0,5.25-2.975,16.52,16.52,0,0,0-2.988-1.237A10.668,10.668,0,0,1,204.572,214.435Zm-5.125-21.25a10.917,10.917,0,0,0-5.206,2.962,16.36,16.36,0,0,0,2.956,1.225A10.665,10.665,0,0,1,199.447,193.185Zm7.644,16.125a17.415,17.415,0,0,1,3.388,1.425,10.866,10.866,0,0,0,2.469-6.413h-5.206A22.718,22.718,0,0,1,207.091,209.31Zm-4.544.212v5.125c1.269-.381,2.544-2.081,3.362-4.675A16.507,16.507,0,0,0,202.547,209.522Zm-5.606-11.231a17.12,17.12,0,0,1-3.356-1.419,10.866,10.866,0,0,0-2.469,6.412H196.3A21.963,21.963,0,0,1,196.941,198.291Zm-.65,6.031H191.11a10.866,10.866,0,0,0,2.469,6.412,17.508,17.508,0,0,1,3.356-1.419,22.689,22.689,0,0,1-.644-4.994Zm-2.056,7.138a10.907,10.907,0,0,0,5.212,2.962,10.694,10.694,0,0,1-2.25-4.194A16.907,16.907,0,0,0,194.235,211.46Z" transform="translate(-59.084 -60.859)" fill="#8a9ac2"/>
  </g>
</svg>
