<svg xmlns="http://www.w3.org/2000/svg" xmlns:xlink="http://www.w3.org/1999/xlink" width="140.157" height="37.482" viewBox="0 0 140.157 37.482">
  <defs>
    <clipPath id="clip-path">
      <rect id="508" data-name="508" width="23.417" height="22.543" fill="none"/>
    </clipPath>
  </defs>
  <g id="2979" data-name="2979" transform="translate(12282.741 5153.741)">
    <g id="2976" data-name="2976" transform="translate(-8.741 -53.741)">
      <path id="589" data-name="589" d="M37.482,18.741A18.741,18.741,0,1,1,18.741,0,18.741,18.741,0,0,1,37.482,18.741" transform="translate(-12274 -5100)" fill="#3772ff"/>
      <g id="2964" data-name="2964" transform="translate(-12266.967 -5092.53)">
        <g id="2961" data-name="2961" transform="translate(0 0)">
          <g id="2960" data-name="2960" clip-path="url(#clip-path)">
            <path id="651" data-name="651" d="M143.94,33.63h-.031a3.437,3.437,0,0,0-3.295,2.512h2.608Z" transform="translate(-128.856 -30.818)" fill="#fff"/>
            <path id="652" data-name="652" d="M83.115,0h0A3.6,3.6,0,0,0,79.7,2.517l-.884,2.807h2.608Z" transform="translate(-72.226)" fill="#fff"/>
            <path id="653" data-name="653" d="M144.013,77.483a3.018,3.018,0,0,0-2.665-3.771,2.539,2.539,0,0,0-.276-.025h-3.646v2.631l2.588-.008a1.472,1.472,0,0,1,.988.359,1.227,1.227,0,0,1,.036,1.755,2.018,2.018,0,0,1-1.705.921l-2.664-.006a3.629,3.629,0,0,0-3.5,2.591l-.021.073h1.668c1.318,0,2.637-.016,3.955.006a1.048,1.048,0,0,1,1.05,1.37A2.093,2.093,0,0,1,137.854,85l-2.679,0a3.621,3.621,0,0,0-3.465,2.519c-.014.043-.025.082-.033.113h.463c1.554,0,3.108-.011,4.662,0a5.6,5.6,0,0,0,5.071-2.886,3.744,3.744,0,0,0,.426-3.63c-.067-.152-.144-.3-.2-.42a6.052,6.052,0,0,0,1.916-3.21" transform="translate(-120.667 -67.526)" fill="#fdd333"/>
            <path id="654" data-name="654" d="M163.408,105.021a.9.9,0,0,0-.136.011.74.74,0,0,0,.136-.011" transform="translate(-149.62 -96.239)" fill="#fff"/>
            <path id="655" data-name="655" d="M10.16,73.688q-3.353,0-6.706,0A3.567,3.567,0,0,0,.007,76.3L0,76.327H5.784l-3.019,11.3a3.255,3.255,0,0,0,3.274-2.4c.449-1.646,1.015-3.726,1.36-5.011.314-1.167.617-2.338.9-3.512.054-.223.135-.338.3-.382h2.174L9.048,82.8c-.429,1.606-1.975,7.241-1.975,7.241a2.917,2.917,0,0,0,3.2-2.109c.518-1.864,1.181-4.252,1.42-5.132q.35-1.289.7-2.579c.314-1.167.617-2.338.9-3.512.06-.246.152-.359.356-.392a.883.883,0,0,1,.136-.011h.022c.7.008,1.775.013,2.766.016a3.042,3.042,0,0,0,2.952-2.278l.005-.021c.026-.1.092-.337.092-.337s-4.715,0-9.466,0" transform="translate(0 -67.525)" fill="#fff"/>
          </g>
        </g>
      </g>
    </g>
    <path id="592" data-name="592" d="M316.261,47.2l7.282-25.075h9.773a12.454,12.454,0,0,1,3.965.514,3.708,3.708,0,0,1,2.2,2.149,5.525,5.525,0,0,1,.079,3.839,7.983,7.983,0,0,1-6.172,5.566,4.388,4.388,0,0,1,3.38,2.149,5.3,5.3,0,0,1,.2,4,9.529,9.529,0,0,1-3.318,4.877,9.986,9.986,0,0,1-6.424,1.975Zm5.374-3.766h5.842a5.365,5.365,0,0,0,3.213-.974,4.773,4.773,0,0,0,1.837-2.627,2.734,2.734,0,0,0-.341-2.59,3.119,3.119,0,0,0-2.6-1.01h-5.86Zm3.132-10.783h5.511a4.64,4.64,0,0,0,2.966-1.01,4.975,4.975,0,0,0,1.73-2.572,2.355,2.355,0,0,0-.382-2.544,3.381,3.381,0,0,0-2.39-.817h-5.419Z" transform="translate(-12555.057 -5169.66)" fill="#4d4d4d"/>
    <path id="593" data-name="593" d="M557.471,47.2h-4.85L558.778,26H552.11l1.126-3.876h18.186L570.3,26h-6.668Z" transform="translate(-12764.652 -5169.659)" fill="#4d4d4d"/>
    <path id="594" data-name="594" d="M710.3,35.409l4.055.459a14.228,14.228,0,0,1-4.712,6.2,11.765,11.765,0,0,1-7.293,2.434q-3.435,0-5.074-1.727a7.7,7.7,0,0,1-1.937-4.684,17.235,17.235,0,0,1,.737-6.521,20.473,20.473,0,0,1,5.426-9.323,12.017,12.017,0,0,1,8.52-3.591,6.629,6.629,0,0,1,5.542,2.3q1.813,2.3,1.213,6.576l-4.316.441q.491-5.676-3.458-5.676a6.118,6.118,0,0,0-4.626,2.361A17.712,17.712,0,0,0,700.98,31.5q-1.323,4.556-.492,6.88A3.228,3.228,0,0,0,703.8,40.7a5.894,5.894,0,0,0,3.833-1.561,8.929,8.929,0,0,0,2.663-3.729" transform="translate(-12891.875 -5166.579)" fill="#4d4d4d"/>
    <path id="595" data-name="595" d="M881.877,47.2h-4.519l7.282-25.075h10.269q4.39,0,5.87,2.214a5.987,5.987,0,0,1,.6,5.226,10.273,10.273,0,0,1-3.913,5.566,10.668,10.668,0,0,1-6.442,2.131h-6.264Zm4.012-13.814h5.346a5.745,5.745,0,0,0,3.5-1.029,5.044,5.044,0,0,0,1.9-2.737,3.118,3.118,0,0,0-.251-2.645q-.7-1.1-3.363-1.1h-4.941Z" transform="translate(-13053.695 -5169.66)" fill="#4d4d4d"/>
    <path id="596" data-name="596" d="M1081.726,47.2h-4.188l5.388-18.554h4.188Zm6.018-20.721h-4.188l1.264-4.354h4.188Z" transform="translate(-13231.593 -5169.66)" fill="#4d4d4d"/>
    <rect id="392" data-name="392" width="131.416" height="30" transform="translate(-12274 -5150)" fill="none"/>
  </g>
</svg>
