<svg xmlns="http://www.w3.org/2000/svg" width="36" height="36" viewBox="0 0 36 36">
  <g id="组_2956" data-name="组 2956" transform="translate(-14371 -7366)">
    <path id="路径_650" data-name="路径 650" d="M22,11A11,11,0,1,1,11,0,11,11,0,0,1,22,11" transform="translate(14378 7373)" fill="#54effb"/>
    <rect id="矩形_503" data-name="矩形 503" width="22" height="22" transform="translate(14378 7373)" fill="none"/>
    <g id="椭圆_32" data-name="椭圆 32" transform="translate(14371 7366)" fill="none" stroke="#fff" stroke-width="2">
      <circle cx="18" cy="18" r="18" stroke="none"/>
      <circle cx="18" cy="18" r="17" fill="none"/>
    </g>
    <g id="组_2904" data-name="组 2904" transform="translate(1510.647 1463.075)">
      <path id="路径_629" data-name="路径 629" d="M6.759,4.479H8.412c0-.838-.022-1.667.006-2.5A1.936,1.936,0,0,1,9.773.135a2,2,0,0,1,2.172.556,2.054,2.054,0,0,1,.464,1.855c-.152.779-.325,1.557-.432,2.343a.83.83,0,0,0,.289.6,4.538,4.538,0,0,0,.792.474,4.653,4.653,0,0,1-.215,8,10.584,10.584,0,0,1-10.28.1A4.306,4.306,0,0,1,.008,10.244,4.535,4.535,0,0,1,2.517,5.73c.248-.14.5-.275.757-.419-.184-1.04-.4-2.053-.535-3.076A1.95,1.95,0,0,1,3.833.215a1.9,1.9,0,0,1,2.26.359,3.813,3.813,0,0,1,.643,1.459,4.789,4.789,0,0,1,.023,1.188c0,.4,0,.791,0,1.258m7.78,5.53c.163-2.414-1.454-3.457-3.364-4.3.05-.291.094-.571.144-.849.156-.866.361-1.727.459-2.6A1.291,1.291,0,0,0,10.5.683,1.291,1.291,0,0,0,9.094,2.139c-.01,1,0,2.009,0,3H6.1c0-1.042.006-2.033,0-3.024A1.326,1.326,0,0,0,4.657.683,1.273,1.273,0,0,0,3.41,2.216c.073.743.24,1.477.379,2.211.233,1.229.233,1.219-.862,1.818A3.651,3.651,0,0,0,.676,9.88a3.267,3.267,0,0,0,1.433,3.143,10.1,10.1,0,0,0,10.734.2,3.557,3.557,0,0,0,1.7-3.211" transform="translate(12870.736 5912.925)" fill="#6f4122"/>
      <path id="路径_630" data-name="路径 630" d="M.831,10.038A3.649,3.649,0,0,1,3.081,6.4c1.1-.6,1.1-.589.863-1.818-.14-.735-.307-1.469-.38-2.211A1.273,1.273,0,0,1,4.811.841,1.325,1.325,0,0,1,6.25,2.276c.008.991,0,1.982,0,3.024H9.246c0-.994-.006-2,0-3A1.291,1.291,0,0,1,10.655.841a1.291,1.291,0,0,1,1.279,1.575c-.1.873-.3,1.733-.46,2.6-.05.278-.095.558-.144.849,1.909.846,3.526,1.889,3.364,4.3a5.786,5.786,0,0,1-4.776,3.3,14.051,14.051,0,0,1-3.985.082C3.718,13.223,1.71,12.4.831,10.038M11.142,9.18c0-.718-.31-1.169-.8-1.147-.429.019-.833.623-.764,1.214.059.5.157,1.04.8,1.122.426.055.761-.5.764-1.188m-5.306,0c-.007-.61-.361-1.136-.771-1.149-.427-.013-.809.55-.805,1.188,0,.592.375,1.141.778,1.149.437.009.807-.542.8-1.188" transform="translate(12870.583 5912.767)" fill="#ce9058"/>
      <path id="路径_631" data-name="路径 631" d="M.827,12.171c.879,2.361,2.887,3.185,5.1,3.512A14.051,14.051,0,0,0,9.914,15.6a5.785,5.785,0,0,0,4.776-3.3,3.556,3.556,0,0,1-1.7,3.211,10.1,10.1,0,0,1-10.734-.2A3.268,3.268,0,0,1,.827,12.171" transform="translate(12870.586 5910.634)" fill="#f3d596"/>
      <path id="路径_632" data-name="路径 632" d="M13.172,10.848c0,.692-.339,1.244-.764,1.189-.641-.083-.739-.618-.8-1.123-.069-.591.335-1.194.764-1.214.488-.022.8.429.8,1.147" transform="translate(12868.553 5911.099)" fill="#713b1d"/>
      <path id="路径_633" data-name="路径 633" d="M6.634,10.847c.008.645-.362,1.2-.8,1.188-.4-.008-.774-.558-.778-1.149,0-.638.378-1.2.805-1.188.41.013.764.54.771,1.149" transform="translate(12869.784 5911.099)" fill="#713a1c"/>
      <rect id="矩形_455" data-name="矩形 455" width="15.233" height="15.341" transform="translate(12870.736 5912.925)" fill="none"/>
    </g>
  </g>
</svg>
