<svg xmlns="http://www.w3.org/2000/svg" xmlns:xlink="http://www.w3.org/1999/xlink" width="81.946" height="81.946" viewBox="0 0 81.946 81.946">
  <defs>
    <radialGradient id="radial-gradient" cx="0.5" cy="0.5" r="0.501" gradientUnits="objectBoundingBox">
      <stop offset="0" stop-color="#6f3b8d"/>
      <stop offset="1" stop-color="#5e3e89"/>
    </radialGradient>
  </defs>
  <g id="组_2943" data-name="组 2943" transform="translate(-242.525 -407.089)">
    <circle id="椭圆_3" data-name="椭圆 3" cx="39.973" cy="39.973" r="39.973" transform="translate(243.525 408.089)" stroke="#fff" stroke-width="2" fill="url(#radial-gradient)"/>
    <path id="路径_206_1_" d="M59.824,11.678a34.1,34.1,0,0,0-17.708-6.62,36.76,36.76,0,0,0-18.37,3.31c-1.324.662-2.648,1.489-3.972,2.317a29.9,29.9,0,0,0-3.806,2.979,31.251,31.251,0,0,0-3.31,3.31c-.331.331-.5.662-.827.993a3.462,3.462,0,0,0-.662.993l-.662.828-.662.993A35.094,35.094,0,0,0,4.216,38.82a31.611,31.611,0,0,1,.993-9.6c.165-.827.5-1.489.662-2.317.331-.827.5-1.489.828-2.317a34.783,34.783,0,0,1,2.151-4.3,33.429,33.429,0,0,1,6.123-7.447A21.54,21.54,0,0,1,18.78,9.858c1.324-.827,2.813-1.655,4.3-2.482A31.9,31.9,0,0,1,32.351,4.4c.827-.165,1.655-.165,2.482-.331L35.992,3.9h1.324a44.933,44.933,0,0,1,4.8.165,31.828,31.828,0,0,1,9.433,2.482,21.592,21.592,0,0,1,4.3,2.317A24.241,24.241,0,0,1,59.824,11.678Z" transform="translate(245.268 409.65)" fill="#fff"/>
    <path id="路径_207_1_" d="M11.6,51.38a34.949,34.949,0,0,0,17.708,7.282,23.3,23.3,0,0,0,4.8.165,23.632,23.632,0,0,0,4.8-.5,37.919,37.919,0,0,0,4.634-1.159c1.49-.5,2.979-.993,4.468-1.655A37.286,37.286,0,0,0,62.408,43.1,34.349,34.349,0,0,0,68.2,24.9a32.238,32.238,0,0,1-1.159,9.764A38.189,38.189,0,0,1,65.387,39.3c-.331.827-.662,1.49-.993,2.317-.331.662-.827,1.49-1.158,2.152-.5.662-.828,1.324-1.324,1.986l-1.49,1.986a17.29,17.29,0,0,1-3.475,3.475,17.818,17.818,0,0,1-3.972,2.979,36.431,36.431,0,0,1-4.3,2.482A38.543,38.543,0,0,1,44.038,58.5c-1.655.5-3.144.827-4.8,1.158a33.287,33.287,0,0,1-9.93,0,40.958,40.958,0,0,1-4.8-.993,22.486,22.486,0,0,1-4.634-1.82,22.338,22.338,0,0,1-4.3-2.482A17.818,17.818,0,0,1,11.6,51.38Z" transform="translate(249.313 422.587)" fill="#fff"/>
    <path id="路径_208_1_" d="M49.719,13.483A27.147,27.147,0,0,0,36.314,9.842H34.659c-.5,0-1.159.166-1.655.166a25.694,25.694,0,0,0-3.475.662,21.775,21.775,0,0,0-6.454,2.482,28.786,28.786,0,0,0-2.979,1.82c-.993.662-1.82,1.49-2.648,2.152a26.237,26.237,0,0,0-4.3,5.3A28.915,28.915,0,0,0,9.006,35.66a26.391,26.391,0,0,1,3.31-13.736L14.3,18.945a9.46,9.46,0,0,1,1.159-1.324A9.986,9.986,0,0,1,16.785,16.3a25.113,25.113,0,0,1,5.792-4.3,23.8,23.8,0,0,1,6.785-2.482,25.694,25.694,0,0,1,3.475-.662,13.4,13.4,0,0,1,3.641,0A24.175,24.175,0,0,1,49.719,13.483Z" transform="translate(248.422 412.811)" fill="#fff"/>
    <path id="路径_209_1_" d="M16.1,44.946a26.788,26.788,0,0,0,12.247,3.972,10.019,10.019,0,0,0,3.144,0l1.655-.165c.5,0,.993-.166,1.655-.166l.827-.166.827-.165c.5-.166.993-.166,1.49-.331a22.1,22.1,0,0,0,2.979-1.158l.662-.331.331-.165.331-.165,1.49-.662c.5-.331.827-.5,1.324-.828l.662-.5.662-.5a28.583,28.583,0,0,0,4.634-4.3L52.013,38l.827-1.324a5.806,5.806,0,0,0,.827-1.324L54,34.686a1.255,1.255,0,0,0,.331-.662l.662-1.489a5.879,5.879,0,0,1,.662-1.49l.331-.827a1.492,1.492,0,0,0,.165-.827l.5-1.489a17.578,17.578,0,0,1-.662,3.144c-.166.5-.331.993-.5,1.655l-.662,1.489c-.166.331-.166.5-.331.827l-.331.662a6.708,6.708,0,0,1-.827,1.489l-.827,1.49-.993,1.324a24.572,24.572,0,0,1-4.634,4.634l-.662.5-.662.5a6.708,6.708,0,0,1-1.489.827l-1.49.827-.165.165-.331.165-.828.331a24.13,24.13,0,0,1-3.144,1.159c-.5.165-1.158.165-1.655.331l-.827.166-.827.165c-.5,0-1.159.165-1.655.165H31.491a22.181,22.181,0,0,1-3.31-.165A24.251,24.251,0,0,1,16.1,44.946Z" transform="translate(252.261 424.553)" fill="#fff"/>
    <path id="路径_214_2_" d="M21.4,11.1c.331.331,1.655,2.317,2.151,2.813a4.494,4.494,0,0,1,.993,2.813v5.792H21.4V11.1Z" transform="translate(256.195 414.2)" fill="#fdd333"/>
    <path id="路径_215_2_" d="M29.944,19.275H26.8V15.8Z" transform="translate(259.621 417.202)" fill="#fdd333"/>
    <path id="路径_216_2_" d="M24.841,32.357v-10.1c0-.662,0-.662-.662-.662H21.862c-.5,0-.662.166-.662.662v4.965h0v.993h0s.166,12.412.166,15.226a2.1,2.1,0,0,1,.165-.993l.5-4.965v-.166a.608.608,0,0,1,.5-.166.162.162,0,0,1,.165.166v.166c0,1.82.166,3.806.166,5.627v2.317h.165c.166-1.986.331-4.137.5-6.123h0c0-.165.165-.331.331-.165.166,0,.166.165.331.331h0c.166,2.482.166,4.8.331,7.282.165-1.82.165-3.641.331-5.627C24.675,39.474,24.841,32.523,24.841,32.357Z" transform="translate(256.065 420.708)" fill="#fdd333"/>
    <path id="路径_217_2_" d="M37.582,20.206a14.236,14.236,0,0,1-2.648.166h-9.1a31.89,31.89,0,0,0-3.972.165,4.868,4.868,0,0,0-4.3,3.144,6.16,6.16,0,0,0-.331,2.979c.166.827.331,1.82.5,2.648a2.1,2.1,0,0,0,.166-.993,5.078,5.078,0,0,1,3.31-3.972,13.052,13.052,0,0,1,4.965-.827h6.123c.662,0,.662,0,.662.662,0,3.641.166,21.018.331,24.163v.331c0-.165.166-.331.166-.5,0-1.159.166-2.483.166-3.641,0-.331,0-.662.331-.662s.331.5.331.827c.166,2.648.166,5.3.331,7.944h.165V48.838a20.029,20.029,0,0,1,.166-3.145c0-.331,0-.828.5-.828.331,0,.5.5.5.828v2.151c0,2.483.166,4.8.166,7.282,0-2.317.331-22.342.331-22.342v-.165h0v-8.44c0-.993-.166-.827.827-.993A6.794,6.794,0,0,0,43.044,16.4C42.216,18.882,40.065,19.875,37.582,20.206Z" transform="translate(253.364 417.02)" fill="#fdd333"/>
    <path id="路径_218_2_" d="M34.463,25.6v.662c5.792.166,10.1,1.159,10.1,2.317,0,1.324-5.792,2.317-13.074,2.317S18.41,29.9,18.41,28.579c0-1.159,4.468-1.986,10.261-2.317V25.6c-7.613.331-13.571,1.655-13.571,3.475,0,1.986,7.282,3.476,16.219,3.476s16.219-1.49,16.219-3.476C47.7,27.255,42.076,25.931,34.463,25.6Z" transform="translate(252.018 423.397)" fill="#fdd333"/>
    <path id="路径_220_1_" d="M6.2,20.323,6.7,19c.331-.993.828-1.49,1.82-1.158a1.357,1.357,0,0,1,.828,1.986l-.165.662,1.655.5-.165.662Zm2.482-.5c.165-.662.165-1.158-.5-1.324-.5-.166-.827.166-1.158.828l-.165.5,1.655.5Z" transform="translate(246.594 418.431)" fill="#fff"/>
    <path id="路径_221_1_" d="M7.6,16.162l.331-.662L11.9,17.651l-.331.662Z" transform="translate(247.511 417.014)" fill="#fff"/>
    <path id="路径_222_1_" d="M8.8,14.848l.5-.662,2.979.5.993.166h0a9.238,9.238,0,0,0-1.324-.827L10.29,12.7l.5-.5,3.641,2.813-.331.662-3.144-.5-.993-.166h0a9.238,9.238,0,0,0,1.324.827l1.655,1.324-.5.5Z" transform="translate(248.297 414.913)" fill="#fff"/>
    <path id="路径_223_1_" d="M11.5,11.42,13.486,9.6l.331.5L12.328,11.42l.827.993,1.324-1.158.331.5L13.486,12.91l.993,1.158,1.489-1.324.331.5-2.151,1.82Z" transform="translate(249.911 413.384)" fill="#fff"/>
    <path id="路径_224_1_" d="M15.489,9.255l-1.158.662L14,9.42,16.979,7.6l.331.5-1.159.662,1.986,3.475-.662.331Z" transform="translate(251.497 412.074)" fill="#fff"/>
    <path id="路径_225_1_" d="M17.2,7.555l.662-.165,1.159,2.151.662,1.324h0c0-.5-.166-.993-.166-1.489l-.166-2.482.662-.166,1.324,2.151c.331.5.5.827.827,1.324h0A4.582,4.582,0,0,1,22,8.714l-.5-2.648.662-.165.662,4.634L22,10.865,20.675,8.713a10.137,10.137,0,0,1-.662-.993h0c0,.331.166.662.166.993l.166,2.648-.828.331Z" transform="translate(253.521 410.96)" fill="#fff"/>
    <path id="路径_226_1_" d="M22.008,7.982C21.843,6.493,22.67,5.5,23.829,5.5A2,2,0,0,1,25.98,7.651c.166,1.489-.662,2.482-1.821,2.482S22.174,9.472,22.008,7.982Zm3.31-.331C25.153,6.659,24.656,6,23.829,6s-1.159.827-1.159,1.82c.165.993.662,1.655,1.489,1.655s1.159-.827,1.159-1.82Z" transform="translate(256.563 410.698)" fill="#fff"/>
    <path id="路径_227_1_" d="M28.317,10.365l-.828-1.986-.662-.165-.166,1.82H26L26.5,5.4l1.489.165c.993.166,1.655.5,1.489,1.489a1.131,1.131,0,0,1-1.158,1.158l.827,1.986ZM26.828,7.717h.662c.662,0,.993-.165,1.159-.662,0-.5-.331-.827-.993-.827h-.662Z" transform="translate(259.111 410.633)" fill="#fff"/>
    <path id="路径_228_1_" d="M30.358,6.1l.662.166-.662,1.986h0l2.317-1.49.828.166L31.682,8.251l.662,3.144-.828-.166-.5-2.482-.827.5-.331,1.324L29.2,10.4Z" transform="translate(261.135 411.091)" fill="#fff"/>
    <path id="路径_229_1_" d="M39.3,36l.166.662a1.5,1.5,0,0,0-1.158.5,1.045,1.045,0,0,0-.166,1.159c.331.331.662.165.993,0l.662-.331a1.047,1.047,0,0,1,1.49.166,1.506,1.506,0,0,1,0,1.986h0a2.043,2.043,0,0,1-1.324.662l-.165-.662a1.43,1.43,0,0,0,.993-.5.621.621,0,0,0,0-.993c-.331-.331-.662,0-.993.165l-.662.331a1.047,1.047,0,0,1-1.49-.165,1.51,1.51,0,0,1,0-1.986h0A2.015,2.015,0,0,1,39.3,36Z" transform="translate(266.13 430.008)" fill="#fff"/>
    <path id="路径_230_1_" d="M39.129,41.806l-1.159.828c-.827.662-1.655.827-2.152,0a1.752,1.752,0,0,1,.166-2.151l.165-.166.5-.5L35.653,38.5l.5-.5Zm-2.483-.993c-.662.5-.662.827-.331,1.324s.827.331,1.324,0l.5-.331-.993-1.324Z" transform="translate(265.148 431.168)" fill="#fff"/>
    <path id="路径_231_1_" d="M33.29,42.017l1.49-.662-.331-1.324.662-.331.827,4.8-.662.331L31.8,41.521l.662-.331Zm.5.5.5.5a7.646,7.646,0,0,0,1.159,1.158h0c-.166-.5-.166-.993-.331-1.489l-.165-.827Z" transform="translate(262.784 432.282)" fill="#fff"/>
    <path id="路径_232_1_" d="M32.806,43.023a2.066,2.066,0,0,1-1.158,2.814h-.165a2.337,2.337,0,0,1-1.49-.166l.166-.5a2.1,2.1,0,0,0,.993.166c.827-.166,1.159-.993.827-1.986s-.993-1.49-1.82-1.324a1.36,1.36,0,0,0-.828.827L29,42.527a1.75,1.75,0,0,1,1.159-.993,2.125,2.125,0,0,1,2.648,1.489C32.806,42.858,32.806,43.023,32.806,43.023Z" transform="translate(261.011 433.427)" fill="#fff"/>
    <path id="路径_233_1_" d="M29.144,46.534l-2.648.331V46.2l1.986-.165-.166-1.324-1.655.165v-.662l1.655-.165-.166-1.489L26,42.893v-.662l2.813-.331Z" transform="translate(259.113 433.723)" fill="#fff"/>
    <path id="路径_234_1_" d="M25.579,46.734l-1.324-.165c-.993,0-1.655-.5-1.655-1.49s.827-1.324,1.82-1.324h.662l.166-1.655h.662Zm-1.158-2.317c-.662,0-1.159.166-1.159.827s.331.827.993.827h.662l.165-1.655Z" transform="translate(256.956 433.854)" fill="#fff"/>
  </g>
</svg>
