<svg xmlns="http://www.w3.org/2000/svg" xmlns:xlink="http://www.w3.org/1999/xlink" width="36" height="36" viewBox="0 0 36 36">
  <defs>
    <clipPath id="clip-path">
      <rect id="矩形_501" data-name="矩形 501" width="13.203" height="19.448" fill="none"/>
    </clipPath>
  </defs>
  <g id="组_2955" data-name="组 2955" transform="translate(-14373 -7318)">
    <path id="路径_649" data-name="路径 649" d="M22,11A11,11,0,1,1,11,0,11,11,0,0,1,22,11" transform="translate(14380 7325)" fill="#643d8a"/>
    <rect id="矩形_502" data-name="矩形 502" width="22" height="22" transform="translate(14380 7325)" fill="none"/>
    <g id="椭圆_31" data-name="椭圆 31" transform="translate(14373 7318)" fill="none" stroke="#fff" stroke-width="2">
      <circle cx="18" cy="18" r="18" stroke="none"/>
      <circle cx="18" cy="18" r="17" fill="none"/>
    </g>
    <g id="组_2948" data-name="组 2948" transform="translate(14384.398 7327.276)">
      <g id="组_2947" data-name="组 2947" transform="translate(0 0)" clip-path="url(#clip-path)">
        <path id="路径_644" data-name="路径 644" d="M7.7,0c.127.161.706.912.9,1.132A1.633,1.633,0,0,1,8.99,2.288c0,.785-.014,1.425-.008,2.138v.2c-.312,0-.976,0-1.287,0V4.468Q7.7,2.273,7.7.077A.151.151,0,0,1,7.7,0" transform="translate(-3.568 0)" fill="#fdd333"/>
        <path id="路径_645" data-name="路径 645" d="M15.8,7.36c-.429,0-.883,0-1.254-.006l0-.137c-.006-.4,0-.8,0-1.26Z" transform="translate(-6.743 -2.761)" fill="#fdd333"/>
        <path id="路径_646" data-name="路径 646" d="M9,17.607V13.544c0-.246,0-.246-.254-.246-.319,0-.638.013-.955-.005-.2-.011-.245.056-.242.246.009.678,0,1.355.007,2.033v.434c0,.008.058,5.09.087,6.183.016-.14.032-.26.042-.38.058-.672.112-1.345.178-2.016a.111.111,0,0,1,.016-.043.137.137,0,0,1,.238.013.127.127,0,0,1,.012.045q.049,1.154.078,2.31c.009.313,0,.627,0,.94h.049c.069-.843.135-1.685.215-2.527a.115.115,0,0,1,.23.005v0c.043.978.076,1.957.113,2.935.041-.757.08-1.514.11-2.27.023-.647.076-3.512.076-3.6" transform="translate(-3.5 -6.162)" fill="#fdd333"/>
        <path id="路径_647" data-name="路径 647" d="M10.727,8.315A7.5,7.5,0,0,1,9.62,8.4c-1.228.011-2.457-.012-3.685-.009a11.9,11.9,0,0,0-1.6.063,2.024,2.024,0,0,0-1.742,1.3A2.592,2.592,0,0,0,2.447,11c.041.358.119.712.18,1.067a1.821,1.821,0,0,0,.07-.409,1.951,1.951,0,0,1,1.341-1.595A5.751,5.751,0,0,1,6.076,9.7c.834-.014,1.668,0,2.5-.005.268,0,.268,0,.268.26,0,1.5.081,8.539.121,9.838,0,.054.008.107.012.161a.461.461,0,0,0,.04-.2c.023-.489.071-.978.071-1.467,0-.138-.005-.293.158-.293.137,0,.147.195.152.316.05,1.087.094,2.174.14,3.261H9.6c0-.513-.006-1.027,0-1.54q.01-.639.054-1.278c.009-.131.015-.33.195-.322s.173.2.181.337c.018.3.025.6.031.9q.031,1.485.06,2.97c.03-.916.154-9.089.154-9.089v-.48a.639.639,0,0,1,0-.072c.008-.987,0-1.974,0-2.961,0-.429-.042-.352.357-.418a2.83,2.83,0,0,0,2.391-2.747,2.736,2.736,0,0,1-2.3,1.452" transform="translate(-1.125 -3.182)" fill="#fdd333"/>
        <path id="路径_648" data-name="路径 648" d="M7.765,18.271v.279c2.368.1,4.138.476,4.138.93,0,.527-2.374.954-5.3.954s-5.3-.429-5.3-.954c0-.459,1.8-.842,4.2-.933v-.279c-3.121.112-5.5.689-5.5,1.384,0,.776,2.956,1.4,6.6,1.4s6.6-.629,6.6-1.4c0-.691-2.348-1.265-5.438-1.382" transform="translate(0 -8.47)" fill="#fdd333"/>
      </g>
    </g>
  </g>
</svg>
