<svg xmlns="http://www.w3.org/2000/svg" width="20" height="20" viewBox="0 0 20 20">
  <g id="组_2901" data-name="组 2901" transform="translate(-1228 -286)">
    <circle id="椭圆_29" data-name="椭圆 29" cx="10" cy="10" r="10" transform="translate(1228 286)" fill="rgba(132,167,255,0.46)"/>
    <path id="问号" d="M285.949,202.667v1.718h1.717v-1.718Zm4.44-5.94a3,3,0,0,0,.377-1.483,3.1,3.1,0,0,0-1.072-2.371,4.1,4.1,0,0,0-2.874-.98,3.69,3.69,0,0,0-3.98,3.544l1.55.184a3.178,3.178,0,0,1,.846-1.885,2.264,2.264,0,0,1,1.609-.6,2.327,2.327,0,0,1,1.684.666,2.091,2.091,0,0,1,.687,1.546,1.776,1.776,0,0,1-.235.9,5.119,5.119,0,0,1-1.018,1.1,11.279,11.279,0,0,0-1.085,1.051,3.491,3.491,0,0,0-.595.98,4.22,4.22,0,0,0-.251,1.533q0,.151.008.453h1.449a5.952,5.952,0,0,1,.126-1.307,2.146,2.146,0,0,1,.335-.712,7.48,7.48,0,0,1,.964-.963,7.03,7.03,0,0,0,1.475-1.651Z" transform="translate(951.159 98.108)" fill="#fff"/>
  </g>
</svg>
