<svg xmlns="http://www.w3.org/2000/svg" width="68" height="68" viewBox="0 0 68 68">
  <g id="USDC-LP" transform="translate(1 1)">
    <path id="路径_626" data-name="路径 626" d="M33,66A33,33,0,1,0,0,33,32.921,32.921,0,0,0,33,66Z" fill="#2775ca" stroke="#fff" stroke-width="2"/>
    <path id="路径_627" data-name="路径 627" d="M735.1,529.78c0-4.812-2.888-6.462-8.662-7.15-4.125-.55-4.95-1.65-4.95-3.575s1.375-3.162,4.125-3.162c2.475,0,3.85.825,4.538,2.888a1.034,1.034,0,0,0,.963.687h2.2a.94.94,0,0,0,.963-.962v-.138a6.869,6.869,0,0,0-6.187-5.637v-3.3c0-.55-.413-.963-1.1-1.1H724.92c-.55,0-.963.412-1.1,1.1v3.162c-4.125.55-6.737,3.3-6.737,6.738,0,4.538,2.75,6.325,8.525,7.013,3.85.687,5.088,1.512,5.088,3.712s-1.925,3.713-4.537,3.713c-3.575,0-4.813-1.513-5.225-3.575a1,1,0,0,0-.962-.825h-2.338a.94.94,0,0,0-.962.963v.138c.55,3.437,2.75,5.912,7.287,6.6v3.3c0,.55.412.962,1.1,1.1h2.063c.55,0,.963-.412,1.1-1.1v-3.3C732.345,536.38,735.1,533.492,735.1,529.78Z" transform="translate(-693.02 -491.555)" fill="#fff"/>
    <path id="路径_628" data-name="路径 628" d="M265.77,334.707a20.576,20.576,0,0,1,0-38.637,1.38,1.38,0,0,0,.825-1.375V292.77a1.045,1.045,0,0,0-.825-1.1.828.828,0,0,0-.55.137,24.743,24.743,0,0,0,0,47.163.836.836,0,0,0,1.238-.55c.138-.137.138-.275.138-.55v-1.925A1.832,1.832,0,0,0,265.77,334.707Zm14.575-42.9a.836.836,0,0,0-1.238.55c-.138.138-.138.275-.138.55v1.925a1.824,1.824,0,0,0,.825,1.375,20.576,20.576,0,0,1,0,38.637,1.38,1.38,0,0,0-.825,1.375v1.925a1.045,1.045,0,0,0,.825,1.1.828.828,0,0,0,.55-.137,24.849,24.849,0,0,0,0-47.3Z" transform="translate(-239.783 -282.045)" fill="#fff"/>
  </g>
</svg>
