<svg xmlns="http://www.w3.org/2000/svg" width="27.936" height="26.97" viewBox="0 0 27.936 26.97">
  <path id="理财" d="M75.04,103.418a2.953,2.953,0,0,1-.2,1.092,2.708,2.708,0,0,1-.569.892,2.632,2.632,0,0,1-1.938.815H50A2.88,2.88,0,0,1,48.888,106a2.926,2.926,0,0,1-.923-.6,2.88,2.88,0,0,1-.631-.892,2.608,2.608,0,0,1-.231-1.092V88.066a2.784,2.784,0,0,1,2.8-2.8H72.24a2.784,2.784,0,0,1,2.8,2.8V92.25H68.056a2.727,2.727,0,0,0-1.984.8,2.65,2.65,0,0,0-.815,1.969,3.425,3.425,0,0,0,.338,1.415,2.607,2.607,0,0,0,.815.954,2.691,2.691,0,0,0,1.646.431H75.04ZM70.856,83.851H56.888q1.661-.861,3.138-1.661,1.292-.677,2.554-1.354t1.969-1.046a3.691,3.691,0,0,1,1.923-.538,4.3,4.3,0,0,1,1.431.292,3.854,3.854,0,0,1,1.169.892ZM66.671,95.019a1.385,1.385,0,1,1,2.769,0,1.39,1.39,0,0,1-.4,1,1.375,1.375,0,0,1-1.969,0,1.39,1.39,0,0,1-.4-1Z" transform="translate(-47.104 -79.248)" fill="#fff"/>
</svg>
