<svg xmlns="http://www.w3.org/2000/svg" width="49.423" height="49.439" viewBox="0 0 49.423 49.439">
  <g id="提示_1_" data-name="提示 (1)" transform="translate(-63.483 -63.367)">
    <path id="路径_611" data-name="路径 611" d="M88.195,64.117a23.97,23.97,0,1,0,16.95,7.02A23.877,23.877,0,0,0,88.195,64.117Zm0,2.4a21.808,21.808,0,0,1,8.116,1.575,21.962,21.962,0,0,1,11.882,11.882,21.694,21.694,0,0,1,0,16.231A21.962,21.962,0,0,1,96.31,108.085a21.694,21.694,0,0,1-16.231,0A21.962,21.962,0,0,1,68.2,96.2a21.694,21.694,0,0,1,0-16.231A21.962,21.962,0,0,1,80.079,68.089,21.809,21.809,0,0,1,88.195,66.514Z" transform="translate(0 0)" fill="#fff" stroke="#fff" stroke-width="1.5"/>
    <path id="路径_612" data-name="路径 612" d="M470.914,245.8a2.525,2.525,0,0,1,1.826.742,2.531,2.531,0,0,1,0,3.622,2.642,2.642,0,0,1-3.652,0,2.531,2.531,0,0,1,0-3.622A2.525,2.525,0,0,1,470.914,245.8Zm1.966-26.465-.441,22.231h-3.17l-.441-22.231Z" transform="translate(-382.435 -146.897)" fill="#fff" stroke="#fff" stroke-width="1.5"/>
  </g>
</svg>
